<svg width="213" height="85" viewBox="0 0 213 85" fill="none" xmlns="http://www.w3.org/2000/svg">
<g clip-path="url(#clip0_172_471)">
<path d="M8.56369 81.9923H0V79.4205L7.60246 71.0513H11.928V79.5513H14.4185V81.9487H11.928V84.5641H8.60738V81.9923H8.56369ZM8.56369 73.841L3.49538 79.5949H8.56369V73.841Z" fill="white"/>
<path d="M16.5154 70.7025H29.5357V73.3615H20.2729V76.2384H29.0551V78.7666H20.2729V81.9487H29.5794V84.6077H16.4717V70.7025H16.5154Z" fill="white"/>
<path d="M32.1143 70.7025H35.9155V73.1871C35.9155 75.6717 34.6484 77.241 32.1143 77.5897V76.2384C33.3813 75.8897 33.7746 75.323 33.8619 74.0153H32.1143V70.7025Z" fill="white"/>
<path d="M40.8962 81.382C41.071 82.2974 41.6827 82.864 43.4741 82.864C45.047 82.864 45.9645 82.4717 45.9645 81.7307C45.9645 81.164 45.6587 80.9025 43.9984 80.6846L40.8525 80.2487C38.6679 79.9435 37.4008 79.2897 37.4008 77.2846C37.4008 74.4512 40.2845 73.7538 43.1245 73.7538C47.9744 73.7538 49.0667 75.323 49.3288 77.2846H45.5276C45.3528 76.1948 44.2168 75.8897 43.2119 75.8897C42.2944 75.8897 40.9836 75.9769 40.9836 76.9794C40.9836 77.4589 41.2457 77.8076 42.7313 77.9384L45.1344 78.1999C48.6297 78.5922 49.7657 79.5948 49.7657 81.4256C49.7657 84.5205 46.2704 84.9563 43.2993 84.9563C39.3233 84.9563 37.3134 83.823 37.1387 81.3384H40.8962V81.382Z" fill="white"/>
<path d="M70.6508 75.9333C70.3013 73.9281 68.641 72.9256 66.6748 72.9256C63.092 72.9256 62.3056 75.7153 62.3056 77.6333C62.3056 79.5076 63.0483 82.341 66.6748 82.341C68.5099 82.341 70.3013 81.4692 70.6508 79.2461H74.7579C74.2773 83.2999 70.9567 84.9999 66.5 84.9999C61.4317 84.9999 58.2422 82.8205 58.2422 77.6333C58.2422 72.4461 61.388 70.2666 66.5 70.2666C69.8643 70.2666 74.1462 71.1384 74.7142 75.9333H70.6508Z" fill="white"/>
<path d="M84.4575 70.3102C91.9725 70.3102 93.1522 74.7563 93.1522 77.6768C93.1522 80.5974 91.9725 85.0435 84.4575 85.0435C76.9424 85.0435 75.7627 80.5974 75.7627 77.6768C75.7627 74.7563 76.9861 70.3102 84.4575 70.3102ZM84.4575 82.3409C87.9092 82.3409 89.0888 79.8127 89.0888 77.6333C89.0888 75.4538 87.8655 72.9256 84.4575 72.9256C81.0058 72.9256 79.8261 75.4538 79.8261 77.6333C79.8261 79.8127 81.0495 82.3409 84.4575 82.3409Z" fill="white"/>
<path d="M106.784 70.7025H110.455V84.6077H106.348L98.7451 74.8871H98.7014V84.6077H95.0312V70.7025H99.4442L106.784 80.423H106.828V70.7025H106.784Z" fill="white"/>
<path d="M122.557 74.7128C122.339 72.882 120.591 72.7076 119.062 72.7076C117.489 72.7076 116.484 73.4051 116.484 74.364C116.484 75.1051 117.096 75.4974 118.101 75.6717L122.863 76.4128C125.397 76.8051 127.32 77.764 127.32 80.2923C127.32 82.9076 125.572 84.9564 120.067 84.9564C116.659 84.9564 112.246 84.5205 112.202 80.1615H116.484C116.528 82.0794 118.45 82.3846 120.067 82.3846C121.858 82.3846 123.038 81.8615 123.038 80.641C123.038 79.5512 122.164 79.2897 120.678 79.0282L117.227 78.5051C114.824 78.1128 112.464 77.4153 112.464 74.582C112.464 71.4871 114.998 70.223 119.368 70.223C122.251 70.223 126.49 70.7025 126.752 74.6692H122.557V74.7128Z" fill="white"/>
<path d="M128.893 70.7025H132.694V78.6794C132.694 80.0307 132.737 82.341 136.233 82.341C139.728 82.341 139.772 80.0307 139.772 78.6794V70.7025H143.573V79.6384C143.573 81.2076 143.398 85 136.233 85C129.111 85 128.893 81.1641 128.893 79.6384V70.7025Z" fill="white"/>
<path d="M146.063 70.7025H149.865V81.8615H158.385V84.6512H146.107V70.7025H146.063Z" fill="white"/>
<path d="M162.186 73.3179H156.986V70.6589H171.143V73.3179H165.943V84.6077H162.142V73.3179H162.186Z" fill="white"/>
<path d="M172.497 70.7025H176.298V84.6077H172.497V70.7025Z" fill="white"/>
<path d="M190.717 70.7025H194.387V84.6077H190.28L182.634 74.8871V84.6077H178.964V70.7025H183.377L190.717 80.423H190.761V70.7025H190.717Z" fill="white"/>
<path d="M205.878 76.8487H213V84.6076H211.077L210.553 82.9948C209.242 84.4333 207.101 84.9999 204.698 84.9999C199.63 84.9999 196.44 82.8205 196.44 77.6333C196.44 73.3179 199.412 70.2666 204.698 70.2666C208.587 70.2666 212.213 71.3999 212.912 75.2358H208.674C208.106 73.4487 206.49 72.9256 205.135 72.9256C201.684 72.9256 200.504 75.4538 200.504 77.6333C200.504 79.8128 201.727 82.341 205.135 82.341C207.189 82.341 208.805 81.5564 209.242 79.2461H205.878V76.8487Z" fill="white"/>
<path d="M208.587 65.9512H207.757V65.6897H209.767V65.9512H208.937V68.2615H208.631V65.9512H208.587ZM212.388 65.6897H212.913V68.2615H212.607V65.9512L211.689 68.2615H211.471L210.553 65.9512V68.2615H210.247V65.6897H210.772L211.602 67.782L212.388 65.6897Z" fill="white"/>
<path d="M150.083 33.0846L128.368 54.7487L121.858 48.2538L143.573 26.6333L139.247 22.2744L117.532 43.9385L111.022 37.4436L132.737 15.8231L128.411 11.4641L106.696 33.1282H106.653L84.9813 11.5077L80.6558 15.8231L102.327 37.4872L95.8607 43.9821L74.1456 22.318L69.8201 26.6333L91.4914 48.2974L85.025 54.7923L63.3099 33.1282L58.9844 37.4436L80.6558 59.1077L85.025 63.4231L106.696 41.8026L128.368 63.4231L132.693 59.1077V59.0641L154.408 37.4436L150.083 33.0846Z" fill="white"/>
<path d="M63.3099 30.8615L85.025 52.482L89.3505 48.1667L67.6355 26.5026L74.1456 20.0513L95.8607 41.6718L100.186 37.3564L78.4711 15.6923L84.9813 9.24102L106.696 30.8615L111.022 26.5461L128.411 9.19743L134.878 15.6923L113.207 37.3128L117.532 41.6718L139.247 20.0077L145.714 26.5026L124.042 48.1231L128.368 52.482L150.083 30.8179L154.408 26.5026L128.368 0.523071L124.042 4.88205L106.653 22.1872L89.3068 4.88205L84.9813 0.566661L58.9844 26.5026L63.3099 30.8615Z" fill="white"/>
<path d="M133.131 0.261538H132.301V0H134.311V0.261538H133.48V2.57179H133.175V0.261538H133.131ZM136.888 0H137.413V2.57179H137.107V0.261538L136.189 2.57179H136.015L135.097 0.261538V2.57179H134.791V0H135.316L136.146 2.09231L136.888 0Z" fill="white"/>
</g>
<defs>
<clipPath id="clip0_172_471">
<rect width="213" height="85" fill="white"/>
</clipPath>
</defs>
</svg>
