<svg width="187" height="75" viewBox="0 0 187 75" fill="none" xmlns="http://www.w3.org/2000/svg">
<g clip-path="url(#clip0_165_1504)">
<path d="M7.51836 72.346H0V70.0768L6.67446 62.6921H10.472V70.1921H12.6585V72.3075H10.472V74.6152H7.55672V72.346H7.51836ZM7.51836 65.1537L3.06872 70.2306H7.51836V65.1537Z" fill="white"/>
<path d="M14.4993 62.3845H25.9303V64.7307H17.7982V67.2691H25.5083V69.4999H17.7982V72.3076H25.9686V74.6538H14.4609V62.3845H14.4993Z" fill="white"/>
<path d="M28.1934 62.3845H31.5306V64.5768C31.5306 66.7691 30.4182 68.1538 28.1934 68.4614V67.2691C29.3058 66.9614 29.651 66.4614 29.7277 65.3076H28.1934V62.3845Z" fill="white"/>
<path d="M35.9043 71.8077C36.0578 72.6154 36.5948 73.1154 38.1675 73.1154C39.5484 73.1154 40.354 72.7692 40.354 72.1154C40.354 71.6154 40.0855 71.3846 38.6278 71.1923L35.866 70.8077C33.948 70.5384 32.8356 69.9615 32.8356 68.1923C32.8356 65.6923 35.3673 65.0769 37.8606 65.0769C42.1185 65.0769 43.0775 66.4615 43.3076 68.1923H39.9704C39.817 67.2308 38.8196 66.9615 37.9374 66.9615C37.1318 66.9615 35.9811 67.0384 35.9811 67.9231C35.9811 68.3461 36.2112 68.6538 37.5154 68.7692L39.6252 69C42.6939 69.3461 43.6912 70.2308 43.6912 71.8461C43.6912 74.5769 40.6225 74.9615 38.0141 74.9615C34.5234 74.9615 32.7589 73.9615 32.6055 71.7692H35.9043V71.8077Z" fill="white"/>
<path d="M62.0268 67C61.7199 65.2308 60.2623 64.3462 58.5361 64.3462C55.3907 64.3462 54.7002 66.8077 54.7002 68.5C54.7002 70.1538 55.3523 72.6538 58.5361 72.6538C60.1472 72.6538 61.7199 71.8846 62.0268 69.9231H65.6325C65.2106 73.5 62.2953 75 58.3827 75C53.933 75 51.1328 73.0769 51.1328 68.5C51.1328 63.9231 53.8947 62 58.3827 62C61.3363 62 65.0955 62.7692 65.5942 67H62.0268Z" fill="white"/>
<path d="M74.1481 62.0383C80.7458 62.0383 81.7815 65.9614 81.7815 68.5383C81.7815 71.1152 80.7458 75.0383 74.1481 75.0383C67.5503 75.0383 66.5146 71.1152 66.5146 68.5383C66.5146 65.9614 67.5887 62.0383 74.1481 62.0383ZM74.1481 72.6537C77.1784 72.6537 78.2141 70.4229 78.2141 68.4999C78.2141 66.5768 77.1401 64.346 74.1481 64.346C71.1177 64.346 70.082 66.5768 70.082 68.4999C70.082 70.4229 71.1561 72.6537 74.1481 72.6537Z" fill="white"/>
<path d="M93.7492 62.3845H96.9714V74.6538H93.3656L86.6912 66.0768H86.6528V74.6538H83.4307V62.3845H87.3049L93.7492 70.9614H93.7876V62.3845H93.7492Z" fill="white"/>
<path d="M107.597 65.923C107.405 64.3076 105.871 64.1537 104.528 64.1537C103.147 64.1537 102.265 64.7691 102.265 65.6153C102.265 66.2691 102.802 66.6153 103.684 66.7691L107.865 67.423C110.09 67.7691 111.778 68.6153 111.778 70.846C111.778 73.1537 110.244 74.9614 105.41 74.9614C102.418 74.9614 98.5442 74.5768 98.5059 70.7307H102.265C102.303 72.423 103.991 72.6922 105.41 72.6922C106.983 72.6922 108.019 72.2307 108.019 71.1537C108.019 70.1922 107.252 69.9614 105.948 69.7307L102.917 69.2691C100.807 68.923 98.736 68.3076 98.736 65.8076C98.736 63.0768 100.961 61.9614 104.797 61.9614C107.328 61.9614 111.049 62.3845 111.279 65.8845H107.597V65.923Z" fill="white"/>
<path d="M113.159 62.3845H116.496V69.423C116.496 70.6153 116.535 72.6538 119.603 72.6538C122.672 72.6538 122.711 70.6153 122.711 69.423V62.3845H126.048V70.2691C126.048 71.6538 125.894 74.9999 119.603 74.9999C113.351 74.9999 113.159 71.6153 113.159 70.2691V62.3845Z" fill="white"/>
<path d="M128.234 62.3845H131.572V72.2307H139.052V74.6922H128.273V62.3845H128.234Z" fill="white"/>
<path d="M142.389 64.6921H137.824V62.3459H150.253V64.6921H145.688V74.6536H142.351V64.6921H142.389Z" fill="white"/>
<path d="M151.441 62.3845H154.779V74.6538H151.441V62.3845Z" fill="white"/>
<path d="M167.437 62.3845H170.659V74.6538H167.053L160.34 66.0768V74.6538H157.118V62.3845H160.992L167.437 70.9614H167.475V62.3845H167.437Z" fill="white"/>
<path d="M180.747 67.8077H187V74.6538H185.312L184.852 73.2308C183.701 74.5 181.822 75 179.712 75C175.262 75 172.462 73.0769 172.462 68.5C172.462 64.6923 175.07 62 179.712 62C183.126 62 186.31 63 186.923 66.3846H183.202C182.704 64.8077 181.284 64.3462 180.095 64.3462C177.065 64.3462 176.029 66.5769 176.029 68.5C176.029 70.4231 177.103 72.6538 180.095 72.6538C181.898 72.6538 183.318 71.9615 183.701 69.9231H180.747V67.8077Z" fill="white"/>
<path d="M183.125 58.1922H182.396V57.9614H184.161V58.1922H183.432V60.2307H183.164V58.1922H183.125ZM186.463 57.9614H186.923V60.2307H186.654V58.1922L185.849 60.2307H185.657L184.851 58.1922V60.2307H184.583V57.9614H185.043L185.772 59.8076L186.463 57.9614Z" fill="white"/>
<path d="M131.763 29.1922L112.698 48.3075L106.983 42.5768L126.047 23.4998L122.25 19.6537L103.185 38.7691L97.4697 33.0383L116.534 13.9614L112.737 10.1152L93.6722 29.2306H93.6338L74.6078 10.1537L70.8102 13.9614L89.8363 33.0768L84.1591 38.8075L65.0947 19.6922L61.2972 23.4998L80.3232 42.6152L74.6461 48.346L55.5817 29.2306L51.7842 33.0383L70.8102 52.1537L74.6461 55.9614L93.6722 36.8845L112.698 55.9614L116.496 52.1537V52.1152L135.56 33.0383L131.763 29.1922Z" fill="white"/>
<path d="M55.5817 27.2307L74.6461 46.3076L78.4437 42.4999L59.3793 23.3845L65.0947 17.6922L84.1591 36.7691L87.9567 32.9614L68.8923 13.846L74.6078 8.15373L93.6722 27.2307L97.4697 23.423L112.737 8.11527L118.414 13.846L99.3877 32.923L103.185 36.7691L122.25 17.6537L127.927 23.3845L108.901 42.4614L112.698 46.3076L131.763 27.1922L135.56 23.3845L112.698 0.461426L108.901 4.30758L93.6338 19.5768L78.4053 4.30758L74.6078 0.499887L51.7842 23.3845L55.5817 27.2307Z" fill="white"/>
<path d="M116.88 0.230769H116.151V0H117.916V0.230769H117.187V2.26923H116.919V0.230769H116.88ZM120.179 0H120.639V2.26923H120.371V0.230769L119.565 2.26923H119.412L118.606 0.230769V2.26923H118.338V0H118.798L119.527 1.84615L120.179 0Z" fill="white"/>
</g>
<defs>
<clipPath id="clip0_165_1504">
<rect width="187" height="75" fill="white"/>
</clipPath>
</defs>
</svg>
