<svg width="190" height="77" viewBox="0 0 190 77" fill="none" xmlns="http://www.w3.org/2000/svg">
<path d="M7.63897 73.9011H0V71.5958L6.78154 64.0938H10.64V71.713H12.8615V73.8621H10.64V76.2065H7.67795V73.9011H7.63897ZM7.63897 66.5944L3.11795 71.7521H7.63897V66.5944Z" fill="#008BAD"/>
<path d="M14.7323 63.7815H26.3467V66.165H18.0841V68.7438H25.918V71.01H18.0841V73.8624H26.3857V76.2459H14.6934V63.7815H14.7323Z" fill="#008BAD"/>
<path d="M28.6465 63.7815H32.0373V66.0087C32.0373 68.2358 30.907 69.6425 28.6465 69.9551V68.7438C29.7767 68.4312 30.1275 67.9233 30.2055 66.7511H28.6465V63.7815Z" fill="#008BAD"/>
<path d="M36.4797 73.3544C36.6356 74.175 37.1813 74.6829 38.7792 74.6829C40.1823 74.6829 41.0007 74.3313 41.0007 73.667C41.0007 73.1591 40.7279 72.9246 39.2469 72.7293L36.4407 72.3385C34.492 72.065 33.3618 71.4789 33.3618 69.6815C33.3618 67.1418 35.9341 66.5166 38.4674 66.5166C42.7936 66.5166 43.7679 67.9232 44.0018 69.6815H40.611C40.4551 68.7047 39.4418 68.4312 38.5454 68.4312C37.7269 68.4312 36.5577 68.5093 36.5577 69.408C36.5577 69.8378 36.7915 70.1504 38.1166 70.2676L40.2602 70.5021C43.3782 70.8537 44.3915 71.7524 44.3915 73.3935C44.3915 76.1677 41.2736 76.5584 38.6233 76.5584C35.0766 76.5584 33.2838 75.5425 33.1279 73.3154H36.4797V73.3544Z" fill="#008BAD"/>
<path d="M63.0218 68.4702C62.71 66.6728 61.229 65.7741 59.4752 65.7741C56.2793 65.7741 55.5777 68.2748 55.5777 69.994C55.5777 71.6742 56.2403 74.2139 59.4752 74.2139C61.1121 74.2139 62.71 73.4325 63.0218 71.4397H66.6854C66.2567 75.0735 63.2947 76.5974 59.3193 76.5974C54.7983 76.5974 51.9531 74.6437 51.9531 69.994C51.9531 65.3443 54.7593 63.3906 59.3193 63.3906C62.3203 63.3906 66.1398 64.1721 66.6465 68.4702H63.0218Z" fill="#008BAD"/>
<path d="M75.3379 63.4297C82.0415 63.4297 83.0938 67.4152 83.0938 70.0331C83.0938 72.651 82.0415 76.6365 75.3379 76.6365C68.6343 76.6365 67.582 72.651 67.582 70.0331C67.582 67.4152 68.6733 63.4297 75.3379 63.4297ZM75.3379 74.2139C78.4169 74.2139 79.4692 71.9477 79.4692 69.994C79.4692 68.0403 78.3779 65.7741 75.3379 65.7741C72.259 65.7741 71.2066 68.0403 71.2066 69.994C71.2066 71.9477 72.2979 74.2139 75.3379 74.2139Z" fill="#008BAD"/>
<path d="M95.2536 63.7815H98.5275V76.2459H94.8639L88.0824 67.5325H88.0434V76.2459H84.7695V63.7815H88.7059L95.2536 72.4948H95.2926V63.7815H95.2536Z" fill="#008BAD"/>
<path d="M109.323 67.3761C109.128 65.735 107.569 65.5787 106.205 65.5787C104.802 65.5787 103.905 66.2039 103.905 67.0635C103.905 67.7278 104.451 68.0794 105.347 68.2357L109.596 68.9C111.856 69.2516 113.571 70.1112 113.571 72.3775C113.571 74.7219 112.012 76.5583 107.101 76.5583C104.061 76.5583 100.125 76.1676 100.086 72.2603H103.905C103.944 73.9795 105.659 74.253 107.101 74.253C108.699 74.253 109.752 73.7841 109.752 72.6901C109.752 71.7132 108.972 71.4788 107.647 71.2444L104.568 70.7755C102.424 70.4238 100.32 69.7987 100.32 67.2589C100.32 64.4847 102.58 63.3516 106.478 63.3516C109.05 63.3516 112.831 63.7814 113.064 67.337H109.323V67.3761Z" fill="#008BAD"/>
<path d="M114.975 63.7815H118.365V70.9319C118.365 72.1432 118.404 74.2141 121.522 74.2141C124.64 74.2141 124.679 72.1432 124.679 70.9319V63.7815H128.07V71.7915C128.07 73.1982 127.914 76.5975 121.522 76.5975C115.169 76.5975 114.975 73.1591 114.975 71.7915V63.7815Z" fill="#008BAD"/>
<path d="M130.291 63.7815H133.682V73.7843H141.282V76.2849H130.33V63.7815H130.291Z" fill="#008BAD"/>
<path d="M144.673 66.1259H140.035V63.7424H152.663V66.1259H148.025V76.2459H144.634V66.1259H144.673Z" fill="#008BAD"/>
<path d="M153.871 63.7815H157.262V76.2459H153.871V63.7815Z" fill="#008BAD"/>
<path d="M170.123 63.7815H173.397V76.2459H169.733L162.913 67.5325V76.2459H159.639V63.7815H163.575L170.123 72.4948H170.162V63.7815H170.123Z" fill="#008BAD"/>
<path d="M183.647 69.2907H190V76.2457H188.285L187.817 74.8C186.648 76.0894 184.738 76.5974 182.595 76.5974C178.074 76.5974 175.229 74.6437 175.229 69.994C175.229 66.1258 177.879 63.3906 182.595 63.3906C186.063 63.3906 189.298 64.4065 189.922 67.845H186.141C185.635 66.243 184.193 65.7741 182.984 65.7741C179.905 65.7741 178.853 68.0403 178.853 69.994C178.853 71.9477 179.944 74.2139 182.984 74.2139C184.816 74.2139 186.258 73.5106 186.648 71.4397H183.647V69.2907Z" fill="#008BAD"/>
<path d="M186.064 59.522H185.323V59.2876H187.116V59.522H186.376V61.5929H186.103V59.522H186.064ZM189.455 59.2876H189.922V61.5929H189.649V59.522L188.831 61.5929H188.636L187.818 59.522V61.5929H187.545V59.2876H188.012L188.753 61.1631L189.455 59.2876Z" fill="#008BAD"/>
<path d="M133.877 30.061L114.507 49.4804L108.699 43.6585L128.07 24.2782L124.211 20.3708L104.841 39.7903L99.0337 33.9683L118.404 14.588L114.545 10.6807L95.1752 30.1001H95.1363L75.805 10.7197L71.9465 14.588L91.2778 34.0074L85.5096 39.8293L66.1393 20.4099L62.2809 24.2782L81.6122 43.6976L75.844 49.5195L56.4737 30.1001L52.6152 33.9683L71.9465 53.3878L75.844 57.256L95.1752 37.8757L114.507 57.256L118.365 53.3878V53.3487L137.735 33.9683L133.877 30.061Z" fill="#008BAD"/>
<path d="M56.4737 28.0681L75.844 47.4484L79.7024 43.5801L60.3322 24.1607L66.1393 18.3779L85.5096 37.7582L89.3681 33.89L69.9978 14.4705L75.805 8.6877L95.1752 28.0681L99.0337 24.1998L114.545 8.64863L120.314 14.4705L100.982 33.8509L104.841 37.7582L124.211 18.3388L129.979 24.1607L110.648 43.5411L114.507 47.4484L133.877 28.029L137.735 24.1607L114.507 0.873047L110.648 4.78037L95.1363 20.2925L79.6634 4.78037L75.805 0.91212L52.6152 24.1607L56.4737 28.0681Z" fill="#008BAD"/>
<path d="M118.755 0.638737H118.015V0.404297H119.807V0.638737H119.067V2.70962H118.794V0.638737H118.755ZM122.107 0.404297H122.575V2.70962H122.302V0.638737L121.483 2.70962H121.327L120.509 0.638737V2.70962H120.236V0.404297H120.704L121.444 2.27981L122.107 0.404297Z" fill="#008BAD"/>
</svg>
