<svg width="24" height="23" viewBox="0 0 24 23" fill="none" xmlns="http://www.w3.org/2000/svg">
<g clip-path="url(#clip0_1_677)">
<path d="M23.5515 8.4285L16.1809 7.30268L12.8797 0.278242C12.841 0.195029 12.7793 0.124589 12.7019 0.0752253C12.6245 0.0258618 12.5345 -0.000366211 12.4427 -0.000366211C12.3508 -0.000366211 12.2609 0.0258618 12.1834 0.0752253C12.106 0.124589 12.0443 0.195029 12.0057 0.278242L8.70496 7.30268L1.33441 8.4285C1.24731 8.44128 1.16543 8.47782 1.0978 8.5341C1.03017 8.59038 0.979419 8.66421 0.951133 8.74746C0.922847 8.83071 0.918127 8.92014 0.937495 9.00589C0.956862 9.09164 0.999565 9.17039 1.0609 9.23346L6.41143 14.7101L5.14925 22.4435C5.1347 22.5323 5.14542 22.6233 5.1802 22.7063C5.21498 22.7893 5.27241 22.8608 5.34595 22.9128C5.41948 22.9648 5.50616 22.9951 5.5961 23.0002C5.68604 23.0054 5.77562 22.9852 5.85463 22.942L12.4427 19.3032L19.0312 22.9399C19.1024 22.9775 19.1816 22.9973 19.2621 22.9974C19.3616 22.9985 19.4589 22.9683 19.5402 22.9112C19.6135 22.8589 19.6707 22.7874 19.7055 22.7045C19.7402 22.6216 19.7512 22.5307 19.7371 22.4419L18.4749 14.7101L23.8255 9.23346C23.8868 9.17039 23.9295 9.09164 23.9489 9.00589C23.9683 8.92014 23.9635 8.83071 23.9352 8.74746C23.907 8.66421 23.8562 8.59038 23.7886 8.5341C23.7209 8.47782 23.6391 8.44128 23.552 8.4285H23.5515Z" fill="#008BAD"/>
</g>
<defs>
<clipPath id="clip0_1_677">
<rect width="23.0361" height="23" fill="white" transform="translate(0.924805)"/>
</clipPath>
</defs>
</svg>
