<svg width="31" height="18" viewBox="0 0 31 18" fill="none" xmlns="http://www.w3.org/2000/svg">
<path d="M0.582857 0.632568C0.398085 0.822216 0.251501 1.04744 0.151489 1.29536C0.0514772 1.54328 -7.1016e-07 1.80903 -6.98391e-07 2.07742C-6.86623e-07 2.3458 0.0514772 2.61156 0.151489 2.85948C0.251501 3.1074 0.398085 3.33262 0.582857 3.52227L14.0775 17.4056C14.262 17.5955 14.4812 17.7461 14.7224 17.8489C14.9636 17.9517 15.2222 18.0046 15.4833 18.0046C15.7444 18.0046 16.003 17.9517 16.2442 17.8489C16.4854 17.7461 16.7046 17.5955 16.8891 17.4056L30.3837 3.52135C30.5683 3.33161 30.7147 3.10637 30.8145 2.85849C30.9144 2.6106 30.9657 2.34493 30.9657 2.07664C30.9657 1.80835 30.9142 1.54269 30.8143 1.29484C30.7143 1.04699 30.5679 0.821791 30.3833 0.632111C30.1987 0.442431 29.9795 0.291979 29.7383 0.189347C29.4972 0.0867163 29.2387 0.0339152 28.9776 0.0339572C28.7166 0.0340011 28.4581 0.0868842 28.217 0.189595C27.9758 0.292304 27.7567 0.442826 27.5722 0.632567L15.4833 13.0729L3.39443 0.632568C3.20997 0.442552 2.99085 0.291799 2.74963 0.18894C2.5084 0.0860804 2.2498 0.0331363 1.98864 0.0331363C1.72748 0.0331363 1.46888 0.0860805 1.22766 0.18894C0.986433 0.2918 0.767317 0.442553 0.582857 0.632568Z" fill="#A7606F"/>
</svg>
