<svg width="50" height="50" viewBox="0 0 50 50" fill="none" xmlns="http://www.w3.org/2000/svg">
<circle r="25" transform="matrix(-1 0 0 1 25 25)" fill="#4A7473"/>
<g clip-path="url(#clip0_1_1062)">
<path d="M29.5785 35.6052C29.452 35.7303 29.3019 35.8296 29.1366 35.8974C28.9713 35.9651 28.7941 36 28.6152 36C28.4363 36 28.2591 35.9651 28.0938 35.8974C27.9286 35.8296 27.7784 35.7303 27.652 35.6052L18.3964 26.4636C18.2698 26.3386 18.1694 26.1902 18.1009 26.0268C18.0323 25.8634 17.9971 25.6882 17.9971 25.5113C17.9971 25.3344 18.0323 25.1593 18.1009 24.9959C18.1694 24.8325 18.2698 24.684 18.3964 24.559L27.6526 15.4175C27.7791 15.2925 27.9292 15.1933 28.0945 15.1256C28.2598 15.058 28.4369 15.0232 28.6157 15.0232C28.7946 15.0233 28.9717 15.0581 29.1369 15.1258C29.3022 15.1935 29.4523 15.2927 29.5788 15.4178C29.7052 15.5428 29.8055 15.6913 29.8739 15.8547C29.9423 16.0181 29.9775 16.1932 29.9775 16.37C29.9775 16.5468 29.9422 16.7219 29.8738 16.8853C29.8053 17.0486 29.7049 17.1971 29.5784 17.3221L21.2849 25.5113L29.5785 33.7005C29.7051 33.8255 29.8056 33.9739 29.8742 34.1373C29.9428 34.3008 29.9781 34.4759 29.9781 34.6529C29.9781 34.8298 29.9428 35.0049 29.8742 35.1684C29.8056 35.3318 29.7051 35.4802 29.5785 35.6052Z" fill="white"/>
</g>
<defs>
<clipPath id="clip0_1_1062">
<rect width="12" height="21" fill="white" transform="matrix(1 -8.74228e-08 -8.74228e-08 -1 18 36)"/>
</clipPath>
</defs>
</svg>
