<svg width="50" height="50" viewBox="0 0 50 50" fill="none" xmlns="http://www.w3.org/2000/svg">
<circle cx="25" cy="25" r="25" fill="#4A7473"/>
<g clip-path="url(#clip0_1_1061)">
<path d="M20.4215 35.6052C20.548 35.7303 20.6981 35.8296 20.8634 35.8974C21.0287 35.9651 21.2059 36 21.3848 36C21.5637 36 21.7409 35.9651 21.9062 35.8974C22.0714 35.8296 22.2216 35.7303 22.348 35.6052L31.6036 26.4636C31.7302 26.3386 31.8306 26.1902 31.8991 26.0268C31.9677 25.8634 32.0029 25.6882 32.0029 25.5113C32.0029 25.3344 31.9677 25.1593 31.8991 24.9959C31.8306 24.8325 31.7302 24.684 31.6036 24.559L22.3474 15.4175C22.2209 15.2925 22.0708 15.1933 21.9055 15.1256C21.7402 15.058 21.5631 15.0232 21.3843 15.0232C21.2054 15.0233 21.0283 15.0581 20.8631 15.1258C20.6978 15.1935 20.5477 15.2927 20.4212 15.4178C20.2948 15.5428 20.1945 15.6913 20.1261 15.8547C20.0577 16.0181 20.0225 16.1932 20.0225 16.37C20.0225 16.5468 20.0578 16.7219 20.1262 16.8853C20.1947 17.0486 20.2951 17.1971 20.4216 17.3221L28.7151 25.5113L20.4215 33.7005C20.2949 33.8255 20.1944 33.9739 20.1258 34.1373C20.0572 34.3008 20.0219 34.4759 20.0219 34.6529C20.0219 34.8298 20.0572 35.0049 20.1258 35.1684C20.1944 35.3318 20.2949 35.4802 20.4215 35.6052Z" fill="white"/>
</g>
<defs>
<clipPath id="clip0_1_1061">
<rect width="12" height="21" fill="white" transform="translate(32 36) rotate(-180)"/>
</clipPath>
</defs>
</svg>
