<svg width="8" height="14" viewBox="0 0 8 14" fill="none" xmlns="http://www.w3.org/2000/svg">
<path d="M7.71799 0.263226C7.6337 0.179781 7.5336 0.113581 7.42342 0.0684148C7.31323 0.0232481 7.19512 0 7.07584 0C6.95655 0 6.83844 0.0232481 6.72825 0.0684148C6.61807 0.113581 6.51797 0.179781 6.43368 0.263226L0.263317 6.35758C0.178914 6.44092 0.111955 6.53988 0.0662701 6.64882C0.0205851 6.75775 -0.00292969 6.87453 -0.00292969 6.99246C-0.00292969 7.11038 0.0205851 7.22716 0.0662701 7.33609C0.111955 7.44503 0.178914 7.54399 0.263317 7.62733L6.43409 13.7217C6.51841 13.805 6.61852 13.8711 6.72869 13.9162C6.83886 13.9613 6.95694 13.9845 7.07618 13.9845C7.19542 13.9845 7.31349 13.9613 7.42365 13.9161C7.5338 13.871 7.63389 13.8049 7.71819 13.7215C7.8025 13.6381 7.86936 13.5391 7.91498 13.4302C7.96059 13.3213 7.98406 13.2046 7.98404 13.0867C7.98402 12.9688 7.96052 12.8521 7.91487 12.7431C7.86922 12.6342 7.80232 12.5353 7.71799 12.4519L2.18897 6.99246L7.71799 1.53297C7.80244 1.44966 7.86944 1.35071 7.91516 1.24177C7.96088 1.13283 7.98441 1.01604 7.98441 0.898097C7.98441 0.780153 7.96088 0.663367 7.91516 0.554427C7.86944 0.445486 7.80244 0.346531 7.71799 0.263226Z" fill="#5E5E5E"/>
</svg>
