<svg width="174" height="120" viewBox="0 0 174 120" fill="none" xmlns="http://www.w3.org/2000/svg">
<path d="M87 121H86.9355L1.58047 116.436C1.28967 116.421 1.01624 116.3 0.816378 116.1C0.616513 115.9 0.505396 115.636 0.505864 115.361V20.3765C0.505401 20.228 0.537495 20.0811 0.600125 19.9449C0.662756 19.8087 0.754566 19.6862 0.869776 19.5852C0.984987 19.4842 1.1211 19.4068 1.26955 19.3578C1.41801 19.3089 1.57558 19.2895 1.73236 19.3009L8.63374 19.7974C8.78334 19.8082 8.92923 19.8466 9.0631 19.9105C9.19697 19.9745 9.31618 20.0627 9.41394 20.1701C9.5117 20.2776 9.58609 20.4022 9.63285 20.5368C9.67962 20.6713 9.69785 20.8133 9.68651 20.9546C9.67516 21.0958 9.63447 21.2336 9.56674 21.36C9.49901 21.4863 9.40558 21.5989 9.29177 21.6912C9.17797 21.7835 9.04603 21.8537 8.90348 21.8979C8.76093 21.9421 8.61056 21.9593 8.46097 21.9486L2.78418 21.5381V114.346L85.8609 118.788V24.9386C85.8609 24.6533 85.9809 24.3798 86.1945 24.1781C86.4082 23.9764 86.6979 23.863 87 23.863C87.3022 23.863 87.5919 23.9764 87.8055 24.1781C88.0192 24.3798 88.1392 24.6533 88.1392 24.9386V119.924C88.1392 120.21 88.0192 120.483 87.8055 120.685C87.5919 120.887 87.3022 121 87 121Z" fill="#C6EDDB"/>
<path d="M87.0001 115.113C86.8368 115.113 86.6755 115.079 86.5271 115.015C86.3787 114.951 86.2467 114.857 86.14 114.74C84.2908 112.743 78.2267 108.255 68.5135 105.584C61.3672 103.612 53.3247 102.854 44.6216 103.323C33.7028 103.913 21.698 106.448 8.93944 110.852C8.7674 110.912 8.58272 110.931 8.40108 110.909C8.21943 110.886 8.04618 110.823 7.89601 110.724C7.74583 110.625 7.62317 110.493 7.53842 110.34C7.45368 110.186 7.40934 110.016 7.40918 109.843V15.3411C7.41117 15.1226 7.48365 14.9098 7.61695 14.7311C7.75025 14.5524 7.93804 14.4163 8.15533 14.3409C21.1816 9.82891 33.456 7.24757 44.6387 6.6614C53.6247 6.18994 61.9368 6.9984 69.3375 9.06347C82.0448 12.6074 87.6304 18.5786 87.862 18.8313C88.0412 19.027 88.1396 19.2771 88.1392 19.5358V114.038C88.1392 114.257 88.0683 114.471 87.936 114.651C87.8036 114.831 87.6162 114.968 87.3988 115.045C87.2712 115.09 87.1362 115.113 87.0001 115.113ZM49.5427 101.032C56.6625 101.032 63.3018 101.88 69.3375 103.565C77.8963 105.953 83.2238 109.44 85.8552 111.541V19.9517C83.7326 17.8364 77.7786 13.6238 68.5135 11.0766C61.3672 9.1047 53.3247 8.34643 44.6216 8.81609C33.9211 9.39331 22.1669 11.842 9.68749 16.0958V108.312C22.1442 104.13 33.8945 101.726 44.6387 101.163C46.2968 101.076 47.9315 101.032 49.5427 101.032Z" fill="#C6EDDB"/>
<path d="M87.0005 121C86.6984 121 86.4086 120.887 86.195 120.685C85.9813 120.484 85.8613 120.21 85.8613 119.925V24.9388C85.8613 24.6535 85.9813 24.38 86.195 24.1783C86.4086 23.9766 86.6984 23.8632 87.0005 23.8632C87.3026 23.8632 87.5924 23.9766 87.806 24.1783C88.0196 24.38 88.1396 24.6535 88.1396 24.9388V118.788L171.218 114.346V21.4898L165.494 21.6906C165.344 21.6958 165.195 21.6731 165.055 21.6238C164.915 21.5746 164.786 21.4997 164.676 21.4035C164.567 21.3073 164.478 21.1916 164.416 21.0631C164.353 20.9346 164.319 20.7957 164.313 20.6545C164.308 20.5133 164.332 20.3724 164.384 20.2399C164.436 20.1074 164.515 19.986 164.617 19.8824C164.719 19.7789 164.842 19.6953 164.978 19.6365C165.114 19.5776 165.261 19.5447 165.41 19.5395L172.314 19.3047C172.467 19.2994 172.619 19.3233 172.763 19.3749C172.906 19.4266 173.036 19.505 173.146 19.6054C173.257 19.7058 173.344 19.8262 173.404 19.9593C173.464 20.0924 173.495 20.2356 173.495 20.3802V115.363C173.495 115.638 173.384 115.902 173.184 116.102C172.984 116.302 172.711 116.423 172.42 116.438L87.065 121H87.0005Z" fill="#C6EDDB"/>
<path d="M87.0005 115.112C86.8643 115.112 86.7292 115.089 86.6018 115.043C86.3847 114.967 86.1974 114.829 86.0651 114.65C85.9328 114.47 85.8617 114.257 85.8613 114.038V19.5394C85.8615 19.2805 85.9606 19.0304 86.1404 18.8349C86.372 18.5822 91.9577 12.6111 104.663 9.06711C112.068 7.00204 120.374 6.19896 129.362 6.66503C140.545 7.24763 152.821 9.82896 165.845 14.3409C166.064 14.4166 166.254 14.5539 166.387 14.7344C166.521 14.9149 166.593 15.1298 166.593 15.3501V109.845C166.593 110.018 166.549 110.188 166.464 110.342C166.379 110.495 166.257 110.627 166.106 110.726C165.956 110.825 165.783 110.888 165.601 110.91C165.42 110.933 165.235 110.913 165.063 110.854C152.304 106.443 140.3 103.908 129.381 103.325C120.674 102.85 112.635 103.612 105.498 105.584C95.7834 108.26 89.7193 112.754 87.87 114.748C87.7614 114.864 87.6275 114.957 87.4774 115.019C87.3273 115.082 87.1646 115.114 87.0005 115.112ZM88.1396 19.9517V111.541C90.7768 109.44 96.1137 105.953 104.657 103.565C112.062 101.5 120.368 100.697 129.356 101.163C140.1 101.726 151.851 104.13 164.309 108.312V16.0959C151.83 11.842 140.081 9.39336 129.375 8.81614C120.674 8.34649 112.635 9.10654 105.498 11.0766C96.2181 13.6239 90.2718 17.8347 88.1396 19.9517Z" fill="#C6EDDB"/>
<path d="M87.0018 115.113H86.9353L8.47975 110.919C8.33016 110.911 8.1837 110.875 8.04873 110.813C7.91377 110.752 7.79294 110.666 7.69315 110.56C7.49163 110.347 7.38803 110.067 7.40515 109.782C7.41363 109.641 7.45149 109.503 7.51657 109.375C7.58165 109.248 7.67267 109.134 7.78445 109.039C7.89622 108.945 8.02655 108.873 8.16801 108.826C8.30946 108.779 8.45926 108.759 8.60886 108.767L87.0606 112.96C87.3628 112.968 87.6492 113.089 87.857 113.296C88.0647 113.504 88.1768 113.78 88.1685 114.065C88.1602 114.351 88.0322 114.621 87.8127 114.817C87.5932 115.013 87.3001 115.119 86.998 115.111L87.0018 115.113Z" fill="#C6EDDB"/>
<path d="M87 115.113C86.6979 115.121 86.4047 115.016 86.1851 114.82C85.9654 114.624 85.8371 114.353 85.8286 114.068C85.82 113.783 85.9318 113.506 86.1394 113.299C86.347 113.091 86.6333 112.97 86.9355 112.962L165.389 108.769C165.691 108.753 165.988 108.851 166.214 109.041C166.439 109.231 166.576 109.499 166.593 109.784C166.61 110.069 166.506 110.349 166.305 110.562C166.103 110.775 165.82 110.904 165.518 110.92L87.0646 115.111L87 115.113Z" fill="#C6EDDB"/>
<path d="M87.0001 20.6149C86.7821 20.6145 86.5688 20.555 86.3856 20.4436C86.2023 20.3321 86.0568 20.1733 85.9662 19.9861C85.8757 19.7989 85.8439 19.5911 85.8747 19.3873C85.9055 19.1836 85.9976 18.9925 86.14 18.8367C86.3716 18.5839 91.9573 12.6128 104.663 9.06882C112.067 7.00375 120.374 6.20067 129.361 6.66674C140.544 7.24754 152.821 9.82888 165.845 14.3408C166.126 14.4407 166.354 14.6412 166.479 14.8989C166.604 15.1566 166.617 15.4505 166.514 15.7168C166.411 15.9831 166.2 16.2001 165.929 16.3208C165.657 16.4414 165.346 16.4559 165.063 16.3611C152.304 11.9495 140.299 9.41479 129.38 8.83219C120.674 8.3464 112.635 9.10646 105.498 11.0765C99.153 12.8243 94.6989 15.2228 92.0788 16.9275C89.2404 18.7739 87.8829 20.2259 87.8696 20.2403C87.7621 20.3584 87.6286 20.4532 87.4785 20.5179C87.3284 20.5825 87.1651 20.6157 87.0001 20.6149Z" fill="#C6EDDB"/>
<path d="M95.5251 26.7098C95.27 26.7109 95.022 26.6311 94.8207 26.4833C94.6194 26.3355 94.4764 26.1281 94.4147 25.8945C94.353 25.6608 94.3761 25.4144 94.4804 25.1946C94.5846 24.9749 94.7639 24.7945 94.9897 24.6824C101.342 21.5023 108.777 19.5162 117.093 18.7812C128.314 17.7881 140.894 19.1397 154.484 22.7697C154.775 22.8477 155.021 23.0315 155.168 23.2808C155.315 23.5301 155.352 23.8244 155.269 24.0989C155.186 24.3735 154.992 24.6058 154.728 24.7448C154.464 24.8838 154.152 24.9181 153.861 24.8401C140.545 21.2729 128.245 19.9553 117.306 20.9215C109.292 21.6386 102.142 23.5369 96.0586 26.5843C95.8941 26.6663 95.711 26.7093 95.5251 26.7098Z" fill="#C6EDDB"/>
<path d="M95.5244 40.4465C95.27 40.4468 95.0228 40.3667 94.8223 40.2189C94.6217 40.0712 94.4793 39.8644 94.4177 39.6313C94.3561 39.3983 94.3789 39.1525 94.4824 38.9331C94.586 38.7138 94.7643 38.5334 94.989 38.4208C101.342 35.2408 108.777 33.2546 117.092 32.5196C128.313 31.5247 140.893 32.8674 154.483 36.5081C154.63 36.5443 154.768 36.6077 154.888 36.6947C155.009 36.7818 155.11 36.8906 155.185 37.015C155.26 37.1393 155.308 37.2766 155.327 37.4188C155.345 37.561 155.333 37.7052 155.292 37.843C155.25 37.9808 155.18 38.1094 155.085 38.2212C154.99 38.333 154.873 38.4258 154.74 38.4941C154.606 38.5625 154.46 38.605 154.309 38.6192C154.158 38.6334 154.006 38.619 153.861 38.5768C140.544 35.0095 128.245 33.7009 117.305 34.66C109.291 35.377 102.141 37.2736 96.0579 40.321C95.8937 40.4037 95.7105 40.4468 95.5244 40.4465Z" fill="#C6EDDB"/>
<path d="M95.5244 54.1883C95.27 54.1886 95.0228 54.1085 94.8223 53.9608C94.6217 53.8131 94.4793 53.6062 94.4177 53.3732C94.3561 53.1402 94.3789 52.8944 94.4824 52.675C94.586 52.4556 94.7643 52.2753 94.989 52.1627C101.342 48.9808 108.777 46.9964 117.092 46.2597C128.313 45.2684 140.893 46.6092 154.483 50.25C154.63 50.2861 154.768 50.3495 154.888 50.4366C155.009 50.5236 155.11 50.6325 155.185 50.7568C155.26 50.8812 155.308 51.0185 155.327 51.1607C155.345 51.3029 155.333 51.4471 155.292 51.5849C155.25 51.7226 155.18 51.8512 155.085 51.963C154.99 52.0748 154.873 52.1677 154.74 52.236C154.606 52.3044 154.46 52.3469 154.309 52.3611C154.158 52.3753 154.006 52.3608 153.861 52.3186C140.544 48.7586 128.245 47.4338 117.305 48.4C109.295 49.1171 102.141 51.0154 96.0579 54.0628C95.8934 54.1448 95.7103 54.1878 95.5244 54.1883Z" fill="#C6EDDB"/>
<path d="M95.5244 67.9394C95.27 67.9397 95.0228 67.8596 94.8223 67.7119C94.6217 67.5642 94.4793 67.3573 94.4177 67.1243C94.3561 66.8912 94.3789 66.6455 94.4824 66.4261C94.586 66.2067 94.7643 66.0264 94.989 65.9138C101.342 62.7319 108.777 60.7457 117.092 60.0108C128.313 59.0177 140.893 60.3603 154.483 63.9993C154.774 64.0773 155.02 64.2611 155.167 64.5104C155.315 64.7597 155.351 65.0539 155.268 65.3285C155.186 65.6031 154.991 65.8354 154.727 65.9744C154.463 66.1134 154.151 66.1477 153.861 66.0697C140.544 62.5025 128.245 61.1849 117.305 62.1529C109.291 62.861 102.141 64.7665 96.0579 67.8139C95.8934 67.8958 95.7103 67.9389 95.5244 67.9394Z" fill="#C6EDDB"/>
<path d="M95.5251 81.6724C95.27 81.6735 95.022 81.5937 94.8207 81.4459C94.6194 81.2981 94.4764 81.0908 94.4147 80.8571C94.353 80.6235 94.3761 80.377 94.4804 80.1573C94.5846 79.9375 94.7639 79.7571 94.9897 79.645C101.342 76.465 108.777 74.4788 117.093 73.7438C128.314 72.7507 140.894 74.0934 154.484 77.7323C154.628 77.7709 154.762 77.8359 154.88 77.9236C154.997 78.0113 155.095 78.12 155.168 78.2434C155.241 78.3668 155.287 78.5026 155.305 78.643C155.322 78.7834 155.31 78.9256 155.269 79.0615C155.228 79.1975 155.159 79.3245 155.066 79.4353C154.974 79.5461 154.858 79.6386 154.728 79.7074C154.597 79.7763 154.453 79.8201 154.304 79.8365C154.156 79.8528 154.005 79.8414 153.861 79.8028C140.544 76.2355 128.245 74.9162 117.306 75.886C109.292 76.594 102.142 78.4996 96.0586 81.547C95.8941 81.6289 95.711 81.6719 95.5251 81.6724Z" fill="#C6EDDB"/>
<path d="M95.5244 95.4126C95.27 95.4129 95.0228 95.3328 94.8223 95.1851C94.6217 95.0374 94.4793 94.8305 94.4177 94.5975C94.3561 94.3645 94.3789 94.1187 94.4824 93.8993C94.586 93.6799 94.7643 93.4996 94.989 93.387C101.342 90.2069 108.777 88.2207 117.092 87.484C128.313 86.4926 140.893 87.8425 154.483 91.4743C154.63 91.5104 154.768 91.5738 154.888 91.6609C155.009 91.7479 155.11 91.8568 155.185 91.9811C155.26 92.1055 155.308 92.2428 155.327 92.385C155.345 92.5271 155.333 92.6714 155.292 92.8091C155.25 92.9469 155.18 93.0755 155.085 93.1873C154.99 93.2991 154.873 93.3919 154.74 93.4603C154.606 93.5286 154.46 93.5712 154.309 93.5854C154.158 93.5995 154.006 93.5851 153.861 93.5429C140.544 89.9757 128.245 88.6581 117.305 89.6261C109.291 90.3432 102.141 92.2397 96.0579 95.2871C95.8937 95.3699 95.7105 95.413 95.5244 95.4126Z" fill="#C6EDDB"/>
<path d="M78.4768 26.7098C78.2908 26.7093 78.1078 26.6663 77.9433 26.5843C72.4905 23.8417 63.159 20.615 49.5404 20.615H49.1606C48.8585 20.615 48.5688 20.5017 48.3551 20.3C48.1415 20.0983 48.0215 19.8247 48.0215 19.5395C48.0215 19.2542 48.1415 18.9806 48.3551 18.7789C48.5688 18.5772 48.8585 18.4639 49.1606 18.4639C63.4513 18.4047 73.2898 21.8107 79.0236 24.6824C79.2502 24.7949 79.4301 24.9762 79.5342 25.1971C79.6383 25.418 79.6606 25.6655 79.5974 25.8998C79.5342 26.1341 79.3892 26.3414 79.1859 26.4884C78.9826 26.6353 78.7328 26.7134 78.4768 26.7098Z" fill="#C6EDDB"/>
<path d="M78.4776 40.4464C78.2915 40.4468 78.1083 40.4037 77.9441 40.3209C72.4914 37.5908 63.1522 34.3516 49.5412 34.3516H49.1615C49.0119 34.3523 48.8636 34.3252 48.7251 34.2718C48.5866 34.2184 48.4606 34.1397 48.3543 34.0404C48.248 33.941 48.1634 33.8228 48.1055 33.6926C48.0476 33.5624 48.0174 33.4226 48.0166 33.2814C48.0159 33.1402 48.0446 33.0002 48.1011 32.8694C48.1577 32.7386 48.241 32.6197 48.3462 32.5193C48.4515 32.4189 48.5766 32.3391 48.7146 32.2844C48.8525 32.2297 49.0005 32.2012 49.1501 32.2005C63.4408 32.1413 73.2793 35.5472 79.013 38.419C79.2376 38.5315 79.4158 38.7117 79.5194 38.9309C79.623 39.1501 79.6459 39.3957 79.5845 39.6286C79.5232 39.8615 79.3811 40.0684 79.1808 40.2163C78.9806 40.3641 78.7337 40.4445 78.4795 40.4446L78.4776 40.4464Z" fill="#C6EDDB"/>
<path d="M78.4768 54.1884C78.2907 54.1888 78.1074 54.1457 77.9433 54.063C72.4905 51.3328 63.1514 48.0936 49.5404 48.0936H49.1606C48.8585 48.0936 48.5688 47.9803 48.3551 47.7786C48.1415 47.5769 48.0215 47.3033 48.0215 47.0181C48.0215 46.7328 48.1415 46.4592 48.3551 46.2575C48.5688 46.0558 48.8585 45.9425 49.1606 45.9425H49.5536C63.6336 45.9425 73.3411 49.3162 79.0236 52.1628C79.2481 52.2753 79.4264 52.4555 79.5299 52.6747C79.6335 52.8939 79.6564 53.1395 79.5951 53.3724C79.5337 53.6054 79.3916 53.8122 79.1914 53.9601C78.9912 54.108 78.7443 54.1883 78.4901 54.1884H78.4768Z" fill="#C6EDDB"/>
<path d="M78.4776 67.9394C78.2917 67.9388 78.1086 67.8958 77.9441 67.8139C71.8591 64.7665 64.7109 62.8609 56.697 62.1529C45.7573 61.1849 33.4582 62.5024 20.1415 66.0697C19.9972 66.1083 19.8464 66.1197 19.6974 66.1032C19.5485 66.0868 19.4045 66.0428 19.2736 65.9738C19.1427 65.9048 19.0275 65.8122 18.9345 65.7011C18.8415 65.5901 18.7726 65.4628 18.7318 65.3266C18.6909 65.1905 18.6788 65.048 18.6962 64.9074C18.7136 64.7668 18.7602 64.6309 18.8333 64.5073C18.9064 64.3837 19.0045 64.2749 19.1221 64.1871C19.2397 64.0993 19.3745 64.0343 19.5187 63.9956C33.107 60.3567 45.687 59.014 56.9096 60.0071C65.2236 60.7421 72.6679 62.7283 79.0111 65.9101C79.2357 66.0226 79.4139 66.2028 79.5175 66.422C79.6211 66.6412 79.644 66.8868 79.5827 67.1198C79.5213 67.3527 79.3792 67.5596 79.179 67.7074C78.9787 67.8553 78.7318 67.9357 78.4776 67.9358V67.9394Z" fill="#C6EDDB"/>
<path d="M78.4768 81.6724C78.2908 81.6719 78.1077 81.6289 77.9433 81.547C71.8583 78.4996 64.7101 76.594 56.6961 75.886C45.7545 74.918 33.4573 76.2355 20.1406 79.8028C19.8498 79.8807 19.5381 79.8464 19.2741 79.7074C19.0101 79.5684 18.8154 79.3361 18.7328 79.0615C18.6502 78.787 18.6865 78.4927 18.8338 78.2434C18.981 77.9941 19.2271 77.8103 19.5179 77.7323C33.1061 74.0934 45.6862 72.7507 56.9088 73.7438C65.2227 74.4788 72.6671 76.465 79.0103 79.645C79.2358 79.7571 79.4151 79.9373 79.5194 80.1569C79.6236 80.3764 79.6469 80.6227 79.5854 80.8562C79.524 81.0898 79.3814 81.2971 79.1804 81.4451C78.9794 81.593 78.7316 81.6731 78.4768 81.6724Z" fill="#C6EDDB"/>
<path d="M78.4769 95.4127C78.2908 95.4131 78.1075 95.37 77.9434 95.2873C71.8584 92.2399 64.7102 90.3361 56.6962 89.6263C45.7546 88.6583 33.4574 89.9758 20.1407 93.5431C19.9957 93.5853 19.8433 93.5997 19.6923 93.5855C19.5413 93.5713 19.3949 93.5288 19.2616 93.4604C19.1283 93.3921 19.0107 93.2993 18.9159 93.1875C18.8211 93.0756 18.7509 92.9471 18.7094 92.8093C18.6679 92.6715 18.656 92.5273 18.6744 92.3851C18.6927 92.2429 18.741 92.1056 18.8163 91.9813C18.8916 91.8569 18.9925 91.748 19.113 91.661C19.2335 91.574 19.3712 91.5105 19.518 91.4744C33.1062 87.8372 45.692 86.4928 56.9089 87.4787C65.2228 88.2155 72.6672 90.2017 79.0104 93.3817C79.2349 93.4942 79.4132 93.6744 79.5167 93.8936C79.6203 94.1128 79.6432 94.3584 79.5819 94.5914C79.5205 94.8243 79.3784 95.0312 79.1782 95.179C78.978 95.3269 78.7311 95.4073 78.4769 95.4074V95.4127Z" fill="#C6EDDB"/>
<path d="M19.8296 52.3599C19.5275 52.3599 19.2377 52.2466 19.0241 52.0449C18.8104 51.8432 18.6904 51.5696 18.6904 51.2843V23.8003C18.6905 23.5664 18.7713 23.3388 18.9207 23.1522C19.0701 22.9655 19.2799 22.8299 19.5182 22.766C27.0101 20.7601 34.2665 19.4389 41.0881 18.8402C41.2463 18.8265 41.4057 18.8441 41.5562 18.892C41.7067 18.9398 41.8449 19.0169 41.962 19.1181C42.0791 19.2194 42.1725 19.3427 42.2362 19.4801C42.2998 19.6174 42.3324 19.7658 42.3317 19.9158V47.3944C42.3329 47.6631 42.2276 47.9225 42.0365 48.1216C41.8453 48.3206 41.5822 48.4449 41.2989 48.47C34.6196 49.0562 27.4999 50.3522 20.141 52.3241C20.0394 52.3492 19.9346 52.3613 19.8296 52.3599ZM20.9687 24.616V49.8682C27.2215 48.2368 33.6039 47.0864 40.0534 46.4282V21.0989C33.6007 21.7766 27.2177 22.9529 20.9687 24.616Z" fill="#C6EDDB"/>
<path d="M76.3016 7.43752C76.1314 7.43739 75.9633 7.40125 75.8098 7.33175C65.9599 2.87716 48.5404 -0.984085 21.4398 5.9156C21.2937 5.95791 21.14 5.97201 20.9879 5.95705C20.8359 5.94209 20.6885 5.89839 20.5547 5.82854C20.421 5.7587 20.3034 5.66414 20.2091 5.5505C20.1149 5.43686 20.0458 5.30647 20.006 5.16709C19.9662 5.02772 19.9566 4.88221 19.9776 4.73923C19.9987 4.59626 20.05 4.45875 20.1285 4.33489C20.207 4.21104 20.3112 4.10337 20.4347 4.01831C20.5582 3.93325 20.6986 3.87253 20.8475 3.83978C48.6125 -3.2302 66.6036 0.792375 76.7952 5.39575C77.0281 5.50122 77.2162 5.67829 77.3285 5.89793C77.4408 6.11756 77.4707 6.36671 77.4133 6.60451C77.3559 6.8423 77.2146 7.05462 77.0126 7.20663C76.8106 7.35864 76.5599 7.44132 76.3016 7.4411V7.43752Z" fill="#C6EDDB"/>
<path d="M153.696 6.41755C153.59 6.41794 153.486 6.40406 153.384 6.37632C139.472 2.65132 126.69 1.38037 115.39 2.60112C115.24 2.62035 115.087 2.61106 114.94 2.5738C114.794 2.53655 114.657 2.47207 114.537 2.38416C114.418 2.29625 114.318 2.18667 114.244 2.06185C114.169 1.93702 114.122 1.79946 114.105 1.65723C114.088 1.515 114.101 1.37097 114.143 1.23356C114.186 1.09616 114.257 0.968155 114.353 0.857055C114.448 0.745954 114.566 0.653992 114.7 0.586559C114.834 0.519126 114.981 0.477579 115.132 0.464354C126.726 -0.790461 139.813 0.503791 154.005 4.30767C154.269 4.37875 154.497 4.53748 154.647 4.75464C154.797 4.97179 154.859 5.23277 154.821 5.48954C154.784 5.74632 154.649 5.98161 154.442 6.15212C154.235 6.32264 153.97 6.41689 153.696 6.41755Z" fill="#C6EDDB"/>
</svg>
