<svg width="74" height="74" viewBox="0 0 74 74" fill="none" xmlns="http://www.w3.org/2000/svg">
<g clip-path="url(#clip0_1_1223)">
<path fill-rule="evenodd" clip-rule="evenodd" d="M55.2106 13.3698C48.4118 7.95914 39.8 5.35455 31.1416 6.09028C22.4832 6.82601 14.4345 10.8463 8.64638 17.3266C2.85825 23.8068 -0.230577 32.2558 0.0134296 40.9406C0.257437 49.6255 3.81579 57.8878 9.95863 64.0329C16.1015 70.1781 24.3632 73.7403 33.0492 73.9888C41.7353 74.2374 50.1873 71.1535 56.6716 65.3698C63.1559 59.586 67.1811 51.5407 67.9216 42.8841C68.662 34.2274 66.0616 25.6156 60.6537 18.8149L55.6876 23.7831C59.7792 29.256 61.6453 36.0754 60.9104 42.8686C60.1754 49.6619 56.8939 55.9246 51.7264 60.396C46.5589 64.8674 39.8891 67.2155 33.0596 66.9677C26.2302 66.7199 19.7482 63.8946 14.9184 59.0605C10.0887 54.2263 7.26977 47.7423 7.02919 40.9137C6.78861 34.0851 9.14421 27.4188 13.6218 22.2569C18.0994 17.0949 24.3665 13.8206 31.1616 13.0929C37.9567 12.3653 44.7752 14.2384 50.2445 18.3352L55.2106 13.3698ZM45.8999 22.6791C41.5854 19.7202 36.3211 18.4792 31.139 19.1992C25.9569 19.9193 21.2305 22.5485 17.8864 26.5715C14.5423 30.5945 12.8215 35.7213 13.0613 40.9469C13.3011 46.1725 15.4842 51.1202 19.1827 54.8201C22.8813 58.52 27.8286 60.7055 33.0549 60.948C38.2812 61.1905 43.4096 59.4727 47.4351 56.1312C51.4605 52.7898 54.0926 48.0656 54.8155 42.8846C55.5384 37.7037 54.3 32.4396 51.343 28.1242L46.2873 33.1791C47.9307 36.1365 48.4495 39.5882 47.7482 42.898C47.0469 46.2078 45.1727 49.1527 42.471 51.1897C39.7694 53.2268 36.4223 54.2188 33.0467 53.983C29.6712 53.7471 26.4946 52.2993 24.1026 49.9063C21.7105 47.5134 20.2641 44.3366 20.03 40.9614C19.7959 37.5863 20.7899 34.2402 22.8287 31.5401C24.8675 28.8399 27.8138 26.9675 31.1245 26.2681C34.4352 25.5687 37.8872 26.0893 40.8442 27.734L45.8999 22.6791ZM34.0252 47.8236C35.0534 47.8239 36.0717 47.6218 37.0217 47.2286C37.9717 46.8355 38.835 46.2591 39.5622 45.5322C40.2894 44.8054 40.8662 43.9425 41.2598 42.9928C41.6534 42.043 41.8559 41.025 41.8559 39.997C41.8533 39.2897 41.7561 38.586 41.5669 37.9045L36.7482 42.7253C36.0245 43.4489 35.0429 43.8554 34.0195 43.8554C32.996 43.8554 32.0144 43.4489 31.2907 42.7253C30.567 42.0017 30.1604 41.0203 30.1604 39.997C30.1604 38.9737 30.567 37.9923 31.2907 37.2687C32.8979 35.6646 34.5195 34.0635 36.1267 32.4565C35.0506 32.1573 33.9229 32.0919 32.8194 32.2645C31.7159 32.4372 30.6621 32.8439 29.7289 33.4575C28.7956 34.071 28.0045 34.8772 27.4086 35.8217C26.8128 36.7663 26.426 37.8274 26.2743 38.9339C26.1225 40.0403 26.2094 41.1664 26.529 42.2364C26.8486 43.3065 27.3935 44.2958 28.1272 45.1378C28.8608 45.9799 29.7662 46.6553 30.7825 47.1185C31.7988 47.5817 32.9025 47.8221 34.0195 47.8236H34.0252Z" fill="#008BAD"/>
<path fill-rule="evenodd" clip-rule="evenodd" d="M35.0692 41.0462L60.0702 16.2254L67.0627 16.1907C67.1543 16.1921 67.2452 16.1745 67.3297 16.1392C67.4142 16.1039 67.4906 16.0516 67.5541 15.9855L73.8209 9.52022C74.2574 9.06936 73.8903 8.40748 73.2688 8.40748H67.7217L68.19 7.93638C69.5659 6.56066 67.4731 4.46817 66.0943 5.8439L65.6231 6.23699V0.682049C65.6288 0.548945 65.593 0.417385 65.5208 0.305431C65.4486 0.193476 65.3434 0.106631 65.2198 0.0568799C65.0962 0.00712884 64.9602 -0.00309959 64.8306 0.0275971C64.7009 0.0582938 64.584 0.12842 64.4958 0.228308L58.3185 6.51733C58.2526 6.58152 58.2004 6.65842 58.1652 6.74337C58.1299 6.82833 58.1122 6.91956 58.1133 7.01154V13.948C49.7738 22.2861 41.3159 30.6185 32.9793 38.9537C31.6005 40.3324 33.6962 42.422 35.075 41.0491L35.0692 41.0462Z" fill="#008BAD"/>
</g>
<defs>
<clipPath id="clip0_1_1223">
<rect width="74" height="74" fill="white"/>
</clipPath>
</defs>
</svg>
