<svg width="26" height="29" viewBox="0 0 26 29" fill="none" xmlns="http://www.w3.org/2000/svg">
<path d="M10.8042 22.5593C9.10053 22.5593 7.72035 24.0062 7.72035 25.7797C7.72035 27.5587 9.10592 29 10.8042 29C12.5024 29 13.888 27.5531 13.888 25.7797C13.888 24.0062 12.5024 22.5593 10.8042 22.5593ZM21.603 22.5593C19.8993 22.5593 18.5191 24.0062 18.5191 25.7797C18.5191 27.5587 19.9047 29 21.603 29C23.3066 29 24.6868 27.5531 24.6868 25.7797C24.6922 24.0062 23.3066 22.5593 21.603 22.5593ZM25.5224 3.97476C25.1343 3.49621 24.5466 3.22598 23.9158 3.22598L5.0247 3.22598L4.87374 2.26325C4.66887 0.996505 3.54748 4.31114e-10 2.31287 2.81076e-10L0.770957 0C0.345044 0 -6.10237e-10 0.360318 -1.3635e-09 0.805086C-2.11676e-09 1.24985 0.345044 1.61017 0.770957 1.61017L2.31287 1.61017C2.78731 1.61017 3.27252 2.03805 3.348 2.52786L5.92505 18.6859C6.12453 19.9526 7.25131 20.9491 8.48592 20.9491L23.9158 20.9491C24.3418 20.9491 24.6868 20.5888 24.6868 20.1441C24.6868 19.6993 24.3418 19.339 23.9158 19.339L8.48592 19.339C8.01148 19.339 7.52627 18.9111 7.45079 18.4213L7.068 16.0342L22.4494 14.6379C23.6463 14.531 24.7353 13.4782 24.9348 12.2396L25.9699 5.75383C26.0724 5.10076 25.9106 4.44768 25.5224 3.97476Z" fill="#5E5E5E"/>
</svg>
