<svg width="21" height="24" viewBox="0 0 21 24" fill="none" xmlns="http://www.w3.org/2000/svg">
<path d="M8.43987 18.3919C7.10903 18.3919 6.03089 19.5222 6.03089 20.9075C6.03089 22.2973 7.11324 23.4231 8.43987 23.4231C9.7665 23.4231 10.8489 22.2929 10.8489 20.9075C10.8489 19.5222 9.7665 18.3919 8.43987 18.3919ZM16.8755 18.3919C15.5447 18.3919 14.4665 19.5222 14.4665 20.9075C14.4665 22.2973 15.5489 23.4231 16.8755 23.4231C18.2064 23.4231 19.2845 22.2929 19.2845 20.9075C19.2887 19.5222 18.2064 18.3919 16.8755 18.3919ZM19.9373 3.87424C19.6341 3.50041 19.175 3.28931 18.6823 3.28931L3.92513 3.28931L3.80721 2.53726C3.64717 1.54772 2.77117 0.769287 1.80674 0.769287L0.602246 0.769287C0.269537 0.769287 -4.76697e-10 1.05076 -1.06512e-09 1.39819C-1.65354e-09 1.74563 0.269537 2.0271 0.602246 2.0271L1.80674 2.0271C2.17735 2.0271 2.55639 2.36135 2.61535 2.74397L4.62845 15.3661C4.78428 16.3556 5.66448 17.1341 6.62892 17.1341L18.6823 17.1341C19.015 17.1341 19.2845 16.8526 19.2845 16.5052C19.2845 16.1577 19.015 15.8763 18.6823 15.8763L6.62892 15.8763C6.25831 15.8763 5.87927 15.542 5.82031 15.1594L5.52129 13.2947L17.5367 12.204C18.4717 12.1204 19.3224 11.298 19.4782 10.3304L20.2869 5.26399C20.3669 4.75383 20.2405 4.24367 19.9373 3.87424Z" fill="#008BAD"/>
</svg>
