<?xml version="1.0" encoding="utf-8"?>
<!-- Generator: Adobe Illustrator 24.3.0, SVG Export Plug-In . SVG Version: 6.00 Build 0)  -->
<svg version="1.1" id="Layer_1" xmlns="http://www.w3.org/2000/svg" xmlns:xlink="http://www.w3.org/1999/xlink" x="0px" y="0px"
	 viewBox="0 0 21 24" style="enable-background:new 0 0 21 24;" xml:space="preserve">
<style type="text/css">
	.st0{fill:#FFFFFF;}
</style>
<path class="st0" d="M8.4,18.4c-1.3,0-2.4,1.1-2.4,2.5c0,1.4,1.1,2.5,2.4,2.5s2.4-1.1,2.4-2.5C10.8,19.5,9.8,18.4,8.4,18.4z
	 M16.9,18.4c-1.3,0-2.4,1.1-2.4,2.5c0,1.4,1.1,2.5,2.4,2.5c1.3,0,2.4-1.1,2.4-2.5C19.3,19.5,18.2,18.4,16.9,18.4z M19.9,3.9
	c-0.3-0.4-0.8-0.6-1.3-0.6H3.9L3.8,2.5c-0.2-1-1-1.8-2-1.8H0.6C0.3,0.8,0,1.1,0,1.4C0,1.7,0.3,2,0.6,2h1.2c0.4,0,0.7,0.3,0.8,0.7
	l2,12.6c0.2,1,1,1.8,2,1.8h12.1c0.3,0,0.6-0.3,0.6-0.6c0-0.3-0.3-0.6-0.6-0.6H6.6c-0.4,0-0.7-0.3-0.8-0.7l-0.3-1.9l12-1.1
	c0.9-0.1,1.8-0.9,1.9-1.9l0.8-5.1C20.4,4.8,20.2,4.2,19.9,3.9z"/>
</svg>
