<svg width="72" height="73" viewBox="0 0 72 73" fill="none" xmlns="http://www.w3.org/2000/svg">
<g clip-path="url(#clip0_1_759)">
<path d="M58.2804 13.56C58.0869 13.552 57.8994 13.491 57.7381 13.3839C57.5768 13.2768 57.448 13.1275 57.3655 12.9523C57.2831 12.7771 57.2502 12.5827 57.2705 12.3901C57.2907 12.1976 57.3633 12.0143 57.4804 11.86L65.6804 2.66004C65.8625 2.47746 66.1044 2.3668 66.3617 2.34842C66.6189 2.33005 66.8741 2.4052 67.0804 2.56004C67.2629 2.74217 67.3736 2.98412 67.392 3.24136C67.4104 3.49859 67.3352 3.75381 67.1804 3.96004L58.9804 13.16C58.8978 13.2716 58.793 13.3648 58.6725 13.4337C58.5519 13.5026 58.4184 13.5456 58.2804 13.56Z" fill="#008BAD"/>
<path d="M54.7799 9.75998C54.6399 9.76414 54.5015 9.72954 54.3799 9.65998C54.2542 9.61542 54.1386 9.54615 54.04 9.45624C53.9414 9.36632 53.8618 9.25759 53.8059 9.13645C53.75 9.0153 53.7189 8.88419 53.7144 8.75084C53.71 8.61749 53.7322 8.48459 53.7799 8.35998L56.7799 0.659982C56.8727 0.408026 57.0619 0.203265 57.3057 0.0907429C57.5495 -0.0217789 57.828 -0.0328441 58.0799 0.0599817C58.3319 0.152807 58.5366 0.34192 58.6492 0.585718C58.7617 0.829515 58.7727 1.10803 58.6799 1.35998L55.6799 9.05998C55.6111 9.24964 55.4902 9.41599 55.3309 9.53984C55.1717 9.6637 54.9807 9.74001 54.7799 9.75998Z" fill="#008BAD"/>
<path d="M9.88047 20.6601C9.74904 20.6636 9.61842 20.6386 9.49758 20.5868C9.37673 20.535 9.26855 20.4577 9.18047 20.3601L1.38047 12.3601C1.26585 12.2741 1.17104 12.1645 1.10247 12.0387C1.03389 11.9129 0.993141 11.7739 0.982985 11.6309C0.972828 11.488 0.993499 11.3446 1.0436 11.2104C1.0937 11.0762 1.17205 10.9543 1.27336 10.853C1.37467 10.7516 1.49657 10.6733 1.63079 10.6232C1.76502 10.5731 1.90845 10.5524 2.05136 10.5626C2.19427 10.5727 2.33333 10.6135 2.45912 10.6821C2.58492 10.7506 2.69451 10.8454 2.78047 10.9601L10.5805 18.9601C10.7637 19.147 10.8663 19.3983 10.8663 19.6601C10.8663 19.9218 10.7637 20.1731 10.5805 20.3601C10.4924 20.4577 10.3842 20.535 10.2634 20.5868C10.1425 20.6386 10.0119 20.6636 9.88047 20.6601Z" fill="#008BAD"/>
<path d="M7.6804 24.56C7.53944 24.5749 7.39773 24.5395 7.2804 24.46L0.580395 21.26C0.385277 21.1287 0.242677 20.9328 0.177654 20.7068C0.11263 20.4808 0.129345 20.2391 0.224861 20.0242C0.320377 19.8093 0.488581 19.6349 0.699915 19.5317C0.911249 19.4285 1.15219 19.4031 1.3804 19.46L8.0804 22.66C8.3164 22.7691 8.5006 22.9659 8.59394 23.2086C8.68728 23.4513 8.68242 23.7208 8.5804 23.96C8.50371 24.1357 8.37809 24.2858 8.21852 24.3921C8.05895 24.4985 7.87215 24.5568 7.6804 24.56Z" fill="#008BAD"/>
<path d="M70.5796 22.86C69.9592 22.2849 69.1948 21.8884 68.3674 21.7123C67.54 21.5363 66.6804 21.5873 65.8796 21.86C65.0468 22.1189 64.3087 22.6174 63.7574 23.2932C63.2061 23.969 62.866 24.7921 62.7796 25.66L60.5796 35.16C60.5371 35.2636 60.4688 35.3547 60.3814 35.4247C60.2939 35.4947 60.19 35.5412 60.0796 35.56C59.9626 35.5633 59.8466 35.5377 59.7419 35.4853C59.6373 35.433 59.5471 35.3556 59.4796 35.26L57.6796 31.06L58.2796 30.06C58.6153 29.5284 58.8427 28.9358 58.949 28.3161C59.0553 27.6964 59.0382 27.0619 58.8989 26.4488C58.7596 25.8357 58.5007 25.2561 58.137 24.7433C57.7733 24.2304 57.3121 23.7943 56.7796 23.46C55.9827 22.9109 55.0466 22.5988 54.0796 22.56L52.3796 18.46C52.446 17.5078 52.2003 16.56 51.6796 15.76C51.3763 15.3359 51.042 14.9348 50.6796 14.56L46.3796 3.45999C45.3796 1.05999 43.5796 -0.0400058 41.6796 0.759994C40.8035 1.08181 40.0856 1.72957 39.6756 2.56806C39.2657 3.40655 39.1955 4.37096 39.4796 5.25999L42.8796 15.26C42.7578 15.4125 42.6569 15.5807 42.5796 15.76L40.7796 18.86L39.9796 17.26C40.1596 16.0374 39.9219 14.7899 39.3049 13.7192C38.6878 12.6485 37.7276 11.8173 36.5796 11.36L32.5796 4.35999C32.3258 3.80113 31.9185 3.32584 31.4051 2.98947C30.8917 2.6531 30.2933 2.46948 29.6796 2.45999C29.0242 2.46668 28.3804 2.63433 27.805 2.9482C27.2296 3.26208 26.7401 3.71255 26.3796 4.25999C26.0948 4.76719 25.9535 5.34244 25.9712 5.92389C25.9888 6.50533 26.1646 7.07098 26.4796 7.55999L29.9796 13.96C29.793 14.283 29.626 14.6169 29.4796 14.96L28.1796 18.16L25.3796 14.46C23.6796 12.26 21.6796 12.36 20.4796 13.26C19.8066 13.674 19.324 14.3368 19.1368 15.1044C18.9496 15.8721 19.0728 16.6826 19.4796 17.36L25.0796 25.76L22.9796 30.76L19.2796 27.66C17.5796 26.26 15.9796 26.56 15.0796 27.46C14.8357 27.7156 14.6447 28.0168 14.5177 28.3465C14.3906 28.6761 14.33 29.0276 14.3393 29.3808C14.3486 29.7339 14.4276 30.0818 14.5718 30.4043C14.716 30.7268 14.9226 31.0176 15.1796 31.26C15.3796 31.46 17.8796 33.56 20.6796 36.26L18.9796 40.36L17.9796 36.06C17.7783 34.8936 17.2755 33.8002 16.5213 32.8881C15.767 31.9759 14.7874 31.2768 13.6796 30.86C12.5842 30.5079 11.4151 30.4519 10.291 30.6978C9.16694 30.9437 8.12797 31.4827 7.27961 32.26C6.37989 33.1786 5.74653 34.3243 5.44712 35.5748C5.14771 36.8252 5.19351 38.1335 5.57961 39.36C5.87961 40.46 6.17961 41.76 6.47961 42.96C8.27961 50.36 10.3796 58.66 14.0796 64.56C17.0796 69.26 22.9796 72.66 27.9796 72.66C28.5481 72.6796 29.1173 72.6461 29.6796 72.56C34.1796 71.76 39.5796 69.66 45.8796 61.06C46.8006 61.3402 47.7351 61.5739 48.6796 61.76C49.1751 61.843 49.6775 61.8765 50.1796 61.86C54.6796 61.86 60.2796 58.66 63.0796 54.26C66.8796 48.26 68.9796 39.56 70.8796 31.96L70.9796 31.46C71.2796 30.26 71.5796 29.16 71.7796 28.16C72.068 27.2496 72.1088 26.2788 71.8979 25.3474C71.687 24.4159 71.232 23.5574 70.5796 22.86ZM59.9796 41.36C58.9796 42.26 48.9796 51.06 46.2796 55.06C45.0796 56.96 43.9796 58.66 42.8796 60.06C42.5796 60.46 42.1796 60.86 41.8796 61.26C41.8796 61.2865 41.8691 61.312 41.8503 61.3307C41.8316 61.3495 41.8061 61.36 41.7796 61.36C40.3942 63.098 38.8176 64.6746 37.0796 66.06C36.7796 66.26 36.5796 66.46 36.2796 66.66L36.1796 66.76C35.9367 66.9619 35.6676 67.1301 35.3796 67.26C35.3531 67.26 35.3276 67.2705 35.3089 67.2893C35.2901 67.308 35.2796 67.3335 35.2796 67.36C34.5445 67.8177 33.7756 68.2188 32.9796 68.56C32.9531 68.56 32.9277 68.5705 32.9089 68.5893C32.8901 68.608 32.8796 68.6335 32.8796 68.66C32.6796 68.76 32.4796 68.76 32.2796 68.86C32.0796 68.96 32.0796 68.96 31.9796 68.96C31.8796 68.96 31.6796 69.06 31.4796 69.16C31.2796 69.26 31.1796 69.26 31.0796 69.26C30.9796 69.26 30.7796 69.36 30.6796 69.36C30.5796 69.36 30.3796 69.46 30.1796 69.46C29.9796 69.46 29.9796 69.56 29.8796 69.56C29.5796 69.66 29.2796 69.66 29.0796 69.76C24.9796 70.46 19.2796 67.46 16.5796 63.16C13.0796 57.66 11.0796 49.56 9.37961 42.46C9.07961 41.26 8.77961 39.96 8.47961 38.86C7.97961 37.06 8.27961 35.56 9.27961 34.66C9.93212 34.0593 10.793 33.7365 11.6796 33.76C12.0535 33.7779 12.4233 33.8452 12.7796 33.96C13.3932 34.1841 13.9329 34.5736 14.3388 35.0854C14.7448 35.5973 15.0011 36.2115 15.0796 36.86L17.0796 45.76C17.1555 46.0651 17.319 46.3413 17.55 46.5546C17.781 46.7678 18.0694 46.9087 18.3796 46.96C18.6933 46.9921 19.0089 46.9217 19.2793 46.7595C19.5497 46.5973 19.7603 46.3519 19.8796 46.06L26.6796 29.66L26.9796 28.86L30.2796 20.96L30.9796 19.26L32.2796 16.06C32.9796 14.26 34.1796 13.56 35.4796 14.06C36.0734 14.263 36.5636 14.6914 36.8442 15.2527C37.1249 15.814 37.1735 16.4631 36.9796 17.06L30.4796 35.96L30.1796 36.76L29.8796 37.66C29.7591 38.0198 29.7738 38.4112 29.921 38.761C30.0683 39.1107 30.338 39.3948 30.6796 39.56C31.0134 39.7192 31.3952 39.7458 31.7479 39.6345C32.1005 39.5231 32.3978 39.2821 32.5796 38.96L37.4796 30.46L38.0796 29.46L43.8796 19.46L44.1796 18.96L45.2796 17.16C45.433 16.8084 45.6842 16.5084 46.0034 16.2956C46.3225 16.0829 46.6961 15.9664 47.0796 15.96C47.5175 15.9594 47.9486 16.069 48.333 16.2787C48.7175 16.4884 49.043 16.7915 49.2796 17.16C49.4597 17.5026 49.5454 17.8869 49.5278 18.2736C49.5103 18.6602 49.3901 19.0352 49.1796 19.36L46.1796 24.86L45.5796 25.86L37.2796 41.06C37.1077 41.3901 37.0655 41.7726 37.1615 42.1323C37.2574 42.4919 37.4844 42.8026 37.7979 43.0032C38.1114 43.2039 38.4887 43.2799 38.8554 43.2164C39.2222 43.1529 39.5518 42.9544 39.7796 42.66L51.7796 26.86C52.7796 25.56 53.9796 25.16 55.0796 25.96C55.2913 26.0766 55.4776 26.2343 55.6277 26.4237C55.7777 26.6131 55.8886 26.8305 55.9538 27.0632C56.0189 27.296 56.0371 27.5393 56.0072 27.7791C55.9773 28.0189 55.8999 28.2504 55.7796 28.46L43.1796 47.46C42.9869 47.7506 42.9015 48.0992 42.938 48.446C42.9745 48.7927 43.1306 49.1159 43.3796 49.36C43.667 49.579 44.0183 49.6976 44.3796 49.6976C44.7409 49.6976 45.0922 49.579 45.3796 49.36L57.3796 39.36C58.5796 38.36 59.4796 38.56 60.0796 39.16C60.2277 39.3057 60.3435 39.4809 60.4194 39.6742C60.4953 39.8676 60.5296 40.0748 60.5202 40.2823C60.5108 40.4898 60.4578 40.693 60.3646 40.8787C60.2715 41.0644 60.1403 41.2284 59.9796 41.36Z" fill="#008BAD"/>
</g>
<defs>
<clipPath id="clip0_1_759">
<rect width="71.98" height="72.66" fill="white"/>
</clipPath>
</defs>
</svg>
