<svg width="80" height="74" viewBox="0 0 80 74" fill="none" xmlns="http://www.w3.org/2000/svg">
<g clip-path="url(#clip0_916_4901)">
<path d="M64.0159 33.8253C65.0673 33.8258 66.107 33.607 67.0676 33.1831C68.0282 32.7591 68.8881 32.1395 69.5915 31.3645C70.295 30.5895 70.8262 29.6764 71.1507 28.6845C71.4752 27.6925 71.5857 26.644 71.4751 25.607C72.9384 26.0577 74.6834 25.98 75.9907 25.7998C76.103 25.7838 76.2083 25.7362 76.2942 25.6627C76.38 25.5892 76.4429 25.4928 76.4754 25.385C76.5079 25.2772 76.5085 25.1625 76.4774 25.0543C76.4462 24.9461 76.3845 24.8491 76.2996 24.7745C74.9138 23.485 74.4834 20.9582 74.4834 18.8227C74.4834 15.2747 70.7478 15.4477 70.7478 15.4477C67.8843 15.4477 67.1322 18.5013 67.1114 19.6147C66.0921 19.1561 64.9822 18.9297 63.8631 18.952C62.744 18.9743 61.6442 19.2449 60.6443 19.7438C59.6444 20.2427 58.7698 20.9573 58.0846 21.8352C57.3994 22.7131 56.9211 23.732 56.6847 24.8172C56.4484 25.9023 56.4599 27.0262 56.7185 28.1064C56.9772 29.1865 57.4763 30.1956 58.1794 31.0594C58.8824 31.9233 59.7716 32.6201 60.7815 33.0987C61.7915 33.5773 62.8966 33.8255 64.0159 33.8253ZM60.3852 21.6605C60.8892 23.1787 62.2902 25.3316 66.2186 25.3316C66.2186 25.3316 66.4018 28.9027 68.8436 29.9105C68.335 30.598 67.6832 31.1689 66.9325 31.5844C66.1818 32 65.3497 32.2505 64.4928 32.3189C63.6359 32.3873 62.7741 32.2721 61.966 31.9811C61.158 31.69 60.4225 31.2299 59.8095 30.6321C59.1965 30.0342 58.7204 29.3125 58.4134 28.516C58.1065 27.7195 57.9759 26.8668 58.0305 26.0158C58.0851 25.1648 58.3236 24.3355 58.7299 23.584C59.1362 22.8325 59.7007 22.1765 60.3852 21.6605Z" fill="#008BAD"/>
<path d="M79.8591 65.7468L71.5863 41.2975C71.0952 39.8476 70.2378 38.5466 69.0959 37.5186C67.954 36.4906 66.5657 35.7698 65.0633 35.4251L59.8363 34.2252C58.7386 33.9732 57.7019 33.5083 56.786 32.8573C55.8702 32.2063 55.0932 31.382 54.4998 30.4319L43.9036 13.4629C43.8731 13.8941 43.7698 14.3171 43.5979 14.7144L41.1177 20.3487L49.6121 38.3629C50.8838 41.0579 51.2824 44.0776 50.753 47.0065C50.021 51.064 49.0905 57.2015 49.0905 62.1868C49.0905 68.0116 50.1154 71.5152 50.713 73.0627C50.8232 73.3404 51.0155 73.5786 51.2647 73.7459C51.5139 73.9132 51.8083 74.0017 52.1092 73.9999H71.7167C72.1095 73.9998 72.4866 73.8469 72.7669 73.574C73.0473 73.3011 73.2085 72.9301 73.2161 72.5405L73.3001 68.2862L65.7793 50.034C65.7089 49.8523 65.713 49.6504 65.7909 49.4717C65.8687 49.2929 66.0141 49.1516 66.1957 49.0779C66.3774 49.0042 66.581 49.004 66.7628 49.0774C66.9446 49.1508 67.0901 49.2919 67.1683 49.4705L73.3761 64.5342V64.5199L74.8546 67.714C75.1452 68.3322 75.6628 68.817 76.3018 69.0691C76.9407 69.3212 77.6526 69.3217 78.2919 69.0704C78.9312 68.8191 79.4495 68.335 79.7408 67.7172C80.0321 67.0994 80.0745 66.3945 79.8591 65.7468Z" fill="#008BAD"/>
<path d="M40.2696 18.5547L42.2234 14.1202C42.4618 13.5603 42.4754 12.9312 42.2613 12.3618C42.0472 11.7924 41.6216 11.3257 41.0718 11.0575C40.522 10.7892 39.8896 10.7397 39.3041 10.919C38.7187 11.0983 38.2245 11.4929 37.923 12.022L28.9717 28.2656C26.9467 31.9415 23.3711 34.5008 19.2371 35.3412C15.3463 36.1347 10.6706 38.1449 8.68644 43.1587C5.13809 52.126 1.62093 61.5053 0.143187 65.7938C-0.0689846 66.4138 -0.0413064 67.0899 0.220849 67.6908C0.483005 68.2918 0.960933 68.7746 1.56185 69.0457C2.16276 69.3168 2.84379 69.3567 3.47271 69.1577C4.10163 68.9587 4.63357 68.5351 4.96527 67.969L8.97527 61.587L14.7967 48.0249C14.8803 47.8525 15.0277 47.7187 15.2082 47.6513C15.3887 47.5838 15.5884 47.5879 15.766 47.6626C15.9435 47.7373 16.0852 47.877 16.1617 48.0526C16.2382 48.2282 16.2436 48.4263 16.1768 48.6057L10.761 61.2236V72.5098C10.7604 72.7052 10.7987 72.8988 10.8736 73.0796C10.9485 73.2603 11.0587 73.4246 11.1977 73.563C11.3368 73.7015 11.502 73.8114 11.684 73.8864C11.8659 73.9614 12.061 74 12.258 74.0001H26.8707C27.2635 74.0006 27.6408 73.8477 27.9209 73.5744C28.2011 73.3012 28.3615 72.9296 28.3676 72.5399C28.4476 67.715 28.8085 60.0173 29.0125 55.8789C29.0858 54.1939 29.5458 52.5478 30.3574 51.0658C31.8912 48.3058 32.472 46.2901 31.5431 43.5269C30.3998 40.1256 31.2535 39.0241 31.2535 39.0241L40.2696 18.5547Z" fill="#008BAD"/>
<path d="M5.00928 29.2227C5.3863 29.2183 5.75995 29.1518 6.11499 29.0259C6.11099 29.0925 6.09499 29.1552 6.09499 29.2227C6.09202 29.9106 6.30047 30.5831 6.69256 31.1506C7.08465 31.718 7.64177 32.1535 8.28968 32.399C8.93759 32.6444 9.64554 32.6883 10.3192 32.5246C10.9928 32.3609 11.6002 31.9975 12.0604 31.4828C13.0895 32.5679 14.4236 33.3212 15.8897 33.6451C17.3558 33.9689 18.8861 33.8483 20.2822 33.2988C21.6783 32.7494 22.8757 31.7965 23.7191 30.5638C24.5625 29.3311 25.013 27.8754 25.0121 26.3857C25.0089 25.9972 24.9755 25.6096 24.9121 25.2263C25.4257 25.2161 25.9267 25.0666 26.3607 24.7941C26.7948 24.5216 27.1454 24.1365 27.3744 23.6804C27.6035 23.2243 27.7023 22.7148 27.6602 22.207C27.6181 21.6992 27.4366 21.2125 27.1355 20.7997C27.5059 20.4387 27.7686 19.9831 27.8944 19.4834C28.0203 18.9836 28.0044 18.4591 27.8486 17.9677C27.6928 17.4763 27.4032 17.0372 27.0116 16.6988C26.6201 16.3604 26.1418 16.1359 25.6297 16.0502C25.7557 15.5995 25.7849 15.1275 25.7154 14.6649C25.6459 14.2023 25.4792 13.7594 25.2262 13.3647C24.9732 12.97 24.6394 12.6325 24.2466 12.3738C23.8537 12.1152 23.4104 11.9412 22.9455 11.8633C22.9455 11.8418 22.9519 11.8228 22.9519 11.8014C22.9524 11.1624 22.7326 10.5425 22.3288 10.0446C21.925 9.5467 21.3616 9.20085 20.7322 9.06448C20.1028 8.92812 19.4454 9.00946 18.8691 9.29498C18.2927 9.5805 17.8323 10.053 17.5641 10.634C17.071 10.3888 16.5239 10.2696 15.9726 10.2874C15.4212 10.3051 14.8831 10.4592 14.407 10.7356C14.0912 10.3072 13.6587 9.97714 13.1603 9.78415C12.6619 9.59116 12.1184 9.54327 11.5935 9.64611C11.0686 9.74895 10.5842 9.99824 10.1972 10.3647C9.81026 10.7312 9.53678 11.1996 9.40892 11.7149C8.64095 11.8762 7.95215 12.2943 7.45783 12.8991C6.9635 13.504 6.69365 14.2589 6.69345 15.0376C6.69838 15.3853 6.75776 15.7301 6.86947 16.0597C6.03353 16.1484 5.26003 16.54 4.69721 17.1595C4.1344 17.7789 3.82188 18.5826 3.81956 19.4165C3.82491 19.5599 3.83961 19.7027 3.86357 19.8442C3.15862 20.2089 2.60817 20.8112 2.31141 21.5428C2.01465 22.2744 1.9911 23.087 2.24501 23.8343C1.87124 24.3395 1.64615 24.9376 1.5948 25.5621C1.54344 26.1866 1.66783 26.813 1.95412 27.3715C2.24041 27.9301 2.67736 28.3989 3.21634 28.7257C3.75532 29.0525 4.37516 29.2246 5.00688 29.2227H5.00928ZM17.5113 32.3375C16.7207 32.3373 15.938 32.1818 15.2084 31.8798C14.4788 31.5778 13.8167 31.1354 13.2605 30.5781C13.6703 30.5399 14.0663 30.4116 14.4198 30.2026C14.7734 29.9936 15.0755 29.7091 15.3044 29.3698C15.5332 29.0305 15.683 28.6449 15.7428 28.241C15.8027 27.8371 15.7711 27.4251 15.6503 27.0348C16.1949 26.8401 16.6658 26.4837 16.9989 26.0142C17.3321 25.5446 17.5113 24.9846 17.5121 24.4105C17.5121 24.4033 17.5121 24.397 17.5121 24.3898C17.9163 24.3637 18.31 24.2508 18.6659 24.0591C19.0219 23.8674 19.3317 23.6014 19.574 23.2794C19.8162 22.9574 19.9852 22.5871 20.0691 22.1941C20.1531 21.801 20.1501 21.3946 20.0604 21.0029C20.8367 21.3651 21.5259 21.8879 22.0817 22.5362C22.6376 23.1844 23.0472 23.9431 23.2831 24.7612C23.5401 25.6467 23.5858 26.5793 23.4164 27.4853C23.247 28.3913 22.8672 29.2457 22.3072 29.9808C21.7471 30.716 21.0222 31.3116 20.1897 31.7207C19.3573 32.1297 18.4403 32.3409 17.5113 32.3375Z" fill="#008BAD"/>
<path d="M40.2858 8.58886C40.4828 8.58896 40.6778 8.55057 40.8598 8.47588C41.0418 8.40119 41.2072 8.29166 41.3465 8.15356C41.4858 8.01545 41.5963 7.85147 41.6717 7.67099C41.7471 7.49051 41.7859 7.29706 41.7859 7.1017V1.48795C41.7859 1.09332 41.6279 0.714856 41.3466 0.435811C41.0652 0.156766 40.6837 0 40.2858 0C39.8879 0 39.5064 0.156766 39.225 0.435811C38.9437 0.714856 38.7856 1.09332 38.7856 1.48795V7.1017C38.7855 7.29713 38.8243 7.49066 38.8996 7.67123C38.975 7.85181 39.0855 8.01588 39.2248 8.15407C39.3641 8.29226 39.5295 8.40186 39.7116 8.4766C39.8936 8.55134 40.0888 8.58975 40.2858 8.58965V8.58886Z" fill="#008BAD"/>
<path d="M44.3582 10.5736C44.5553 10.5739 44.7504 10.5356 44.9325 10.4608C45.1146 10.3861 45.2799 10.2763 45.4191 10.138L49.4195 6.1701C49.6906 5.88906 49.8399 5.51394 49.8356 5.12504C49.8312 4.73614 49.6735 4.36439 49.3963 4.08938C49.119 3.81437 48.7442 3.65796 48.3521 3.65366C47.96 3.64935 47.5818 3.79748 47.2985 4.06633L43.2981 8.0342C43.0885 8.24234 42.9458 8.50742 42.8881 8.79596C42.8303 9.0845 42.8601 9.38354 42.9736 9.65529C43.0872 9.92705 43.2794 10.1593 43.526 10.3228C43.7725 10.4862 44.0624 10.5735 44.359 10.5736H44.3582Z" fill="#008BAD"/>
<path d="M34.9298 10.1379C35.2112 10.417 35.5928 10.5738 35.9907 10.5738C36.3886 10.5738 36.7703 10.417 37.0516 10.1379C37.333 9.85883 37.4911 9.48032 37.4911 9.08564C37.4911 8.69096 37.333 8.31244 37.0516 8.03336L33.0512 4.06549C32.7689 3.7913 32.389 3.63863 31.9939 3.64064C31.5988 3.64266 31.2205 3.79919 30.941 4.07624C30.6616 4.35329 30.5037 4.72849 30.5015 5.12037C30.4993 5.51225 30.6531 5.88916 30.9294 6.16925L34.9298 10.1379Z" fill="#008BAD"/>
</g>
<defs>
<clipPath id="clip0_916_4901">
<rect width="80" height="74" fill="white"/>
</clipPath>
</defs>
</svg>
