<svg width="111" height="75" viewBox="0 0 111 75" fill="none" xmlns="http://www.w3.org/2000/svg">
<g clip-path="url(#clip0_917_5018)">
<path d="M64.2202 37.8204C64.0059 36.862 63.4296 36.024 62.6122 35.4822C61.7949 34.9404 60.7999 34.737 59.8361 34.9146L59.2314 35.0272L52.5361 36.2452C52.2991 36.2885 52.0587 36.31 51.8178 36.3095C50.914 36.3099 50.0364 36.0051 49.3268 35.4441L36.6163 25.3935C34.8426 23.9917 32.6497 23.2293 30.391 23.229L24.7423 23.229C22.7538 23.229 20.81 23.82 19.1567 24.9273C17.5033 26.0346 16.2147 27.6084 15.4537 29.4498L0.296058 66.1121C-0.0778052 67.0206 -0.0933947 68.0376 0.252444 68.9572C0.598283 69.8768 1.27973 70.6304 2.15889 71.0655C3.03805 71.5006 4.04928 71.5847 4.98796 71.3008C5.92664 71.0169 6.72268 70.3862 7.21501 69.5363L13.8473 58.0355L15.1243 48.6249C15.162 48.3474 15.3082 48.0963 15.5306 47.9269C15.753 47.7574 16.0334 47.6834 16.3103 47.7212C16.5871 47.759 16.8376 47.9055 17.0066 48.1284C17.1757 48.3514 17.2495 48.6325 17.2118 48.9099L13.9249 73.1351C13.9844 73.6486 14.23 74.1224 14.615 74.4664C15.0001 74.8103 15.4977 75.0006 16.0135 75.001L38.0147 75.001C38.3255 75.0001 38.6323 74.9304 38.9131 74.7969C39.1939 74.6634 39.4418 74.4694 39.6391 74.2287C39.8363 73.9879 39.9781 73.7065 40.0543 73.4045C40.1305 73.1025 40.1392 72.7874 40.0798 72.4816C37.5853 59.4113 38.579 52.3589 38.579 52.3589C40.553 49.1781 41.3995 46.2632 41.7637 44.3432L34.1871 39.4328C34.0661 39.3597 33.9611 39.2629 33.8781 39.1483C33.7952 39.0336 33.7361 38.9034 33.7043 38.7654C33.6726 38.6274 33.6688 38.4845 33.6933 38.345C33.7177 38.2055 33.7699 38.0724 33.8467 37.9535C33.9234 37.8346 34.0233 37.7324 34.1402 37.653C34.2572 37.5735 34.3889 37.5184 34.5275 37.491C34.6661 37.4636 34.8088 37.4643 34.9471 37.4932C35.0854 37.5222 35.2165 37.5786 35.3326 37.6593L42.2819 42.1663L44.8247 43.7438C46.0266 44.4911 47.3724 44.9759 48.774 45.1666C50.1756 45.3572 51.6016 45.2494 52.9588 44.8503L59.8755 42.8142L61.5875 42.3094C62.5134 42.0372 63.3011 41.4216 63.7902 40.5879C64.2793 39.7541 64.433 38.7649 64.2202 37.8216L64.2202 37.8204Z" fill="#008BAD"/>
<path d="M9.88131 29.7283C10.1091 29.9624 10.3878 30.1406 10.6956 30.249C11.0035 30.3574 11.3321 30.393 11.656 30.3531C11.9798 30.3131 12.29 30.1988 12.5625 30.0189C12.835 29.839 13.0623 29.5984 13.2267 29.3159C13.2368 29.299 13.2503 29.2877 13.2604 29.2708C15.2456 25.7847 17.6445 23.1176 20.4019 22.3222C20.9361 22.1729 21.4203 21.8821 21.8037 21.4805C22.1664 21.1047 22.4299 20.6443 22.5704 20.1408L22.5704 20.1205C23.9025 20.7476 25.3515 21.0862 26.8229 21.1143L27.2433 21.1143C28.3054 21.0943 29.3583 20.9131 30.3661 20.5768C30.5522 20.7931 30.767 20.9826 31.0046 21.1402C31.5667 21.5244 32.466 21.9706 33.9375 22.4044C35.754 22.9374 37.4346 24.196 38.3935 24.9159C38.607 25.0768 38.8504 25.1934 39.1095 25.2588C39.3685 25.3242 39.6379 25.3371 39.902 25.2968C40.9688 25.1503 41.885 24.196 41.7242 22.9441C41.6628 22.4927 41.5581 22.0482 41.4117 21.6168C41.344 21.4096 41.339 21.1869 41.3971 20.9768C41.6219 20.1701 41.9592 17.903 39.5524 15.8343C39.43 15.734 39.3317 15.6074 39.2648 15.4639C39.1978 15.3203 39.164 15.1635 39.1657 15.005C39.2253 13.2597 39.0781 7.29579 34.7277 3.36005C33.3973 1.92212 31.6922 0.88577 29.8051 0.368088C27.918 -0.149595 25.9241 -0.127979 24.0486 0.430491L24.0486 0.423731C19.1767 1.62034 13.3908 5.10426 13.0637 10.4068C13.0534 10.5608 13.0104 10.7109 12.9375 10.847C12.8646 10.983 12.7635 11.1018 12.641 11.1955C10.3928 12.9341 10.3422 15.2878 10.4378 16.2861C10.4478 16.446 10.4229 16.6061 10.3646 16.7552C10.3064 16.9043 10.2162 17.0388 10.1005 17.1492C7.81968 19.4715 8.89209 21.841 9.55757 22.8641C9.66456 23.0321 9.72216 23.2269 9.72375 23.4262C9.72534 23.6255 9.67086 23.8212 9.56656 23.9909C7.98155 26.7007 8.75158 28.5576 9.88019 29.7238L9.88131 29.7283ZM27.0331 19.014C25.6293 19.0164 24.2473 18.665 23.0144 17.9921C23.573 17.7359 24.061 17.3471 24.4358 16.8593C24.8107 16.3715 25.0613 15.7994 25.1658 15.1926C25.2704 14.5858 25.2257 13.9626 25.0357 13.3771C24.8457 12.7915 24.5162 12.2612 24.0756 11.8321C27.5468 10.3245 28.7969 7.80959 29.1858 5.69918C30.1975 6.04848 31.8747 6.4327 34.4433 6.54425C35.1378 7.83174 35.4867 9.27795 35.456 10.7412C35.4253 12.2045 35.0159 13.6347 34.268 14.8918C33.5201 16.1488 32.4593 17.1896 31.1894 17.9123C29.9196 18.6349 28.4843 19.0145 27.0241 19.014L27.0331 19.014Z" fill="#008BAD"/>
<path d="M81.9535 12.3762C82.2412 12.3762 82.5155 12.3638 82.7909 12.3525C79.7558 13.592 80.2909 15.7046 80.2909 15.7046C81.0081 17.9581 83.8881 17.3734 83.8881 17.3734C84.6049 17.2292 85.313 17.0448 86.0093 16.8212C87.4748 18.8284 89.6027 20.25 92.0149 20.8334C94.4272 21.4168 96.9676 21.1242 99.1851 20.0077C101.398 21.9232 104.645 21.6978 104.645 21.6978C104.645 21.6978 107.446 21.7294 108.242 19.6922C109.038 17.655 106.456 16.2365 106.456 16.2365C106.456 16.2365 109.041 14.2613 109.041 13.2427C109.041 12.2241 108.179 11.0207 106.548 11.0207C104.917 11.0207 104.981 9.4782 104.981 9.4782L104.964 9.48834C104.921 9.08337 104.855 8.6812 104.766 8.28384C108.567 8.17116 108.381 5.96724 108.381 5.96724C108.381 5.96724 108.511 3.34303 104.568 2.59825C101.445 2.00783 99.4661 1.21347 98.7781 0.908122C98.7579 0.899108 98.7545 0.908121 98.7377 0.900233C96.2231 -0.218499 93.3711 -0.304599 90.7939 0.66041C88.2167 1.62542 86.1196 3.56463 84.9526 6.06188C83.996 6.6295 82.9486 7.02674 81.8568 7.23596C78.6306 7.86131 78.7486 10.0416 78.7486 10.0416C78.988 12.2072 81.9501 12.3762 81.9501 12.3762L81.9535 12.3762ZM86.1655 11.9041C90.8868 10.7526 93.0631 7.6923 94.0636 5.07034C94.7167 7.87934 96.5243 13.2832 101.001 15.9131C99.9735 17.1747 98.6043 18.1115 97.058 18.6106C95.5117 19.1097 93.8544 19.1498 92.2859 18.726C90.7174 18.3022 89.3046 17.4327 88.2181 16.2223C87.1315 15.0118 86.4175 13.5121 86.1622 11.9041L86.1655 11.9041Z" fill="#008BAD"/>
<path d="M110.83 34.9563L110.778 35.0183L110.803 34.6115C110.895 33.1704 110.691 31.7256 110.205 30.3664C109.718 29.0073 108.958 27.7626 107.972 26.7093C106.987 25.6561 105.796 24.8166 104.474 24.2428C103.152 23.6691 101.726 23.3731 100.286 23.3733L92.0424 23.3733C89.5277 23.3723 87.0956 24.2727 85.1853 25.9119L72.2568 37.0092C71.9851 37.2425 71.6586 37.4025 71.3082 37.4742C70.9577 37.546 70.5948 37.5271 70.2536 37.4194L65.7785 36.0098C66.1595 36.7457 66.3794 37.5546 66.4235 38.3825C66.4675 39.2104 66.3346 40.0382 66.0338 40.8105C65.7329 41.5828 65.271 42.2818 64.679 42.8607C64.0869 43.4396 63.3783 43.8852 62.6006 44.1675L68.5258 46.3602C70.0637 46.9291 71.7128 47.1307 73.3421 46.9487C74.9713 46.7668 76.5358 46.2065 77.9111 45.3123L81.0867 43.2481C80.9482 41.2452 81.1323 39.2329 81.6319 37.2887C81.7151 37.0252 81.8979 36.8049 82.1412 36.6749C82.3845 36.5449 82.6689 36.5156 82.9335 36.5932C83.1981 36.6709 83.4218 36.8493 83.5567 37.0903C83.6917 37.3313 83.7271 37.6157 83.6553 37.8825C83.6374 37.9445 81.8905 44.1484 85.0627 49.15C85.1456 49.2832 85.1972 49.4336 85.2136 49.5898C85.2299 49.746 85.2106 49.9038 85.1572 50.0514C85.1589 50.1967 85.1162 50.3391 85.0346 50.4593C83.7902 52.2846 79.5264 59.8023 82.7943 73.356C82.9024 73.8224 83.1643 74.2387 83.5375 74.5376C83.9108 74.8365 84.3737 75.0006 84.8514 75.0033L106.297 75.0033C106.719 75.0026 107.13 74.8746 107.478 74.636C106.404 74.485 105.409 73.984 104.647 73.2102C103.886 72.4363 103.399 71.4328 103.263 70.3544L100.309 46.3399C100.281 46.1292 100.318 45.915 100.414 45.7257C100.511 45.5364 100.662 45.3809 100.849 45.28C101.035 45.179 101.248 45.1373 101.459 45.1604C101.67 45.1834 101.869 45.2702 102.029 45.4092C102.235 45.5782 102.368 45.8203 102.401 46.0852L105.355 70.0952C105.44 70.7825 105.773 71.4149 106.29 71.8738C106.808 72.3327 107.475 72.5865 108.166 72.5876C108.254 72.5876 108.341 72.5695 108.429 72.5617C109.133 72.501 109.79 72.1761 110.266 71.6518C110.742 71.1276 111.004 70.4426 110.998 69.7335L110.83 34.9563Z" fill="#008BAD"/>
<path d="M62.8646 29.5773C63.4236 29.5773 63.9597 29.3547 64.3549 28.9585C64.7502 28.5623 64.9723 28.025 64.9723 27.4647L64.9723 20.0709C64.9723 19.5106 64.7502 18.9732 64.3549 18.577C63.9597 18.1808 63.4236 17.9583 62.8646 17.9583C62.3056 17.9583 61.7694 18.1808 61.3742 18.577C60.9789 18.9732 60.7568 19.5106 60.7568 20.0709L60.7568 27.4647C60.7568 28.025 60.9789 28.5623 61.3742 28.9585C61.7694 29.3547 62.3056 29.5773 62.8646 29.5773Z" fill="#008BAD"/>
<path d="M62.8646 51.5635C62.3056 51.5635 61.7694 51.7861 61.3742 52.1823C60.9789 52.5785 60.7568 53.1158 60.7568 53.6761L60.7568 61.071C60.7568 61.6313 60.9789 62.1687 61.3742 62.5649C61.7694 62.9611 62.3056 63.1837 62.8646 63.1837C63.4236 63.1837 63.9597 62.9611 64.3549 62.5649C64.7502 62.1687 64.9723 61.6313 64.9723 61.071L64.9723 53.6761C64.9723 53.1158 64.7502 52.5785 64.3549 52.1823C63.9597 51.7861 63.4236 51.5635 62.8646 51.5635Z" fill="#008BAD"/>
<path d="M68.7016 32.3232C68.9784 32.3237 69.2527 32.2692 69.5085 32.1631C69.7643 32.0569 69.9966 31.9011 70.1922 31.7047L75.8128 26.0709C76.1936 25.6719 76.4034 25.1392 76.3973 24.5871C76.3912 24.0349 76.1697 23.5071 75.7801 23.1166C75.3906 22.7261 74.864 22.504 74.3131 22.4979C73.7622 22.4918 73.2308 22.7021 72.8327 23.0839L67.2121 28.7176C66.9177 29.0132 66.7172 29.3895 66.636 29.7992C66.5549 30.2089 66.5967 30.6335 66.7563 31.0193C66.9158 31.4052 67.1858 31.735 67.5323 31.9671C67.8787 32.1992 68.286 32.3231 68.7027 32.3232L68.7016 32.3232Z" fill="#008BAD"/>
<path d="M55.4553 31.7034C55.8506 32.0997 56.3868 32.3223 56.9458 32.3223C57.5049 32.3223 58.0411 32.0997 58.4364 31.7034C58.8318 31.3072 59.0538 30.7697 59.0538 30.2093C59.0538 29.649 58.8318 29.1115 58.4364 28.7153L52.8158 23.0815C52.4192 22.6922 51.8854 22.4754 51.3303 22.4783C50.7752 22.4812 50.2436 22.7034 49.851 23.0968C49.4584 23.4901 49.2365 24.0229 49.2334 24.5793C49.2304 25.1357 49.4464 25.6708 49.8347 26.0685L55.4553 31.7034Z" fill="#008BAD"/>
<path d="M55.4553 49.424L49.8347 55.0577C49.4464 55.4554 49.2304 55.9906 49.2334 56.547C49.2365 57.1034 49.4584 57.6361 49.851 58.0295C50.2436 58.4228 50.7752 58.6451 51.3303 58.6479C51.8854 58.6508 52.4192 58.434 52.8158 58.0447L58.4364 52.411C58.8318 52.0147 59.0538 51.4773 59.0538 50.9169C59.0538 50.3565 58.8318 49.8191 58.4364 49.4228C58.0411 49.0266 57.5049 48.804 56.9458 48.804C56.3868 48.804 55.8506 49.0266 55.4553 49.4228L55.4553 49.424Z" fill="#008BAD"/>
<path d="M70.1923 49.4238C69.797 49.0275 69.2608 48.8049 68.7017 48.8049C68.1427 48.8049 67.6065 49.0275 67.2112 49.4238C66.8158 49.8201 66.5938 50.3575 66.5938 50.9179C66.5938 51.4783 66.8158 52.0157 67.2112 52.4119L72.8318 58.0457C73.0267 58.2453 73.2591 58.4043 73.5157 58.5133C73.7723 58.6223 74.0479 58.6792 74.3266 58.6807C74.6053 58.6823 74.8815 58.6284 75.1392 58.5222C75.397 58.4161 75.6312 58.2598 75.8283 58.0623C76.0254 57.8648 76.1815 57.6301 76.2875 57.3718C76.3935 57.1134 76.4473 56.8366 76.4459 56.5573C76.4445 56.2779 76.3878 56.0017 76.2791 55.7444C76.1705 55.4872 76.012 55.2541 75.8129 55.0587L70.1923 49.4238Z" fill="#008BAD"/>
</g>
<defs>
<clipPath id="clip0_917_5018">
<rect width="111" height="75" fill="white"/>
</clipPath>
</defs>
</svg>
