<svg width="90" height="74" viewBox="0 0 90 74" fill="none" xmlns="http://www.w3.org/2000/svg">
<g clip-path="url(#clip0_917_4953)">
<path d="M89.9946 26.4368L73.4407 43.0104L72.9681 43.2217L52.002 52.6484L61.6375 31.1886L65.7986 27.0216L79.6667 13.1416C80.0557 13.5012 80.4446 13.8713 80.8265 14.2501L66.974 28.1144L72.7187 27.6361L70.3242 33.7146L69.9336 34.7097L70.6538 34.4234L76.995 31.92L76.5171 37.6704L89.1889 24.9879C89.4714 25.4645 89.7417 25.948 90.0051 26.4368H89.9946ZM74.7557 39.4248L75.176 34.3623L71.2573 35.909L67.0822 37.5586L69.3267 31.8572L70.2876 29.4481L67.9175 29.6437L65.2213 29.8689L62.9768 32.1121L58.9744 41.0308L63.6116 45.6709L72.5199 41.6558L72.7431 41.4323L74.7557 39.4248Z" fill="#008BAD"/>
<path d="M73.0991 45.7389V45.9134C73.0991 53.361 70.1435 60.5036 64.8824 65.7699C59.6213 71.0361 52.4857 73.9947 45.0454 73.9947C37.6051 73.9947 30.4695 71.0361 25.2084 65.7699C19.9474 60.5036 16.9917 53.361 16.9917 45.9134V45.8506L42.5009 57.3163L30.1605 29.8216L25.8163 25.4783C28.2683 23.165 31.1163 21.3124 34.224 20.0091V29.1443L44.9181 57.3198L55.614 29.1443V19.8921C58.7646 21.1774 61.6559 23.0246 64.1473 25.3439L59.6722 29.8234L47.3318 57.3181L73.0991 45.7389Z" fill="#008BAD"/>
<path d="M53.268 0.233922V28.7202L44.9126 50.7159L36.5659 28.7202V0.277565C37.0891 0.188534 37.6297 0.102996 38.1704 0.0366594V22.7726L41.892 18.3665L44.9126 25.3353L47.9419 18.3665L51.6653 22.7743V0C52.2042 0.0698278 52.7361 0.148384 53.2698 0.235669L53.268 0.233922ZM51.6618 28.4251V25.2532L48.3797 21.3708L44.9126 29.3591L41.4456 21.3708L38.1686 25.2532V28.4251L41.6357 37.5604H48.193L51.6618 28.4251Z" fill="#008BAD"/>
<path d="M28.1899 31.1868L37.8219 52.6431L17.1069 43.3316L16.3849 43.0104L0.00537109 26.6061C0.265225 26.119 0.528566 25.6302 0.814579 25.1502L13.3242 37.6686L12.8428 31.9182L19.4054 34.5106L19.906 34.7079L19.6356 34.0096L17.1138 27.636L22.869 28.1144L9.14036 14.3723C9.51822 13.9987 9.90248 13.628 10.2931 13.2603L24.177 27.1577L28.1899 31.1868ZM30.8495 41.0308L26.8627 32.112L24.6234 29.8705L22.154 29.668L19.5467 29.4498L20.5931 32.1207L22.7382 37.5551L18.7846 35.9962L14.6548 34.357L15.0751 39.4195L17.3127 41.661L26.2244 45.6673L30.8495 41.0308Z" fill="#008BAD"/>
</g>
<defs>
<clipPath id="clip0_917_4953">
<rect width="90" height="74" fill="white"/>
</clipPath>
</defs>
</svg>
