<svg width="105" height="113" viewBox="0 0 105 113" fill="none" xmlns="http://www.w3.org/2000/svg">
<path d="M52.5986 113C37.8563 113.028 23.6801 107.384 13.0647 97.2587C12.996 97.1933 12.9409 97.1152 12.9027 97.0287C12.8645 96.9423 12.8438 96.8493 12.8419 96.7549C12.84 96.6606 12.8569 96.5668 12.8917 96.479C12.9264 96.3911 12.9782 96.3109 13.0443 96.2429C13.1103 96.1748 13.1893 96.1203 13.2766 96.0825C13.3639 96.0447 13.4579 96.0242 13.5532 96.0224C13.6485 96.0205 13.7433 96.0372 13.8321 96.0716C13.9208 96.1059 14.0019 96.1573 14.0706 96.2226C21.3355 103.116 30.3511 107.934 40.16 110.164C49.969 112.394 60.205 111.953 69.7811 108.888C69.8717 108.859 69.9673 108.848 70.0623 108.855C70.1573 108.862 70.2499 108.888 70.3348 108.931C70.4197 108.974 70.4953 109.033 70.5571 109.105C70.619 109.177 70.666 109.26 70.6954 109.349C70.7248 109.439 70.7361 109.534 70.7286 109.628C70.7211 109.722 70.6949 109.813 70.6516 109.897C70.6083 109.981 70.5487 110.056 70.4762 110.117C70.4037 110.179 70.3197 110.225 70.2291 110.254C64.5342 112.079 58.5846 113.006 52.5986 113Z" fill="#88CADB"/>
<path d="M88.0332 13.8393C87.867 13.839 87.7059 13.7824 87.5768 13.6789C80.9609 8.39296 73.2109 4.67486 64.92 2.80907C56.629 0.943282 48.0166 0.979248 39.7419 2.91422C39.5603 2.94429 39.374 2.90498 39.2207 2.80422C39.0674 2.70347 38.9585 2.54881 38.916 2.37157C38.8736 2.19432 38.9008 2.00774 38.9921 1.8496C39.0835 1.69146 39.2321 1.57358 39.408 1.51983C47.8971 -0.48023 56.7368 -0.524761 65.2461 1.38967C73.7553 3.30409 81.707 7.12637 88.4883 12.562C88.6054 12.6554 88.6903 12.7824 88.7312 12.9256C88.7721 13.0688 88.7671 13.221 88.7168 13.3613C88.6666 13.5015 88.5735 13.6228 88.4505 13.7085C88.3276 13.7941 88.1808 13.8398 88.0304 13.8393H88.0332Z" fill="#88CADB"/>
<path d="M52.5991 108.128C40.5632 108.122 28.8994 103.999 19.5839 96.4556C10.2684 88.9126 3.87401 78.4142 1.48425 66.7391C-0.905503 55.064 0.856292 42.9302 6.47113 32.3936C12.086 21.8569 21.2086 13.5655 32.2932 8.92403C45.0413 3.59406 59.4065 3.49455 72.2288 8.64739C85.051 13.8002 95.2798 23.7833 100.665 36.4005C106.05 49.0177 106.151 63.2354 100.945 75.9259C95.7383 88.6165 85.6516 98.7403 72.9035 104.07C66.4802 106.761 59.5742 108.141 52.5991 108.128ZM52.5991 6.30815C40.8955 6.30785 29.552 10.3135 20.4918 17.6461C11.4316 24.9786 5.2124 35.1866 2.88866 46.5394C0.564927 57.8922 2.27966 69.691 7.74214 79.9354C13.2046 90.1797 22.0786 98.2391 32.8596 102.747C45.2523 107.928 59.2171 108.025 71.6818 103.016C84.1466 98.0064 94.0902 88.3015 99.3252 76.036C104.56 63.7706 104.658 49.9492 99.5967 37.6124C94.5355 25.2757 84.7299 15.4342 72.3372 10.2529C66.093 7.63692 59.3796 6.29522 52.5991 6.30815Z" fill="#88CADB"/>
<path d="M48.8673 60.4663L26.5355 31.4727C26.4229 31.3279 26.3675 31.1475 26.3796 30.9652C26.3916 30.783 26.4704 30.6113 26.6011 30.4822C26.7317 30.3532 26.9054 30.2758 27.0896 30.2643C27.2739 30.2528 27.456 30.3082 27.602 30.42L56.895 52.521L48.8673 60.4663Z" fill="#88CADB"/>
<path d="M78.5252 82.6148C78.3566 82.6152 78.1926 82.5603 78.0588 82.4587L48.7969 60.3771L56.8274 52.4291L79.1408 81.3906C79.2278 81.5035 79.2811 81.6382 79.2948 81.7796C79.3085 81.9209 79.2819 82.0632 79.2182 82.1904C79.1545 82.3176 79.056 82.4246 78.9341 82.4994C78.8121 82.5741 78.6714 82.6136 78.528 82.6134L78.5252 82.6148ZM50.9975 60.2293L74.9129 78.2783L56.6766 54.6085L50.9975 60.2293Z" fill="#88CADB"/>
<path d="M52.599 16.978C52.4065 16.978 52.2218 16.9024 52.0855 16.7678C51.9492 16.6332 51.8724 16.4505 51.8721 16.2599V5.59006C51.8803 5.4049 51.9604 5.23002 52.0957 5.10188C52.231 4.97374 52.4111 4.90222 52.5983 4.90222C52.7856 4.90222 52.9656 4.97374 53.1009 5.10188C53.2362 5.23002 53.3164 5.4049 53.3246 5.59006V16.2599C53.3242 16.4503 53.2477 16.6327 53.1117 16.7673C52.9757 16.9019 52.7914 16.9777 52.599 16.978Z" fill="#88CADB"/>
<path d="M52.599 108.128C52.5036 108.128 52.4091 108.11 52.3209 108.074C52.2328 108.038 52.1526 107.985 52.0851 107.918C52.0176 107.851 51.964 107.772 51.9274 107.685C51.8909 107.598 51.8721 107.504 51.8721 107.41V96.7398C51.8803 96.5547 51.9604 96.3798 52.0957 96.2517C52.231 96.1235 52.4111 96.052 52.5983 96.052C52.7856 96.052 52.9656 96.1235 53.1009 96.2517C53.2362 96.3798 53.3164 96.5547 53.3246 96.7398V107.41C53.3246 107.504 53.3058 107.597 53.2694 107.685C53.2329 107.772 53.1795 107.851 53.1121 107.918C53.0447 107.984 52.9647 108.037 52.8767 108.073C52.7887 108.109 52.6943 108.128 52.599 108.128Z" fill="#88CADB"/>
<path d="M103.588 53.744H92.8092C92.6221 53.7358 92.4455 53.6565 92.316 53.5226C92.1865 53.3887 92.1143 53.2105 92.1143 53.0252C92.1143 52.8398 92.1865 52.6616 92.316 52.5277C92.4455 52.3938 92.6221 52.3145 92.8092 52.3064H103.588C103.686 52.3021 103.784 52.3175 103.876 52.3517C103.968 52.3859 104.052 52.4382 104.123 52.5053C104.194 52.5725 104.25 52.6532 104.289 52.7425C104.327 52.8319 104.347 52.928 104.347 53.0252C104.347 53.1223 104.327 53.2185 104.289 53.3078C104.25 53.3972 104.194 53.4778 104.123 53.545C104.052 53.6122 103.968 53.6644 103.876 53.6986C103.784 53.7328 103.686 53.7482 103.588 53.744Z" fill="#88CADB"/>
<path d="M12.2763 53.744H1.49576C1.30867 53.7359 1.13199 53.6566 1.00252 53.5227C0.873046 53.3887 0.800781 53.2105 0.800781 53.0252C0.800781 52.8399 0.873046 52.6617 1.00252 52.5278C1.13199 52.3938 1.30867 52.3146 1.49576 52.3064H12.2763C12.4634 52.3146 12.6401 52.3938 12.7696 52.5278C12.899 52.6617 12.9713 52.8399 12.9713 53.0252C12.9713 53.2105 12.899 53.3887 12.7696 53.5227C12.6401 53.6566 12.4634 53.7359 12.2763 53.744Z" fill="#88CADB"/>
</svg>
