<svg width="22" height="17" viewBox="0 0 22 17" fill="none" xmlns="http://www.w3.org/2000/svg">
<g clip-path="url(#clip0_1_693)">
<path d="M1.84369 5.27002L4.48017 12.3539H17.535L20.214 5.27002C20.5719 5.22614 20.9126 5.07982 21.2008 4.84613C21.4891 4.61245 21.7145 4.29985 21.8539 3.94054C21.9933 3.58124 22.0417 3.18823 21.9939 2.802C21.9462 2.41577 21.8041 2.05029 21.5823 1.74322C21.3606 1.43615 21.0671 1.1986 20.7322 1.05504C20.3973 0.911484 20.0331 0.867108 19.6771 0.926488C19.3211 0.985867 18.9861 1.14686 18.7068 1.39286C18.4274 1.63887 18.2138 1.96101 18.0878 2.32607C17.7901 3.24524 18.0453 4.16522 18.6831 4.71803C17.9177 5.86801 16.727 6.55718 15.4513 6.55718C13.9205 6.55718 12.5597 5.5912 11.8823 4.11922C12.2154 3.94144 12.4955 3.66611 12.691 3.32455C12.8865 2.983 12.9894 2.58895 12.988 2.18725C12.988 0.807276 11.7548 -0.295884 10.394 0.0712881C9.99383 0.19583 9.63935 0.45189 9.37966 0.804011C9.11996 1.15613 8.96791 1.58689 8.94455 2.03663C8.92119 2.48637 9.02769 2.93284 9.24929 3.31421C9.47089 3.69558 9.79663 3.99298 10.1814 4.16522C9.84801 4.8683 9.34257 5.45888 8.72019 5.87256C8.09782 6.28624 7.38239 6.50714 6.65192 6.51118C5.33368 6.51118 4.14605 5.82119 3.37759 4.62193C3.59171 4.42241 3.76359 4.17533 3.88152 3.89752C3.99945 3.6197 4.06067 3.31766 4.06101 3.01195C4.06387 2.68351 3.99735 2.35869 3.86653 2.06228C3.73571 1.76587 3.54404 1.50569 3.30613 1.30159C3.06823 1.09748 2.79038 0.954846 2.49377 0.884555C2.19716 0.814263 1.88962 0.818174 1.59462 0.895989C1.22488 0.982275 0.884885 1.17893 0.613224 1.46365C0.341563 1.74837 0.149108 2.10974 0.0576922 2.50678C-0.239975 3.97958 0.653026 5.17556 1.84369 5.26756V5.27002Z" fill="#A7606F"/>
<path d="M4.4375 16.4941C4.43849 16.6279 4.48809 16.756 4.5756 16.8507C4.66311 16.9453 4.78151 16.999 4.90526 17H16.9851C17.1088 16.999 17.2272 16.9453 17.3147 16.8507C17.4022 16.756 17.4518 16.6279 17.4528 16.4941V14.1941H4.4375V16.4941Z" fill="#A7606F"/>
</g>
<defs>
<clipPath id="clip0_1_693">
<rect width="22" height="17" fill="white"/>
</clipPath>
</defs>
</svg>
