<svg width="12" height="16" viewBox="0 0 12 16" fill="none" xmlns="http://www.w3.org/2000/svg">
<path fill-rule="evenodd" clip-rule="evenodd" d="M1.37857 3.87494H10.6214C11.2857 3.87494 11.8214 4.4349 11.8214 5.12926C11.8214 5.18899 11.8143 5.24125 11.8071 5.30098L10.5357 14.9174C10.4571 15.5371 9.95 16 9.35 16H2.64286C2.04286 16 1.53571 15.5371 1.45714 14.9174L0.185714 5.30098C0.1 4.61409 0.557143 3.97947 1.21429 3.88241C1.26429 3.87494 1.32143 3.87494 1.37857 3.87494ZM6 5.54736C5.55714 5.54736 5.2 5.92067 5.2 6.38357V13.4914C5.2 13.9543 5.55714 14.3276 6 14.3276C6.44286 14.3276 6.8 13.9543 6.8 13.4914V6.38357C6.8 5.92067 6.44286 5.54736 6 5.54736ZM9.56429 5.5623C9.12143 5.52496 8.73571 5.86094 8.7 6.32384L8.10714 13.4018C8.07143 13.8647 8.39286 14.2678 8.83571 14.3052C9.27857 14.3425 9.66429 14.0065 9.7 13.5436L10.2929 6.4657C10.3286 6.01027 10.0071 5.59963 9.56429 5.5623ZM2.43571 5.5623C1.99286 5.59963 1.67143 6.01027 1.70714 6.4657L2.3 13.5436C2.33571 14.0065 2.72857 14.3425 3.16429 14.3052C3.60714 14.2678 3.92857 13.8572 3.89286 13.4018L3.3 6.32384C3.26429 5.86094 2.87143 5.52496 2.43571 5.5623ZM4.8 1.67242V1.25432C4.8 0.559963 5.33571 0 6 0H6.4C7.06429 0 7.6 0.559963 7.6 1.25432V1.67242H11.4C11.7286 1.67242 12 1.95614 12 2.29958C12 2.64302 11.7286 2.92674 11.4 2.92674H0.6C0.271429 2.92674 0 2.64302 0 2.29958C0 1.95614 0.271429 1.67242 0.6 1.67242H4.8Z" fill="#5E5E5E"/>
</svg>
