<svg width="95" height="70" viewBox="0 0 95 70" fill="none" xmlns="http://www.w3.org/2000/svg">
<g clip-path="url(#clip0_1_831)">
<path d="M77.8636 25.9454C78.0626 25.8714 78.2345 25.7392 78.3566 25.5661C78.4788 25.3931 78.5455 25.1873 78.548 24.9758V14.9383L90.6566 12.6583C90.8941 12.6067 91.1079 12.4786 91.265 12.2938C91.422 12.1091 91.5135 11.8779 91.5252 11.6362C91.5326 11.3913 91.4558 11.1512 91.3074 10.9558C91.1589 10.7604 90.9479 10.6213 90.7092 10.5617L45.96 0.0787101C45.7943 0.0527021 45.6255 0.0527021 45.4599 0.0787101L0.710615 10.5617C0.47428 10.6255 0.265921 10.7657 0.118233 10.9601C-0.0294552 11.1546 -0.108114 11.3924 -0.105401 11.6362C-0.0987269 11.9052 0.0115748 12.1613 0.202672 12.3516C0.393769 12.5418 0.651029 12.6516 0.921199 12.6583L13.0298 14.9383V24.9758C13.0302 25.1842 13.0931 25.3878 13.2103 25.5605C13.3275 25.7332 13.4938 25.8673 13.6879 25.9454C14.8724 26.4172 16.0833 26.8627 17.3731 27.2558C13.102 32.2207 10.8488 38.5955 11.0556 45.1293C11.0556 61.6923 22.743 70.1049 45.7494 70.1049C68.7558 70.1049 80.4695 61.5875 80.4695 45.1293C80.6719 38.6416 78.4488 32.31 74.231 27.3606C75.4945 26.7841 76.7053 26.4172 77.8636 25.9454ZM78.3374 45.1293C78.3374 60.4868 67.6765 67.9559 45.7494 67.9559C23.8223 67.9559 13.1878 60.382 13.1878 45.1293C12.9738 38.8166 15.2727 32.6754 19.5843 28.042C28.0933 30.2831 36.8695 31.3587 45.6704 31.2393C54.5551 31.3412 63.4119 30.2301 71.9935 27.9372C76.3046 32.6095 78.585 38.7895 78.3374 45.1293Z" fill="#008BAD"/>
<path d="M46.3818 52.5459C46.2055 52.4078 45.9876 52.3326 45.7632 52.3326C45.5388 52.3326 45.3209 52.4078 45.1446 52.5459L40.1695 56.1101C40.0479 56.1887 39.9449 56.2927 39.8676 56.4149C39.7903 56.5371 39.7407 56.6745 39.7221 56.8177C39.6975 56.9544 39.7012 57.0945 39.7329 57.2297C39.7646 57.3649 39.8236 57.4922 39.9063 57.6039L44.9077 64.3392C45.0042 64.4811 45.1334 64.598 45.2845 64.6801C45.4356 64.7621 45.6043 64.807 45.7764 64.811C45.9476 64.803 46.1147 64.7563 46.2652 64.6746C46.4157 64.5929 46.5456 64.4782 46.645 64.3392L51.6201 57.6039C51.7839 57.3761 51.8588 57.0966 51.8307 56.8177C51.8074 56.676 51.7558 56.5403 51.6789 56.4188C51.602 56.2973 51.5015 56.1923 51.3832 56.1101L46.3818 52.5459Z" fill="#008BAD"/>
<path d="M62.9115 32.5759C59.8779 32.5765 56.9541 33.7058 54.7138 35.7423C52.4736 37.7788 51.0787 40.5753 50.8029 43.583H40.6948C40.4235 40.4884 38.9627 37.6174 36.6172 35.5688C34.2716 33.5202 31.2223 32.4522 28.1051 32.5874C24.9879 32.7226 22.0434 34.0506 19.8856 36.2944C17.7279 38.5383 16.5234 41.5249 16.5234 44.6313C16.5234 47.7378 17.7279 50.7244 19.8856 52.9683C22.0434 55.2121 24.9879 56.5401 28.1051 56.6753C31.2223 56.8105 34.2716 55.7425 36.6172 53.6939C38.9627 51.6453 40.4235 48.7743 40.6948 45.6796H50.9345C51.1387 48.0085 52.0186 50.228 53.467 52.0679C54.9154 53.9078 56.8699 55.2888 59.0925 56.0427C61.3151 56.7965 63.7099 56.8907 65.9853 56.3138C68.2607 55.7369 70.3186 54.5138 71.9083 52.7935C73.4981 51.0731 74.5511 48.9296 74.9393 46.624C75.3274 44.3185 75.0339 41.9503 74.0944 39.8079C73.155 37.6654 71.6101 35.8412 69.648 34.5571C67.6859 33.2731 65.3911 32.5848 63.0431 32.5759H62.9115ZM28.6915 54.5902C26.7109 54.5953 24.7733 54.015 23.1244 52.9227C21.4754 51.8304 20.1892 50.2753 19.4289 48.4545C18.6685 46.6337 18.4682 44.6292 18.8533 42.6949C19.2385 40.7607 20.1917 38.9838 21.5922 37.5894C22.9927 36.1951 24.7774 35.2461 26.7202 34.8626C28.663 34.4792 30.6764 34.6786 32.5052 35.4356C34.3341 36.1927 35.896 37.4732 36.9931 39.1149C38.0902 40.7566 38.6731 42.6857 38.6679 44.6576C38.6645 45.9654 38.4023 47.2597 37.8965 48.4666C37.3906 49.6736 36.6509 50.7695 35.7196 51.6918C34.7883 52.6142 33.6837 53.3448 32.4687 53.8421C31.2538 54.3394 29.9524 54.5936 28.6388 54.5902H28.6915ZM62.9115 54.5902C60.9309 54.5953 58.9933 54.015 57.3444 52.9227C55.6954 51.8304 54.4092 50.2753 53.6489 48.4545C52.8885 46.6337 52.6882 44.6292 53.0733 42.6949C53.4585 40.7607 54.4117 38.9838 55.8122 37.5894C57.2127 36.1951 58.9974 35.2461 60.9402 34.8626C62.883 34.4792 64.8964 34.6786 66.7252 35.4356C68.5541 36.1927 70.116 37.4732 71.2131 39.1149C72.3103 40.7566 72.8931 42.6857 72.8879 44.6576C72.881 47.2897 71.8277 49.8121 69.9582 51.6733C68.0888 53.5346 65.5553 54.5832 62.9115 54.5902Z" fill="#008BAD"/>
<path d="M28.7444 41.1718C24.48 41.1718 21.4792 46.4132 21.3476 46.4132C21.2177 46.6628 21.1862 46.9517 21.2592 47.2233C21.3323 47.4948 21.5046 47.7293 21.7424 47.8809C21.8632 47.9508 21.9966 47.9961 22.1351 48.0142C22.2736 48.0323 22.4143 48.0227 22.549 47.9861C22.6837 47.9496 22.8098 47.8867 22.9199 47.8011C23.03 47.7155 23.1219 47.609 23.1902 47.4878C23.9009 46.2822 26.2437 43.2159 28.7444 43.2159C30.4817 43.2159 32.1664 44.6573 33.7721 47.4878C33.8702 47.652 34.0087 47.7886 34.1745 47.8849C34.3402 47.9812 34.5279 48.0339 34.7197 48.0381C34.8958 48.0219 35.0664 47.9683 35.2199 47.8809C35.3439 47.8151 35.4534 47.7252 35.542 47.6166C35.6306 47.508 35.6964 47.3829 35.7357 47.2486C35.7749 47.1142 35.7868 46.9734 35.7705 46.8345C35.7543 46.6955 35.7102 46.5612 35.641 46.4395C33.6142 42.9801 31.2977 41.1718 28.7444 41.1718Z" fill="#008BAD"/>
<path d="M63.2802 41.1718C58.9895 41.1718 56.015 46.4132 55.8834 46.4132C55.7472 46.6615 55.7122 46.9525 55.7857 47.2258C55.8592 47.499 56.0356 47.7336 56.2782 47.8809C56.399 47.9508 56.5324 47.9961 56.6709 48.0142C56.8094 48.0323 56.9501 48.0227 57.0848 47.9861C57.2195 47.9496 57.3456 47.8867 57.4557 47.8011C57.5658 47.7155 57.6577 47.609 57.726 47.4878C58.4104 46.2822 60.7532 43.2159 63.2802 43.2159C65.0175 43.2159 66.7022 44.6573 68.3342 47.4878C68.424 47.6534 68.5569 47.7919 68.719 47.8887C68.8812 47.9856 69.0665 48.0372 69.2555 48.0381C69.4406 48.0257 69.6206 47.9719 69.782 47.8809C69.9038 47.8128 70.0108 47.7213 70.0967 47.6117C70.1826 47.5022 70.2458 47.3766 70.2826 47.2425C70.3193 47.1083 70.3289 46.9683 70.3107 46.8304C70.2926 46.6925 70.2471 46.5596 70.1768 46.4395C68.1499 42.9801 65.8335 41.1718 63.2802 41.1718Z" fill="#008BAD"/>
<path d="M89.5244 38.1058C90.9046 38.1488 92.2498 37.6685 93.288 36.7619C94.3262 35.8553 94.9799 34.5901 95.1169 33.222C95.254 31.8539 94.8642 30.4851 94.0264 29.3921C93.1886 28.2992 91.9652 27.5638 90.6036 27.3345V14.6501C90.5636 14.3973 90.4342 14.1669 90.2388 14.0006C90.0433 13.8343 89.7947 13.7429 89.5375 13.7429C89.2804 13.7429 89.0318 13.8343 88.8363 14.0006C88.6409 14.1669 88.5115 14.3973 88.4715 14.6501V27.3345C87.1132 27.5646 85.893 28.2984 85.0563 29.3882C84.2197 30.478 83.8287 31.8429 83.9622 33.2081C84.0956 34.5733 84.7436 35.8375 85.7756 36.7463C86.8076 37.655 88.1471 38.1407 89.5244 38.1058ZM89.5244 29.3525C90.1856 29.3525 90.8319 29.5477 91.3817 29.9134C91.9314 30.2791 92.3599 30.799 92.6129 31.4071C92.866 32.0153 92.9322 32.6845 92.8032 33.3302C92.6742 33.9758 92.3558 34.5688 91.8883 35.0343C91.4207 35.4998 90.8251 35.8168 90.1766 35.9452C89.5281 36.0736 88.8559 36.0077 88.2451 35.7558C87.6342 35.5039 87.1121 35.0773 86.7448 34.53C86.3774 33.9826 86.1814 33.3391 86.1814 32.6808C86.1952 31.8072 86.5535 30.974 87.1789 30.3611C87.8044 29.7483 88.6468 29.4048 89.5244 29.4049V29.3525Z" fill="#008BAD"/>
<path d="M89.5246 41.9843C89.2454 41.9843 88.9775 42.0948 88.7801 42.2914C88.5826 42.488 88.4717 42.7546 88.4717 43.0326V53.2535C88.5117 53.5064 88.6411 53.7367 88.8365 53.903C89.032 54.0693 89.2807 54.1607 89.5378 54.1607C89.7949 54.1607 90.0435 54.0693 90.239 53.903C90.4344 53.7367 90.5638 53.5064 90.6039 53.2535V43.0326C90.6039 42.8927 90.5758 42.7542 90.5213 42.6253C90.4667 42.4964 90.3868 42.3797 90.2862 42.282C90.1856 42.1843 90.0664 42.1076 89.9356 42.0565C89.8048 42.0054 89.6651 41.9808 89.5246 41.9843Z" fill="#008BAD"/>
<path d="M86.1812 39.8877C86.0407 39.8877 85.9016 39.9156 85.7721 39.9699C85.6426 40.0242 85.5253 40.1038 85.4272 40.2039C85.3291 40.3041 85.2521 40.4228 85.2007 40.553C85.1494 40.6832 85.1247 40.8223 85.1283 40.9622V51.1831C85.1683 51.4359 85.2977 51.6663 85.4931 51.8326C85.6886 51.9989 85.9372 52.0903 86.1943 52.0903C86.4515 52.0903 86.7001 51.9989 86.8956 51.8326C87.091 51.6663 87.2204 51.4359 87.2604 51.1831V40.936C87.2536 40.6556 87.1368 40.389 86.9352 40.1931C86.7335 39.9972 86.4629 39.8876 86.1812 39.8877Z" fill="#008BAD"/>
<path d="M92.8683 39.8877C92.5821 39.8877 92.3076 40.0009 92.1052 40.2024C91.9028 40.4039 91.7891 40.6772 91.7891 40.9622V51.1831C91.7959 51.4635 91.9127 51.7301 92.1143 51.926C92.316 52.1219 92.5866 52.2315 92.8683 52.2314C93.1481 52.225 93.415 52.1134 93.6153 51.9188C93.8156 51.7243 93.9343 51.4613 93.9476 51.1831V40.936C93.9407 40.6556 93.824 40.389 93.6223 40.1931C93.4206 39.9972 93.15 39.8876 92.8683 39.8877Z" fill="#008BAD"/>
</g>
<defs>
<clipPath id="clip0_1_831">
<rect width="95" height="70" fill="white"/>
</clipPath>
</defs>
</svg>
