<svg width="73" height="64" viewBox="0 0 73 64" fill="none" xmlns="http://www.w3.org/2000/svg">
<g clip-path="url(#clip0_917_4951)">
<path d="M18.307 6.56524C18.3067 8.08378 17.7813 9.55525 16.8202 10.729C15.859 11.9027 14.5217 12.706 13.036 13.0021C11.5503 13.2982 10.0082 13.0687 8.67232 12.3527C7.33648 11.6367 6.28959 10.4786 5.71001 9.07563C5.13043 7.67264 5.05402 6.1116 5.4938 4.65847C5.93358 3.20534 6.86234 1.95002 8.12184 1.10639C9.38134 0.262767 10.8937 -0.116978 12.4011 0.0318591C13.9086 0.180697 15.318 0.848909 16.3891 1.92265C16.9972 2.53234 17.4796 3.25614 17.8086 4.05272C18.1377 4.8493 18.3071 5.70305 18.307 6.56524ZM20.5602 21.5861L35.9716 20.5925C36.5239 20.572 37.0517 20.3583 37.4633 19.9884C37.8749 19.6186 38.1443 19.1159 38.2247 18.5677C38.2625 18.2608 38.237 17.9494 38.1498 17.6528C38.0625 17.3562 37.9154 17.0808 37.7176 16.8435C37.5198 16.6063 37.2755 16.4123 36.9999 16.2736C36.7242 16.1349 36.423 16.0545 36.1151 16.0373L18.7134 14.916L15.8285 14.8636C15.7885 14.8633 15.749 14.8719 15.7128 14.8889C15.6766 14.9059 15.6447 14.9307 15.6193 14.9617L12.2315 19.1767C12.1687 19.2562 12.0888 19.3204 11.9977 19.3646C11.9067 19.4088 11.8069 19.4317 11.7057 19.4317C11.6046 19.4317 11.5048 19.4088 11.4137 19.3646C11.3227 19.3204 11.2428 19.2562 11.18 19.1767L7.78549 14.9604C7.76024 14.9284 7.72828 14.9025 7.69189 14.8843C7.65549 14.8662 7.61556 14.8564 7.57492 14.8555L5.53902 14.8555C4.75886 14.8563 3.98766 15.0223 3.27591 15.3426C2.56416 15.6628 1.92791 16.1302 1.40881 16.7141C0.889708 17.2979 0.499463 17.9851 0.263617 18.7306C0.0277712 19.4761 -0.0483568 20.2632 0.0402174 21.0402L1.64962 33.1919C1.74832 34.062 2.08645 34.8875 2.62621 35.5761C3.16598 36.2646 3.88613 36.7891 4.70616 37.091L7.41801 62.0505C7.47697 62.5786 7.72883 63.0661 8.12505 63.4191C8.52127 63.7721 9.0338 63.9657 9.56388 63.9624L13.8677 63.9624C14.3955 63.9623 14.9047 63.7673 15.2981 63.4146C15.6915 63.0619 15.9415 62.5763 16.0002 62.0505L17.2703 50.3788L20.2731 21.851C20.2793 21.7749 20.3149 21.7042 20.3722 21.654C20.4296 21.6038 20.5042 21.578 20.5803 21.5821L20.5602 21.5861ZM21.1838 2.01004L68.6613 2.01004C69.2326 2.00968 69.7983 2.12252 70.3259 2.34209C70.8535 2.56165 71.3326 2.88361 71.7357 3.28944C72.1388 3.69527 72.4579 4.17697 72.6746 4.70684C72.8914 5.23672 73.0015 5.80432 72.9986 6.37701L72.9986 40.6875C72.9986 41.8398 72.5421 42.9449 71.7295 43.7598C70.9169 44.5747 69.8147 45.0326 68.6653 45.033L47.5378 45.033L59.8471 60.3604C60.0257 60.5783 60.1592 60.8298 60.2397 61.1C60.3203 61.3702 60.3462 61.6539 60.3162 61.9343C60.2861 62.2147 60.2005 62.4863 60.0645 62.7332C59.9284 62.9801 59.7447 63.1973 59.5239 63.3721L59.3442 63.5146C59.1266 63.6933 58.8758 63.8268 58.6063 63.9074C58.3368 63.9879 58.054 64.0138 57.7743 63.9837C57.4947 63.9535 57.2239 63.8679 56.9776 63.7317C56.7313 63.5955 56.5146 63.4116 56.34 63.1906L45.7447 49.9163L45.7447 61.791C45.744 62.354 45.5205 62.8938 45.1232 63.2918C44.7259 63.6898 44.1873 63.9136 43.6256 63.9139L43.3909 63.9139C42.8295 63.9136 42.2912 63.6898 41.8943 63.2917C41.4975 62.8936 41.2746 62.3538 41.2746 61.791L41.2746 49.9189L30.6458 63.1691C30.4714 63.3903 30.2548 63.5743 30.0086 63.7106C29.7624 63.8468 29.4915 63.9325 29.2119 63.9625C28.9323 63.9925 28.6495 63.9664 28.3801 63.8856C28.1107 63.8047 27.8601 63.6709 27.6429 63.4918L27.4846 63.3493C27.2642 63.1742 27.0807 62.9569 26.9449 62.71C26.809 62.4631 26.7236 62.1916 26.6935 61.9113C26.6634 61.631 26.6893 61.3475 26.7696 61.0773C26.85 60.8071 26.9831 60.5556 27.1614 60.3376L39.5002 45.0303L21.7699 45.0303L23.8648 25.3117L36.2291 24.5077C37.8085 24.4322 39.2994 23.7542 40.3964 22.6126C41.4934 21.471 42.1135 19.9522 42.1298 18.3671C42.1461 16.782 41.5573 15.2507 40.484 14.0867C39.4106 12.9227 37.934 12.2141 36.3565 12.106L21.1704 11.1272C21.86 9.7108 22.2185 8.15545 22.2185 6.57936C22.2185 5.00326 21.86 3.44791 21.1704 2.03155L21.1838 2.01004ZM46.7197 24.8761L39.2092 31.3298L33.308 29.3426C33.1574 29.2945 32.9977 29.2827 32.8417 29.3079C32.6857 29.3331 32.5378 29.3947 32.4099 29.4877C32.282 29.5807 32.1777 29.7025 32.1054 29.8434C32.0331 29.9842 31.9948 30.1401 31.9937 30.2985L31.9937 35.9239C31.9937 36.0565 32.0197 36.1877 32.0703 36.3102C32.121 36.4326 32.1952 36.5438 32.2887 36.6375C32.3823 36.7311 32.4933 36.8054 32.6155 36.856C32.7377 36.9066 32.8687 36.9325 33.0009 36.9323L62.0372 36.9323C62.304 36.9323 62.5599 36.8261 62.7485 36.637C62.9371 36.4479 63.0431 36.1914 63.0431 35.9239L63.0431 22.0163C63.0414 21.8309 62.9887 21.6495 62.8908 21.492C62.793 21.3346 62.6538 21.2072 62.4885 21.1239C62.3232 21.0405 62.1382 21.0044 61.9538 21.0196C61.7694 21.0347 61.5927 21.1005 61.4431 21.2096L52.236 27.9322L47.9295 24.8506C47.7468 24.7192 47.5254 24.653 47.3008 24.6625C47.0762 24.672 46.8612 24.7567 46.6902 24.903L46.7197 24.8761Z" fill="#008BAD"/>
</g>
<defs>
<clipPath id="clip0_917_4951">
<rect width="73" height="64" fill="white"/>
</clipPath>
</defs>
</svg>
