<svg width="77" height="71" viewBox="0 0 77 71" fill="none" xmlns="http://www.w3.org/2000/svg">
<g clip-path="url(#clip0_917_4974)">
<path d="M74.0385 1.93656e-06C73.6494 -0.000442962 73.2641 0.0757736 72.9046 0.224286C72.5451 0.372799 72.2184 0.59069 71.9433 0.865485C71.6683 1.14028 71.4501 1.46658 71.3014 1.8257C71.1528 2.18483 71.0765 2.56972 71.0769 2.95834V8.875H67.5823C66.9598 7.16168 65.8243 5.68136 64.3301 4.63524C62.8358 3.58912 61.0554 3.02793 59.2308 3.02793C57.4061 3.02793 55.6257 3.58912 54.1315 4.63524C52.6373 5.68136 51.5018 7.16168 50.8792 8.875H46.8515C46.229 7.16168 45.0935 5.68136 43.5993 4.63524C42.1051 3.58912 40.3247 3.02793 38.5 3.02793C36.6753 3.02793 34.8949 3.58912 33.4007 4.63524C31.9065 5.68136 30.771 7.16168 30.1485 8.875H5.92308V2.95834C5.92308 2.17374 5.61106 1.42127 5.05567 0.866478C4.50027 0.311683 3.74699 1.93656e-06 2.96154 1.93656e-06C2.17609 1.93656e-06 1.42281 0.311683 0.867417 0.866478C0.312021 1.42127 1.93866e-06 2.17374 1.93866e-06 2.95834V68.0417C-0.000443442 68.4303 0.0758557 68.8152 0.224529 69.1743C0.373203 69.5334 0.59133 69.8597 0.866423 70.1345C1.14152 70.4093 1.46817 70.6272 1.82768 70.7757C2.18719 70.9242 2.5725 71.0004 2.96154 71H74.0385C74.8239 71 75.5772 70.6883 76.1326 70.1335C76.688 69.5787 77 68.8263 77 68.0417V2.95834C77 2.17374 76.688 1.42127 76.1326 0.866478C75.5772 0.311683 74.8239 1.93656e-06 74.0385 1.93656e-06V1.93656e-06ZM46.8515 50.2917C46.229 48.5783 45.0935 47.098 43.5993 46.0519C42.1051 45.0058 40.3247 44.4446 38.5 44.4446C36.6753 44.4446 34.8949 45.0058 33.4007 46.0519C31.9065 47.098 30.771 48.5783 30.1485 50.2917H5.92308V35.5H9.41769C10.0402 37.2133 11.1757 38.6936 12.67 39.7398C14.1642 40.7859 15.9446 41.3471 17.7692 41.3471C19.5939 41.3471 21.3743 40.7859 22.8685 39.7398C24.3627 38.6936 25.4982 37.2133 26.1208 35.5H30.1485C30.771 37.2133 31.9065 38.6936 33.4007 39.7398C34.8949 40.7859 36.6753 41.3471 38.5 41.3471C40.3247 41.3471 42.1051 40.7859 43.5993 39.7398C45.0935 38.6936 46.229 37.2133 46.8515 35.5H71.0769V50.2917H46.8515ZM30.1485 14.7917C30.771 16.505 31.9065 17.9853 33.4007 19.0314C34.8949 20.0776 36.6753 20.6387 38.5 20.6387C40.3247 20.6387 42.1051 20.0776 43.5993 19.0314C45.0935 17.9853 46.229 16.505 46.8515 14.7917H50.8792C51.5018 16.505 52.6373 17.9853 54.1315 19.0314C55.6257 20.0776 57.4061 20.6387 59.2308 20.6387C61.0554 20.6387 62.8358 20.0776 64.3301 19.0314C65.8243 17.9853 66.9598 16.505 67.5823 14.7917H71.0769V29.5833H46.8515C46.229 27.87 45.0935 26.3897 43.5993 25.3436C42.1051 24.2975 40.3247 23.7363 38.5 23.7363C36.6753 23.7363 34.8949 24.2975 33.4007 25.3436C31.9065 26.3897 30.771 27.87 30.1485 29.5833H26.1208C25.4982 27.87 24.3627 26.3897 22.8685 25.3436C21.3743 24.2975 19.5939 23.7363 17.7692 23.7363C15.9446 23.7363 14.1642 24.2975 12.67 25.3436C11.1757 26.3897 10.0402 27.87 9.41769 29.5833H5.92308V14.7917H30.1485ZM5.92308 65.0833V56.2083H30.1485C30.771 57.9217 31.9065 59.402 33.4007 60.4481C34.8949 61.4942 36.6753 62.0554 38.5 62.0554C40.3247 62.0554 42.1051 61.4942 43.5993 60.4481C45.0935 59.402 46.229 57.9217 46.8515 56.2083H71.0769V65.0833H5.92308Z" fill="#008BAD"/>
</g>
<defs>
<clipPath id="clip0_917_4974">
<rect width="77" height="71" fill="white"/>
</clipPath>
</defs>
</svg>
