<svg width="75" height="74" viewBox="0 0 75 74" fill="none" xmlns="http://www.w3.org/2000/svg">
<g clip-path="url(#clip0_916_4911)">
<path d="M37.9832 0C17.6752 0 1.14915 16.5267 0.984711 36.7533C0.902492 46.62 4.68456 55.9875 11.6732 62.9822C18.5737 70.0533 27.8703 73.9178 37.7366 73.9941H37.9832C58.2913 73.9941 74.8173 57.4675 74.9818 37.2408C75.1462 16.8556 58.6202 0.164444 37.9832 0ZM41.6009 62.2422H34.3656C33.7332 62.2422 33.1268 61.991 32.6796 61.5438C32.2325 61.0967 31.9813 60.4902 31.9813 59.8578C31.9813 59.2254 32.2325 58.6189 32.6796 58.1717C33.1268 57.7245 33.7332 57.4733 34.3656 57.4733H41.6009C42.2332 57.4733 42.8397 57.7245 43.2869 58.1717C43.734 58.6189 43.9852 59.2254 43.9852 59.8578C43.9852 60.4902 43.734 61.0967 43.2869 61.5438C42.8397 61.991 42.2332 62.2422 41.6009 62.2422ZM43.903 55.5822H32.0635C31.4311 55.5822 30.8246 55.331 30.3775 54.8838C29.9303 54.4367 29.6791 53.8302 29.6791 53.1978C29.6791 52.5654 29.9303 51.9589 30.3775 51.5117C30.8246 51.0645 31.4311 50.8133 32.0635 50.8133H43.903C44.5354 50.8133 45.1418 51.0645 45.589 51.5117C46.0361 51.9589 46.2874 52.5654 46.2874 53.1978C46.2874 53.8302 46.0361 54.4367 45.589 54.8838C45.1418 55.331 44.5354 55.5822 43.903 55.5822ZM43.903 48.5111H32.0635C31.4311 48.5111 30.8246 48.2599 30.3775 47.8127C29.9303 47.3655 29.6791 46.7591 29.6791 46.1267C29.6791 45.4943 29.9303 44.8878 30.3775 44.4406C30.8246 43.9934 31.4311 43.7422 32.0635 43.7422H35.5989V34.2867H35.1056C34.4732 34.2867 33.8667 34.0354 33.4196 33.5883C32.9724 33.1411 32.7212 32.5346 32.7212 31.9022C32.7212 31.2698 32.9724 30.6633 33.4196 30.2162C33.8667 29.769 34.4732 29.5178 35.1056 29.5178H40.8609C41.4933 29.5178 42.0997 29.769 42.5469 30.2162C42.994 30.6633 43.2453 31.2698 43.2453 31.9022C43.2453 32.5346 42.994 33.1411 42.5469 33.5883C42.0997 34.0354 41.4933 34.2867 40.8609 34.2867H40.3676V43.7422H43.903C44.5354 43.7422 45.1418 43.9934 45.589 44.4406C46.0361 44.8878 46.2874 45.4943 46.2874 46.1267C46.2874 46.7591 46.0361 47.3655 45.589 47.8127C45.1418 48.2599 44.5354 48.5111 43.903 48.5111ZM49.8228 41.1111C49.3371 41.5175 48.7291 41.7492 48.0962 41.7689C47.4384 41.7689 46.8629 41.6044 46.3696 41.1111C45.9325 40.6577 45.6883 40.0524 45.6883 39.4226C45.6883 38.7928 45.9325 38.1876 46.3696 37.7341C48.5816 35.5034 49.8228 32.489 49.8228 29.3475C49.8228 26.2059 48.5816 23.1915 46.3696 20.9608C41.7653 16.3563 34.2012 16.3563 29.5969 20.9608C24.9926 25.5652 24.9926 33.1282 29.5969 37.7341C30.0447 38.1819 30.2963 38.7893 30.2963 39.4226C30.2963 40.0559 30.0447 40.6633 29.5969 41.1111C29.1491 41.5589 28.5418 41.8105 27.9085 41.8105C27.2752 41.8105 26.6679 41.5589 26.2201 41.1111C24.6757 39.5673 23.4506 37.7343 22.6148 35.7168C21.779 33.6994 21.3488 31.5371 21.3488 29.3533C21.3488 27.1696 21.779 25.0073 22.6148 22.9898C23.4506 20.9724 24.6757 19.1394 26.2201 17.5956C32.7139 11.1 43.2394 11.1 49.8169 17.5956C52.9237 20.72 54.6676 24.9471 54.6676 29.3533C54.6676 33.7596 52.9237 37.9867 49.8169 41.1111H49.8228Z" fill="#008BAD"/>
</g>
<defs>
<clipPath id="clip0_916_4911">
<rect width="74" height="74" fill="white" transform="translate(0.98291)"/>
</clipPath>
</defs>
</svg>
