<svg width="29" height="20" viewBox="0 0 29 20" fill="none" xmlns="http://www.w3.org/2000/svg">
<path fill-rule="evenodd" clip-rule="evenodd" d="M19.7343 7.51401L14.7164 8.92305C14.5751 8.96324 14.4246 8.96324 14.2833 8.92305C12.8221 8.51408 4.35193 6.13609 0.435741 5.03427C0.310621 4.99734 0.201214 4.92336 0.123517 4.82313C0.0458192 4.7229 0.00390625 4.60168 0.00390625 4.4772C0.00390625 4.35272 0.0458192 4.2315 0.123517 4.13127C0.201214 4.03104 0.310621 3.95705 0.435741 3.92013L14.2833 0.0313495C14.4247 -0.00817118 14.575 -0.00817118 14.7164 0.0313495L28.564 3.92013C28.6891 3.95705 28.7985 4.03104 28.8762 4.13127C28.9539 4.2315 28.9958 4.35272 28.9958 4.4772C28.9958 4.60168 28.9539 4.7229 28.8762 4.82313C28.7985 4.92336 28.6891 4.99734 28.564 5.03427C26.5209 5.60657 23.6402 6.41673 23.6402 6.41673L14.6816 3.63366C14.6449 3.62351 14.6075 3.6155 14.5698 3.60968C14.5507 3.60968 14.5316 3.60968 14.5125 3.60968H14.4552C14.3788 3.61592 14.3043 3.6357 14.2355 3.66801C14.1843 3.69317 14.1372 3.72526 14.0957 3.76328C14.0537 3.80101 14.0183 3.84475 13.9906 3.89291C13.9242 4.00434 13.9001 4.13409 13.9224 4.2604C13.9326 4.31447 13.951 4.36687 13.977 4.41595C14.0204 4.49703 14.0841 4.5667 14.1625 4.61882L22.6893 7.26967L22.7419 7.28846C22.7765 7.30262 22.8094 7.32022 22.8401 7.34096C22.9492 7.413 23.0293 7.51813 23.0672 7.6391C23.0773 7.66993 23.0842 7.70162 23.0877 7.73373H23.0918V15.8781L24.2678 18.1135C24.3724 18.3123 24.4217 18.5332 24.4111 18.7552C24.4005 18.9771 24.3304 19.1929 24.2074 19.3819C24.0843 19.5708 23.9125 19.7268 23.7082 19.8349C23.5039 19.943 23.2738 19.9997 23.04 19.9996H21.9758C21.7419 19.9997 21.5119 19.943 21.3076 19.8349C21.1033 19.7268 20.9314 19.5708 20.8084 19.3819C20.6854 19.1929 20.6152 18.9771 20.6047 18.7552C20.5941 18.5332 20.6434 18.3123 20.748 18.1135L21.924 15.8781V14.0102C21.6688 14.0534 21.4135 14.0917 21.1579 14.1249C20.0235 14.2818 18.8823 14.3842 17.7383 14.449C16.4484 14.5248 15.1551 14.5514 13.8624 14.5378C12.6079 14.5248 11.3541 14.473 10.1051 14.368C9.55942 14.3248 9.01689 14.2703 8.47754 14.2047C7.92273 14.1381 7.37019 14.0582 6.81993 13.9649C6.19236 13.8573 5.56751 13.7309 4.9529 13.5675C4.69641 13.5006 4.44243 13.426 4.19095 13.3439C3.96652 13.2694 3.74482 13.1871 3.52858 13.0931C3.38107 13.0302 3.23717 12.9599 3.09747 12.8825C2.99101 12.8228 2.88952 12.7554 2.79391 12.6809C2.73683 12.6374 2.6849 12.588 2.63907 12.5338C2.61077 12.5024 2.5888 12.4664 2.57426 12.4275C2.5721 12.4218 2.5705 12.416 2.56949 12.41V6.7894L14.3337 10.0949C14.4417 10.1251 14.5566 10.1251 14.6646 10.0949L21.6907 8.12131L19.7343 7.51401ZM24.2603 7.39994L26.4295 6.7894V12.4061C26.4284 12.4205 26.4245 12.4346 26.4179 12.4476C26.409 12.467 26.3981 12.4854 26.3852 12.5027C26.3347 12.571 26.2741 12.6319 26.2051 12.6835C26.0952 12.7684 25.9779 12.8443 25.8545 12.9103C25.678 13.0047 25.4958 13.0889 25.3088 13.1625C25.0523 13.2655 24.7897 13.3569 24.5243 13.4353C24.4356 13.4619 24.3476 13.4872 24.2583 13.5125L24.2603 7.39994Z" fill="#4A7473"/>
</svg>
