<svg width="468" height="356" viewBox="0 0 468 356" fill="none" xmlns="http://www.w3.org/2000/svg">
<path d="M332.981 33.367L16.6835 33.367C12.2588 33.367 8.01525 31.6093 4.88649 28.4805C1.75772 25.3518 -4.06638e-09 21.1082 -3.21398e-09 16.6835C-2.36158e-09 12.2588 1.75772 8.01525 4.88649 4.88648C8.01525 1.75772 12.2588 2.36158e-09 16.6835 3.21398e-09L332.981 6.41468e-08C337.405 6.49992e-08 341.649 1.75772 344.778 4.88648C347.906 8.01525 349.664 12.2588 349.664 16.6835C349.664 21.1082 347.906 25.3518 344.778 28.4805C341.649 31.6093 337.405 33.367 332.981 33.367ZM16.6835 3.28335C13.1296 3.28335 9.72118 4.69514 7.20816 7.20816C4.69514 9.72118 3.28335 13.1296 3.28335 16.6835C3.28335 20.2374 4.69514 23.6458 7.20816 26.1588C9.72118 28.6719 13.1296 30.0837 16.6835 30.0837L332.981 30.0837C336.534 30.0837 339.943 28.6719 342.456 26.1588C344.969 23.6458 346.381 20.2374 346.381 16.6835C346.381 13.1296 344.969 9.72118 342.456 7.20816C339.943 4.69514 336.534 3.28335 332.981 3.28335L16.6835 3.28335Z" fill="white"/>
<path d="M323.028 232.26L26.6524 232.26C26.217 232.26 25.7995 232.087 25.4916 231.779C25.1837 231.471 25.0107 231.054 25.0107 230.618L25.0107 31.7254C25.0107 31.29 25.1837 30.8724 25.4916 30.5646C25.7995 30.2567 26.217 30.0837 26.6524 30.0837C27.0878 30.0837 27.5054 30.2567 27.8133 30.5646C28.1211 30.8724 28.2941 31.29 28.2941 31.7254L28.2941 228.977L321.386 228.977L321.386 31.7254C321.386 31.29 321.559 30.8724 321.867 30.5646C322.175 30.2567 322.592 30.0837 323.028 30.0837C323.463 30.0837 323.881 30.2567 324.189 30.5646C324.496 30.8724 324.669 31.29 324.669 31.7254L324.669 230.618C324.669 231.054 324.496 231.471 324.189 231.779C323.881 232.087 323.463 232.26 323.028 232.26Z" fill="white"/>
<path d="M174.838 283.698C174.403 283.698 173.985 283.525 173.677 283.217C173.369 282.909 173.196 282.491 173.196 282.056L173.196 241.897C173.196 241.461 173.369 241.044 173.677 240.736C173.985 240.428 174.403 240.255 174.838 240.255C175.273 240.255 175.691 240.428 175.999 240.736C176.307 241.044 176.48 241.461 176.48 241.897L176.48 282.056C176.48 282.491 176.307 282.909 175.999 283.217C175.691 283.525 175.273 283.698 174.838 283.698Z" fill="white"/>
<path d="M174.838 310.49C171.863 310.49 168.956 309.609 166.482 307.957C164.009 306.305 162.081 303.957 160.942 301.209C159.803 298.462 159.505 295.438 160.084 292.521C160.664 289.603 162.096 286.923 164.199 284.82C166.302 282.717 168.981 281.284 171.898 280.703C174.816 280.123 177.839 280.42 180.587 281.558C183.335 282.696 185.684 284.624 187.337 287.097C188.989 289.57 189.871 292.477 189.871 295.452C189.867 299.438 188.282 303.26 185.464 306.079C182.645 308.898 178.824 310.484 174.838 310.49ZM174.838 283.697C172.513 283.697 170.24 284.385 168.306 285.676C166.373 286.967 164.865 288.803 163.975 290.951C163.085 293.099 162.852 295.462 163.305 297.742C163.758 300.023 164.877 302.118 166.521 303.762C168.164 305.406 170.259 306.526 172.539 306.98C174.819 307.434 177.183 307.201 179.331 306.312C181.479 305.422 183.315 303.916 184.607 301.983C185.899 300.05 186.588 297.777 186.588 295.452C186.584 292.336 185.344 289.35 183.142 287.146C180.939 284.943 177.953 283.703 174.838 283.697Z" fill="white"/>
<path d="M254.497 53.6334L102.453 53.6334C102.018 53.6334 101.6 53.4605 101.292 53.1526C100.984 52.8447 100.812 52.4272 100.812 51.9918C100.812 51.5564 100.984 51.1388 101.292 50.8309C101.6 50.5231 102.018 50.3501 102.453 50.3501L254.497 50.3501C254.932 50.3501 255.35 50.5231 255.658 50.8309C255.965 51.1388 256.138 51.5564 256.138 51.9918C256.138 52.4272 255.965 52.8447 255.658 53.1526C255.35 53.4605 254.932 53.6334 254.497 53.6334Z" fill="white"/>
<path d="M199.976 243.538L149.688 243.538C149.252 243.538 148.835 243.365 148.527 243.057C148.219 242.749 148.046 242.332 148.046 241.896L148.046 230.618C148.046 230.183 148.219 229.765 148.527 229.457C148.835 229.149 149.252 228.976 149.688 228.976C150.123 228.976 150.541 229.149 150.848 229.457C151.156 229.765 151.329 230.183 151.329 230.618L151.329 240.255L198.334 240.255L198.334 230.618C198.334 230.183 198.507 229.765 198.815 229.457C199.123 229.149 199.541 228.976 199.976 228.976C200.412 228.976 200.829 229.149 201.137 229.457C201.445 229.765 201.618 230.183 201.618 230.618L201.618 241.896C201.618 242.332 201.445 242.749 201.137 243.057C200.829 243.365 200.412 243.538 199.976 243.538Z" fill="white"/>
<path d="M188.247 185.714L168.703 185.714C166.139 185.711 163.68 184.691 161.868 182.877C160.055 181.064 159.035 178.605 159.033 176.041L159.033 171.054C159.074 164.748 156.752 158.656 152.524 153.977C146.399 147.269 143.112 138.449 143.352 129.37C143.592 120.29 147.342 111.656 153.812 105.282C160.283 98.9077 168.972 95.2889 178.055 95.1853C187.137 95.0818 195.907 98.5016 202.521 104.727C209.21 111.008 213.173 119.659 213.562 128.826C213.952 137.993 210.737 146.949 204.606 153.776C200.318 158.511 197.935 164.666 197.916 171.054L197.916 176.041C197.914 178.605 196.895 181.064 195.082 182.877C193.269 184.691 190.811 185.711 188.247 185.714ZM178.495 98.5005C177.814 98.5005 177.13 98.521 176.443 98.5621C170.457 98.9444 164.7 101.01 159.837 104.522C154.973 108.034 151.201 112.848 148.955 118.411C146.709 123.973 146.081 130.057 147.142 135.961C148.203 141.865 150.911 147.349 154.954 151.781C159.735 157.064 162.363 163.946 162.321 171.071L162.321 176.057C162.322 177.751 162.995 179.375 164.192 180.573C165.389 181.771 167.013 182.445 168.707 182.447L188.251 182.447C189.945 182.445 191.568 181.771 192.766 180.573C193.963 179.375 194.636 177.751 194.637 176.057L194.637 171.054C194.656 163.855 197.338 156.918 202.168 151.58C206.272 147.005 208.963 141.339 209.917 135.267C210.871 129.195 210.046 122.978 207.543 117.364C205.039 111.751 200.964 106.983 195.809 103.635C190.655 100.288 184.641 98.5045 178.495 98.5005Z" fill="white"/>
<path d="M178.475 185.714C178.039 185.714 177.622 185.541 177.314 185.233C177.006 184.926 176.833 184.508 176.833 184.073L176.833 162.115C176.833 161.68 177.006 161.262 177.314 160.954C177.622 160.646 178.039 160.473 178.475 160.473C178.91 160.473 179.328 160.646 179.636 160.954C179.943 161.262 180.116 161.68 180.116 162.115L180.116 184.073C180.116 184.508 179.943 184.926 179.636 185.233C179.328 185.541 178.91 185.714 178.475 185.714Z" fill="white"/>
<path d="M184.799 163.757L172.15 163.757C171.773 163.756 171.408 163.626 171.116 163.389C170.824 163.151 170.622 162.82 170.545 162.452L164.389 133.148C164.299 132.722 164.382 132.277 164.62 131.912C164.858 131.548 165.231 131.292 165.657 131.202C166.083 131.113 166.528 131.196 166.892 131.434C167.257 131.671 167.513 132.044 167.602 132.471L173.484 160.473L183.457 160.473L189.346 132.471C189.436 132.044 189.692 131.671 190.056 131.434C190.421 131.196 190.866 131.113 191.292 131.202C191.718 131.292 192.091 131.548 192.329 131.912C192.567 132.277 192.65 132.722 192.56 133.148L186.404 162.452C186.326 162.82 186.125 163.151 185.833 163.389C185.541 163.626 185.176 163.756 184.799 163.757Z" fill="white"/>
<path d="M188.727 145.116L168.206 145.116C167.771 145.116 167.353 144.943 167.045 144.635C166.737 144.327 166.564 143.909 166.564 143.474C166.564 143.039 166.737 142.621 167.045 142.313C167.353 142.005 167.771 141.832 168.206 141.832L188.727 141.832C189.162 141.832 189.58 142.005 189.888 142.313C190.196 142.621 190.369 143.039 190.369 143.474C190.369 143.909 190.196 144.327 189.888 144.635C189.58 144.943 189.162 145.116 188.727 145.116Z" fill="white"/>
<path d="M182.485 204.011L174.465 204.011C171.365 204.008 168.394 202.774 166.202 200.582C164.011 198.39 162.779 195.418 162.776 192.318L162.776 182.825C162.776 182.39 162.949 181.972 163.257 181.664C163.565 181.356 163.983 181.183 164.418 181.183C164.853 181.183 165.271 181.356 165.579 181.664C165.887 181.972 166.06 182.39 166.06 182.825L166.06 192.318C166.061 194.547 166.947 196.685 168.523 198.262C170.099 199.839 172.236 200.725 174.465 200.727L182.485 200.727C184.714 200.725 186.852 199.839 188.429 198.262C190.005 196.685 190.892 194.548 190.894 192.318L190.894 182.825C190.894 182.39 191.067 181.972 191.375 181.664C191.683 181.356 192.1 181.183 192.536 181.183C192.971 181.183 193.389 181.356 193.697 181.664C194.005 181.972 194.177 182.39 194.177 182.825L194.177 192.318C194.174 195.418 192.941 198.39 190.749 200.583C188.557 202.775 185.585 204.008 182.485 204.011Z" fill="white"/>
<path d="M178.474 210.791C176.459 210.789 174.527 209.987 173.102 208.562C171.677 207.137 170.875 205.205 170.873 203.19C170.873 202.754 171.046 202.337 171.354 202.029C171.662 201.721 172.079 201.548 172.515 201.548C172.95 201.548 173.368 201.721 173.676 202.029C173.983 202.337 174.156 202.754 174.156 203.19C174.224 204.287 174.708 205.317 175.508 206.069C176.309 206.822 177.367 207.241 178.466 207.241C179.565 207.241 180.622 206.822 181.423 206.069C182.224 205.317 182.707 204.287 182.775 203.19C182.775 202.754 182.948 202.337 183.256 202.029C183.564 201.721 183.981 201.548 184.417 201.548C184.852 201.548 185.27 201.721 185.578 202.029C185.886 202.337 186.059 202.754 186.059 203.19C186.056 205.202 185.257 207.132 183.836 208.556C182.414 209.981 180.486 210.784 178.474 210.791Z" fill="white"/>
<path d="M192.535 194.325L172.515 194.325C172.079 194.325 171.662 194.152 171.354 193.844C171.046 193.536 170.873 193.119 170.873 192.683C170.873 192.248 171.046 191.83 171.354 191.522C171.662 191.214 172.079 191.041 172.515 191.041L192.535 191.041C192.97 191.041 193.388 191.214 193.696 191.522C194.004 191.83 194.177 192.248 194.177 192.683C194.177 193.119 194.004 193.536 193.696 193.844C193.388 194.152 192.97 194.325 192.535 194.325Z" fill="white"/>
<path d="M178.475 88.6094C178.039 88.6094 177.622 88.4364 177.314 88.1285C177.006 87.8206 176.833 87.4031 176.833 86.9677L176.833 78.312C176.833 77.8766 177.006 77.459 177.314 77.1511C177.622 76.8432 178.039 76.6703 178.475 76.6703C178.91 76.6703 179.328 76.8432 179.636 77.1511C179.943 77.459 180.116 77.8766 180.116 78.312L180.116 86.9677C180.116 87.4031 179.943 87.8206 179.636 88.1285C179.328 88.4364 178.91 88.6094 178.475 88.6094Z" fill="white"/>
<path d="M156.541 94.4864C156.253 94.4868 155.969 94.4112 155.719 94.2671C155.469 94.123 155.262 93.9155 155.117 93.6656L150.791 86.1878C150.673 86.0009 150.593 85.792 150.557 85.5735C150.521 85.355 150.53 85.1315 150.582 84.9165C150.635 84.7014 150.731 84.4992 150.863 84.3221C150.996 84.145 151.164 83.9965 151.355 83.8857C151.547 83.7749 151.759 83.7041 151.979 83.6774C152.199 83.6507 152.422 83.6687 152.634 83.7304C152.847 83.7921 153.045 83.8961 153.216 84.0363C153.388 84.1765 153.529 84.3499 153.631 84.5461L157.961 92.0403C158.105 92.2898 158.181 92.5727 158.181 92.8607C158.181 93.1488 158.106 93.4318 157.962 93.6813C157.818 93.9308 157.611 94.1381 157.362 94.2823C157.112 94.4265 156.829 94.5025 156.541 94.5028L156.541 94.4864Z" fill="white"/>
<path d="M140.482 110.546C140.194 110.546 139.91 110.469 139.661 110.325L132.155 105.995C131.797 105.767 131.541 105.411 131.441 105C131.34 104.588 131.402 104.154 131.614 103.788C131.826 103.421 132.171 103.15 132.578 103.033C132.984 102.915 133.421 102.958 133.796 103.155L141.295 107.48C141.609 107.66 141.854 107.939 141.994 108.274C142.133 108.608 142.157 108.979 142.064 109.329C141.97 109.679 141.763 109.988 141.476 110.208C141.188 110.428 140.836 110.547 140.474 110.546L140.482 110.546Z" fill="white"/>
<path d="M134.617 132.479L125.949 132.479C125.514 132.479 125.096 132.306 124.788 131.998C124.481 131.69 124.308 131.273 124.308 130.837C124.308 130.402 124.481 129.984 124.788 129.676C125.096 129.369 125.514 129.196 125.949 129.196L134.617 129.196C135.053 129.196 135.47 129.369 135.778 129.676C136.086 129.984 136.259 130.402 136.259 130.837C136.259 131.273 136.086 131.69 135.778 131.998C135.47 132.306 135.053 132.479 134.617 132.479Z" fill="white"/>
<path d="M132.976 158.742C132.615 158.741 132.264 158.621 131.978 158.401C131.692 158.182 131.486 157.874 131.393 157.525C131.299 157.176 131.323 156.807 131.461 156.473C131.599 156.14 131.843 155.861 132.155 155.68L139.653 151.35C140.03 151.132 140.479 151.073 140.899 151.186C141.32 151.299 141.678 151.574 141.896 151.951C142.114 152.328 142.173 152.777 142.06 153.197C141.947 153.618 141.672 153.976 141.295 154.194L133.797 158.524C133.547 158.667 133.264 158.742 132.976 158.742Z" fill="white"/>
<path d="M200.408 94.4865C200.12 94.4862 199.837 94.4101 199.587 94.2659C199.338 94.1217 199.131 93.9144 198.987 93.6649C198.843 93.4154 198.768 93.1324 198.768 92.8444C198.768 92.5564 198.844 92.2734 198.988 92.024L203.317 84.5461C203.425 84.3594 203.569 84.1957 203.74 84.0644C203.911 83.9331 204.106 83.8368 204.314 83.781C204.523 83.7252 204.74 83.7109 204.954 83.739C205.167 83.7671 205.374 83.8371 205.56 83.9449C205.747 84.0527 205.911 84.1962 206.042 84.3673C206.173 84.5383 206.27 84.7336 206.326 84.9418C206.381 85.1501 206.396 85.3673 206.367 85.5811C206.339 85.7949 206.269 86.0011 206.162 86.1878L201.832 93.6821C201.685 93.9289 201.477 94.1331 201.227 94.2743C200.977 94.4154 200.695 94.4886 200.408 94.4865Z" fill="white"/>
<path d="M216.467 110.546C216.105 110.547 215.753 110.428 215.465 110.208C215.178 109.988 214.971 109.679 214.877 109.329C214.783 108.979 214.808 108.608 214.947 108.274C215.086 107.939 215.332 107.66 215.646 107.48L223.145 103.155C223.52 102.958 223.956 102.915 224.363 103.033C224.77 103.15 225.115 103.421 225.327 103.788C225.539 104.154 225.601 104.588 225.5 105C225.399 105.411 225.144 105.767 224.786 105.995L217.288 110.325C217.039 110.469 216.755 110.546 216.467 110.546Z" fill="white"/>
<path d="M231 132.479L222.344 132.479C221.908 132.479 221.491 132.306 221.183 131.998C220.875 131.69 220.702 131.273 220.702 130.837C220.702 130.402 220.875 129.984 221.183 129.676C221.491 129.369 221.908 129.196 222.344 129.196L231 129.196C231.435 129.196 231.853 129.369 232.16 129.676C232.468 129.984 232.641 130.402 232.641 130.837C232.641 131.273 232.468 131.69 232.16 131.998C231.853 132.306 231.435 132.479 231 132.479Z" fill="white"/>
<path d="M223.961 158.742C223.673 158.742 223.39 158.667 223.141 158.524L215.646 154.194C215.269 153.976 214.994 153.618 214.881 153.197C214.768 152.777 214.827 152.328 215.045 151.951C215.263 151.574 215.621 151.299 216.042 151.186C216.463 151.073 216.911 151.132 217.288 151.35L224.786 155.68C225.099 155.861 225.342 156.14 225.48 156.473C225.618 156.807 225.642 157.176 225.548 157.525C225.455 157.874 225.249 158.182 224.963 158.401C224.677 158.621 224.326 158.741 223.966 158.742L223.961 158.742Z" fill="white"/>
<path d="M405.066 303.299C404.295 303.297 403.526 303.241 402.763 303.131C397.678 302.429 392.503 298.407 387.373 291.175C383.338 285.487 379.415 277.853 376.328 269.645C373.111 261.104 373.353 255.97 373.546 251.845C373.677 248.972 373.784 246.719 372.832 243.858C372.109 241.703 369.08 238.822 365.567 235.486C357.769 228.073 347.098 217.924 345.637 202.004C344.406 188.575 348.309 177.276 351.441 168.198C353.698 161.631 355.652 155.971 354.921 151.6C354.297 147.845 352.984 145.173 351.716 142.571C349.298 137.646 347.02 133.016 349.861 122.83C350.468 120.663 347.226 111.437 335.964 95.89C325.761 81.8004 314.79 70.7437 306.623 66.3071C306.253 66.1074 305.973 65.7734 305.842 65.3738C305.711 64.9742 305.739 64.5395 305.919 64.1595C306.099 63.7794 306.418 63.483 306.81 63.3312C307.202 63.1794 307.638 63.184 308.027 63.3439C317.201 67.336 325.878 72.384 333.883 78.3857C345.005 86.7254 356.095 99.2021 359.386 103.011C360.88 101.78 363.314 98.9477 362.128 93.9816C362.034 93.5767 362.097 93.1512 362.304 92.7909C362.512 92.4307 362.848 92.1626 363.246 92.0407C363.643 91.9188 364.072 91.9522 364.446 92.1342C364.82 92.3162 365.11 92.6332 365.259 93.0212C365.28 93.0787 367.459 98.8204 369.076 101.574C369.897 102.97 369.934 102.966 371.789 102.613C373.723 102.189 375.713 102.077 377.683 102.28C391.694 103.741 396.349 112.816 397.793 120.17C399.324 128.018 397.026 132.996 395.179 136.998C393.16 141.373 391.826 144.262 395.241 149.487C399.345 155.795 406.01 158.356 414.432 161.598C420.177 163.818 426.744 166.33 433.442 170.549C440.924 175.257 452.465 186.01 460.353 200.834C466.469 212.326 472.063 229.719 463.957 247.256C455.338 265.943 447.13 267.059 439.915 268.044C435.133 268.693 431.004 269.275 426.982 275.292C423.568 280.41 421.306 285.142 419.307 289.324C415.47 297.327 412.626 303.299 405.066 303.299ZM321.989 74.3185C328.056 80.4138 333.619 86.9911 338.623 93.9857C341.361 97.7657 354.917 116.969 353.025 123.737C350.517 132.717 352.348 136.435 354.667 141.151C355.976 143.815 357.461 146.835 358.167 151.067C359.029 156.263 356.936 162.292 354.548 169.273C347.755 188.973 348.391 196.044 348.908 201.716C350.246 216.401 360.4 226.062 367.833 233.113C371.822 236.902 374.97 239.894 375.951 242.828C377.096 246.271 376.965 249.058 376.829 252.009C376.64 256.027 376.419 260.587 379.407 268.496C384.553 282.175 393.882 298.604 403.211 299.897C409.88 300.816 412.055 296.896 416.344 287.933C418.29 283.87 420.707 278.809 424.249 273.494C429.096 266.226 434.37 265.508 439.471 264.814C446.169 263.899 453.097 262.955 460.977 245.906C468.517 229.592 463.222 213.245 457.456 202.402C450.356 189.059 439.397 178.187 431.694 173.357C425.254 169.306 418.876 166.851 413.25 164.684C404.631 161.368 397.19 158.503 392.491 151.309C388.083 144.562 390.082 140.228 392.195 135.647C394.017 131.707 395.889 127.632 394.572 120.827C392.77 111.584 387.139 106.594 377.354 105.576C375.708 105.409 374.045 105.507 372.429 105.867C370.291 106.278 368.268 106.655 366.273 103.269C365.863 102.559 365.411 101.689 364.98 100.778C364.022 103.287 362.208 105.377 359.858 106.68C359.527 106.848 359.149 106.899 358.785 106.825C358.421 106.75 358.094 106.554 357.855 106.27C357.724 106.114 344.611 90.5423 331.938 81.037C328.506 78.4637 325.121 76.2269 321.989 74.3185Z" fill="white"/>
<path d="M418.437 303.147C412.815 303.147 410.229 298.308 409.663 295.76C409.608 295.547 409.596 295.325 409.628 295.108C409.66 294.89 409.736 294.681 409.851 294.493C409.965 294.306 410.116 294.143 410.295 294.015C410.474 293.887 410.676 293.796 410.891 293.747C411.105 293.699 411.327 293.694 411.544 293.733C411.76 293.772 411.966 293.854 412.15 293.975C412.335 294.095 412.492 294.251 412.615 294.434C412.738 294.616 412.822 294.821 412.864 295.037C412.909 295.23 414.054 299.876 418.437 299.876C422.172 299.876 424.799 290.067 426.535 283.579C426.876 282.306 427.196 281.116 427.52 279.975C429.937 271.512 436.701 265.282 436.988 265.024C437.147 264.874 437.334 264.757 437.538 264.68C437.742 264.604 437.959 264.568 438.177 264.576C438.395 264.584 438.609 264.636 438.806 264.728C439.004 264.819 439.182 264.95 439.329 265.111C439.476 265.272 439.589 265.46 439.662 265.666C439.735 265.871 439.767 266.089 439.755 266.307C439.743 266.524 439.688 266.738 439.593 266.934C439.497 267.13 439.364 267.305 439.2 267.449C439.09 267.552 432.823 273.359 430.676 280.878C430.36 281.982 430.044 283.168 429.708 284.428C427.356 293.195 424.692 303.147 418.437 303.147Z" fill="white"/>
<path d="M371.17 355.061C370.815 355.061 370.471 354.946 370.187 354.734C369.903 354.522 369.696 354.224 369.595 353.884C369.495 353.544 369.508 353.181 369.631 352.848C369.754 352.516 369.982 352.233 370.279 352.04C370.443 351.934 371.831 351.051 374.047 349.857C375.927 348.716 378.328 347.193 380.753 345.461C387.299 340.783 391.219 336.584 391.785 333.641C393.328 325.597 391.785 300.123 391.756 299.864C391.743 299.648 391.773 299.432 391.843 299.228C391.913 299.024 392.023 298.835 392.166 298.674C392.309 298.512 392.483 298.38 392.677 298.285C392.871 298.191 393.082 298.135 393.298 298.122C393.513 298.109 393.729 298.138 393.933 298.208C394.138 298.279 394.326 298.388 394.488 298.532C394.65 298.675 394.782 298.848 394.876 299.042C394.971 299.236 395.027 299.447 395.04 299.663C395.105 300.726 396.636 325.811 395.011 334.261C394.395 337.483 391.465 340.926 387.882 344.066C390.298 343.347 392.769 342.829 395.27 342.519C398.922 342.108 402.132 342.149 404.857 342.699L399.595 336.133C399.368 335.849 399.241 335.499 399.234 335.135L398.647 302.224C398.64 301.789 398.805 301.369 399.106 301.056C399.408 300.743 399.821 300.562 400.256 300.554L400.289 300.554C400.719 300.553 401.133 300.722 401.44 301.024C401.747 301.326 401.923 301.736 401.931 302.166L402.513 334.52L411.793 346.094C412.165 346.458 412.484 346.872 412.741 347.325C412.929 347.686 412.976 348.104 412.873 348.498C412.77 348.892 412.525 349.233 412.184 349.456C411.843 349.679 411.432 349.768 411.03 349.704C410.628 349.641 410.264 349.431 410.008 349.114L409.343 348.293C408.149 347.148 404.512 344.735 395.66 345.786C388.046 346.689 380.269 350.3 375.824 352.66C373.907 353.813 372.479 354.597 371.97 354.868C371.725 355.001 371.449 355.068 371.17 355.061Z" fill="white"/>
<path d="M394.383 349.734C394.028 349.734 393.682 349.62 393.398 349.407C393.113 349.194 392.905 348.895 392.806 348.554C392.706 348.213 392.719 347.849 392.844 347.516C392.968 347.184 393.197 346.9 393.497 346.709C393.644 346.615 394.884 345.823 396.866 344.755C398.541 343.742 400.683 342.383 402.842 340.836C410.681 335.238 412.335 331.893 412.622 330.395C413.997 323.233 412.622 300.504 412.593 300.274C412.58 300.059 412.61 299.843 412.68 299.638C412.75 299.434 412.86 299.246 413.003 299.084C413.146 298.922 413.32 298.79 413.514 298.696C413.708 298.601 413.919 298.545 414.134 298.532C414.35 298.519 414.566 298.548 414.77 298.619C414.975 298.689 415.163 298.799 415.325 298.942C415.487 299.085 415.619 299.259 415.713 299.453C415.808 299.647 415.863 299.858 415.877 300.073C415.934 301.025 417.301 323.467 415.848 331.015C415.323 333.756 412.955 336.67 409.987 339.363C411.917 338.822 413.884 338.427 415.873 338.181C418.575 337.812 421.316 337.835 424.011 338.25L419.62 332.767C419.391 332.485 419.263 332.133 419.259 331.77L418.729 302.376C418.725 302.16 418.764 301.946 418.843 301.745C418.922 301.545 419.04 301.361 419.19 301.206C419.339 301.051 419.518 300.927 419.716 300.841C419.914 300.755 420.126 300.709 420.342 300.705L420.371 300.705C420.801 300.705 421.214 300.874 421.522 301.176C421.829 301.478 422.005 301.888 422.012 302.318L422.53 331.15L430.697 341.337C431.071 341.699 431.391 342.113 431.645 342.568C431.833 342.929 431.88 343.347 431.777 343.741C431.674 344.135 431.428 344.476 431.088 344.699C430.747 344.922 430.336 345.011 429.934 344.948C429.532 344.884 429.167 344.674 428.912 344.357L428.214 343.487C426.786 342.178 423.121 340.614 416.258 341.435C409.482 342.235 402.563 345.445 398.61 347.555C396.903 348.585 395.627 349.282 395.175 349.529C394.932 349.661 394.66 349.732 394.383 349.734Z" fill="white"/>
<path d="M366.249 125.403C368.595 125.403 370.497 123.502 370.497 121.156C370.497 118.81 368.595 116.908 366.249 116.908C363.903 116.908 362.001 118.81 362.001 121.156C362.001 123.502 363.903 125.403 366.249 125.403Z" fill="white"/>
<path d="M396.16 229.682C394.212 229.623 392.298 229.152 390.546 228.299C386.166 226.342 382.793 219.68 380.515 208.46C379.488 203.253 378.783 197.989 378.405 192.695C378.392 192.48 378.422 192.264 378.492 192.06C378.562 191.855 378.672 191.667 378.815 191.505C378.958 191.343 379.132 191.211 379.326 191.117C379.52 191.022 379.731 190.966 379.947 190.953C380.162 190.94 380.378 190.969 380.582 191.04C380.787 191.11 380.975 191.22 381.137 191.363C381.299 191.506 381.431 191.68 381.525 191.874C381.62 192.068 381.676 192.279 381.689 192.494C382.065 197.646 382.75 202.77 383.741 207.84C385.735 217.645 388.629 223.846 391.884 225.303C398.11 228.086 400.092 225.467 404.5 219.734C405.616 218.277 406.876 216.627 408.337 214.948C408.472 214.766 408.643 214.613 408.84 214.5C409.037 214.387 409.255 214.316 409.481 214.291C409.707 214.267 409.935 214.29 410.152 214.358C410.368 214.426 410.568 214.539 410.739 214.688C410.91 214.838 411.048 215.021 411.144 215.226C411.241 215.432 411.293 215.655 411.299 215.882C411.305 216.109 411.263 216.335 411.177 216.545C411.091 216.755 410.963 216.945 410.8 217.103C409.404 218.704 408.231 220.243 407.106 221.728C403.905 225.919 401.024 229.682 396.16 229.682Z" fill="white"/>
</svg>
