<svg width="25" height="26" viewBox="0 0 25 26" fill="none" xmlns="http://www.w3.org/2000/svg">
<rect x="0.5" y="0.5" width="24" height="24.3376" rx="12" stroke="#5E5E5E"/>
<path fill-rule="evenodd" clip-rule="evenodd" d="M10.7517 9.98327L13.1273 9.98327L13.1273 11.1924C13.4702 10.4973 14.3474 9.87174 15.6656 9.87174C18.1928 9.87174 18.7917 11.2562 18.7917 13.7965L18.7917 18.502L16.2342 18.502L16.2342 14.3752C16.2342 12.9284 15.8913 12.1121 15.0205 12.1121C13.8123 12.1121 13.3099 12.9923 13.3099 14.3752L13.3099 18.502L10.7517 18.502L10.7517 9.98327ZM6.36564 18.3912L8.92389 18.3912L8.92389 9.87174L6.36564 9.87174L6.36564 18.3904L6.36564 18.3912ZM9.28993 7.09306C9.29475 7.31506 9.25578 7.5358 9.17529 7.74232C9.0948 7.94884 8.97441 8.13699 8.82121 8.29572C8.668 8.45446 8.48505 8.58058 8.2831 8.66668C8.08115 8.75278 7.86426 8.79714 7.64516 8.79714C7.42607 8.79714 7.20918 8.75278 7.00723 8.66668C6.80528 8.58058 6.62233 8.45446 6.46912 8.29572C6.31591 8.13699 6.19553 7.94884 6.11504 7.74232C6.03455 7.5358 5.99558 7.31506 6.0004 7.09306C6.00987 6.65731 6.18731 6.24264 6.49473 5.93786C6.80216 5.63307 7.21511 5.4624 7.64516 5.4624C8.07522 5.4624 8.48817 5.63307 8.79559 5.93786C9.10302 6.24264 9.28046 6.65731 9.28993 7.09306Z" fill="#5E5E5E"/>
</svg>
