<svg width="68" height="68" viewBox="0 0 68 68" fill="none" xmlns="http://www.w3.org/2000/svg">
<g clip-path="url(#clip0_1_1220)">
<path d="M37.3653 57.3059H65.2559C65.4246 57.3032 65.5909 57.2654 65.7442 57.1947C65.8975 57.1241 66.0344 57.0223 66.1461 56.8959C66.2578 56.7694 66.342 56.621 66.3931 56.4602C66.4443 56.2994 66.4614 56.1297 66.4432 55.9619C66.0687 53.3774 66.1776 52.7398 65.1576 52.5938H37.0013C37.066 52.7956 37.1132 53.0027 37.1421 53.2126L37.4954 55.6325C37.5785 56.1935 37.5312 56.7661 37.3573 57.3059H37.3653ZM38.9404 68H66.9134C67.075 67.9948 67.2335 67.9547 67.3781 67.8823C67.5227 67.81 67.6498 67.7071 67.7508 67.5809C67.8518 67.4546 67.9242 67.308 67.9631 67.1511C68.0019 66.9942 68.0063 66.8307 67.9759 66.6719L67.5535 63.75C67.5166 63.5291 67.4152 63.324 67.2621 63.1604C67.109 62.9969 66.911 62.8823 66.6929 62.8309C65.0992 62.3927 64.3023 60.86 64.467 59.4124H35.6785C35.619 59.4797 35.5768 59.5605 35.5556 59.6478C35.5343 59.7352 35.5347 59.8263 35.5567 59.9135C35.5787 60.0006 35.6216 60.0811 35.6817 60.1479C35.7418 60.2147 35.8173 60.2658 35.9017 60.2969C36.6132 60.4939 37.2515 60.8949 37.7377 61.4505C38.2239 62.0061 38.5367 62.6919 38.6376 63.4233L39.0626 66.3452C39.1446 66.8937 39.1029 67.4537 38.9404 67.984V68ZM62.6528 50.4688L59.2528 24.5199H37.9151L34.5603 50.1234C34.8284 50.2091 35.0859 50.325 35.3279 50.4688H62.6528ZM58.9685 22.3949C62.4801 22.3949 62.4562 16.5511 58.9473 16.5511H38.2153C34.7063 16.5511 34.6824 22.3949 38.194 22.3949H58.9685ZM59.6406 14.4261C60.3604 13.2706 61.8134 12.8323 62.6262 12.6358C62.863 12.5863 63.0751 12.4558 63.2259 12.2666C63.3767 12.0775 63.4568 11.8417 63.4523 11.5999L63.1867 0H57.6085V5.33108H52.296V0H44.8585V5.33108H39.546V0H33.9679L33.7023 11.5999C33.6983 11.8416 33.7786 12.0771 33.9293 12.2662C34.08 12.4552 34.2918 12.5858 34.5284 12.6358C35.3412 12.819 36.7942 13.2706 37.514 14.4261H59.6406Z" fill="#008BAD"/>
<path fill-rule="evenodd" clip-rule="evenodd" d="M33.4319 52.5938C33.7027 52.5996 33.9623 52.703 34.163 52.8851C34.3636 53.0672 34.4916 53.3156 34.5236 53.5846L34.8769 56.0071C34.9059 56.223 34.8711 56.4427 34.7766 56.6391C34.6822 56.8355 34.5324 56.9999 34.3456 57.1121C33.893 57.405 33.522 57.8078 33.2675 58.2831C33.0129 58.7583 32.883 59.2903 32.89 59.8294C32.8891 60.5203 33.1157 61.1923 33.5348 61.7415C33.9539 62.2908 34.5423 62.6867 35.2089 62.8682C35.4199 62.9311 35.6078 63.0544 35.7494 63.2229C35.891 63.3914 35.9802 63.5978 36.0058 63.8165L36.4334 66.7383C36.4559 66.8939 36.4447 67.0524 36.4005 67.2032C36.3564 67.354 36.2804 67.4936 36.1776 67.6125C36.0748 67.7314 35.9477 67.8267 35.8049 67.8922C35.6621 67.9577 35.5068 67.9918 35.3497 67.9921H3.47469C3.31295 67.9873 3.15418 67.9475 3.00938 67.8753C2.86458 67.8031 2.73722 67.7002 2.63614 67.5739C2.53505 67.4475 2.46267 67.3007 2.424 67.1435C2.38532 66.9864 2.3813 66.8228 2.41219 66.6639L2.83453 63.766C2.87246 63.5455 2.97419 63.3409 3.12715 63.1775C3.2801 63.0142 3.47757 62.8992 3.69515 62.8469C4.34951 62.6587 4.92413 62.2612 5.33097 61.7152C5.73781 61.1693 5.95443 60.505 5.94766 59.8241C5.95085 59.2792 5.81613 58.7424 5.55605 58.2636C5.29597 57.7847 4.91897 57.3795 4.46015 57.0855C4.27801 56.9702 4.13349 56.8042 4.04432 56.6079C3.95514 56.4116 3.9252 56.1936 3.95813 55.9805L4.31406 53.5315C4.3517 53.2707 4.48191 53.0322 4.6809 52.8596C4.87989 52.6869 5.13437 52.5916 5.39782 52.5911L33.4319 52.5938ZM10.6944 50.4688C11.3664 46.5296 8.91469 43.095 3.65 43.6236C3.57031 35.5327 -1.6386 31.5244 0.526245 21.8637C2.9514 11.0527 13.2497 9.23849 19.197 9.60506C19.4493 9.62128 19.6859 9.73306 19.8586 9.91763C20.0314 10.1022 20.1272 10.3457 20.1267 10.5985V13.6771C24.985 14.0171 25.155 18.5061 32.6934 22.3205C32.8151 22.3844 32.9222 22.473 33.0077 22.5806C33.0932 22.6883 33.1553 22.8126 33.1901 22.9455C33.2248 23.0785 33.2314 23.2173 33.2095 23.353C33.1875 23.4887 33.1375 23.6184 33.0626 23.7336L29.9601 28.5919C29.8563 28.7757 29.6928 28.9186 29.4967 28.9968C29.3005 29.0751 29.0836 29.084 28.8817 29.0222C23.0698 26.8494 21.0431 27.0832 17.8636 26.0021C17.5661 26.8972 17.5395 27.888 18.8384 28.7991C25.1152 33.2032 29.8034 36.0852 32.1197 46.3171C32.3242 47.2096 31.793 48.7236 30.1408 50.4688H10.6944ZM15.0772 14.2402C10.0516 15.4993 7.02875 18.3388 6.1575 23.1519C5.07109 29.1524 7.95844 33.6601 6.87469 38.9938C5.81219 32.4408 3.51187 28.4007 4.55843 22.711C5.44827 17.8872 10.0755 14.211 15.0772 14.2402Z" fill="#008BAD"/>
</g>
<defs>
<clipPath id="clip0_1_1220">
<rect width="68" height="68" fill="white"/>
</clipPath>
</defs>
</svg>
