<svg width="432" height="302" viewBox="0 0 432 302" fill="none" xmlns="http://www.w3.org/2000/svg">
<path d="M74.8383 52.3716C74.7019 52.3717 74.5661 52.3543 74.4342 52.3199C63.1987 49.4376 54.6007 46.323 48.8989 43.0598C48.7144 42.9549 48.5525 42.8148 48.4223 42.6474C48.2921 42.48 48.1962 42.2887 48.14 42.0842C48.0839 41.8798 48.0687 41.6664 48.0952 41.4561C48.1217 41.2458 48.1893 41.0428 48.2944 40.8586C48.5071 40.4872 48.8588 40.2153 49.2722 40.1027C49.6855 39.9901 50.1268 40.0461 50.4989 40.2583C55.9712 43.3762 64.2977 46.3908 75.2552 49.1956C75.67 49.302 76.0255 49.5684 76.2436 49.9364C76.4618 50.3043 76.5248 50.7437 76.4189 51.158C76.3292 51.5076 76.1249 51.8172 75.8383 52.0372C75.5518 52.2572 75.1997 52.3749 74.8383 52.3716Z" fill="white"/>
<path d="M131.504 62.2062H131.41C131.216 62.2062 111.825 61.0119 86.4807 55.1344C86.0632 55.0376 85.7013 54.7793 85.4746 54.4161C85.2479 54.0529 85.175 53.6147 85.2718 53.1978C85.3687 52.781 85.6275 52.4196 85.9911 52.1933C86.3548 51.9669 86.7937 51.894 87.2112 51.9907C112.275 57.8004 131.41 58.9721 131.601 58.985C132.028 59.01 132.429 59.2035 132.714 59.523C132.998 59.8426 133.145 60.2621 133.12 60.6892C133.095 61.1002 132.914 61.4862 132.614 61.7682C132.313 62.0502 131.916 62.2069 131.504 62.2062Z" fill="white"/>
<path d="M54.1542 234.788C54.061 234.788 53.968 234.781 53.8762 234.765C53.5268 234.704 53.2071 234.53 52.9665 234.27C52.7258 234.01 52.5775 233.678 52.5445 233.326L50.3529 210.087C50.3368 209.96 50.3368 209.832 50.3529 209.706L74.0168 45.0997C74.0469 44.8899 74.1181 44.688 74.2264 44.5057C74.3346 44.3234 74.4778 44.1641 74.6476 44.037C74.8175 43.9099 75.0108 43.8175 75.2165 43.7651C75.4222 43.7126 75.6362 43.7011 75.8463 43.7312C76.0564 43.7613 76.2586 43.8324 76.4412 43.9404C76.6238 44.0485 76.7832 44.1915 76.9105 44.3611C77.0378 44.5308 77.1303 44.7238 77.1829 44.9292C77.2354 45.1345 77.2469 45.3482 77.2168 45.558L53.5885 209.958L55.2047 227.138L62.6681 211.274L85.2394 53.314C85.3003 52.8909 85.5267 52.5092 85.8691 52.2526C86.2115 51.9961 86.6419 51.8856 87.0657 51.9455C87.49 52.0055 87.8731 52.2313 88.1307 52.5733C88.3883 52.9153 88.4994 53.3454 88.4394 53.7691L65.839 211.968C65.8154 212.127 65.7686 212.282 65.7 212.427L55.6184 233.858C55.4881 234.136 55.2812 234.371 55.0218 234.536C54.7625 234.7 54.4615 234.788 54.1542 234.788Z" fill="white"/>
<path d="M86.8425 55.1603C86.766 55.165 86.6894 55.165 86.613 55.1603C86.4029 55.1302 86.2007 55.0591 86.0181 54.951C85.8355 54.8429 85.676 54.7 85.5487 54.5303C85.4215 54.3607 85.3289 54.1677 85.2764 53.9623C85.2238 53.7569 85.2123 53.5432 85.2425 53.3334L85.3168 52.8073C85.3469 52.5975 85.4181 52.3956 85.5264 52.2133C85.6346 52.031 85.7778 51.8717 85.9477 51.7446C86.1176 51.6176 86.3108 51.5251 86.5165 51.4727C86.7222 51.4202 86.9362 51.4087 87.1463 51.4388C87.5701 51.4996 87.9523 51.7257 88.2093 52.0676C88.4662 52.4095 88.5768 52.8392 88.5168 53.2624L88.4425 53.7885C88.3844 54.1706 88.191 54.5191 87.8974 54.7709C87.6038 55.0226 87.2295 55.1608 86.8425 55.1603Z" fill="white"/>
<path d="M86.9204 54.6342C86.8429 54.639 86.7652 54.639 86.6877 54.6342C86.4776 54.6041 86.2754 54.533 86.0928 54.4249C85.9102 54.3168 85.7507 54.1739 85.6235 54.0042C85.4962 53.8346 85.4036 53.6416 85.3511 53.4362C85.2985 53.2308 85.287 53.0171 85.3172 52.8073L86.2319 46.4037C86.2616 46.1936 86.3326 45.9914 86.4406 45.8087C86.5487 45.626 86.6918 45.4664 86.8618 45.3389C87.0317 45.2115 87.2251 45.1188 87.431 45.0662C87.6368 45.0135 87.8511 45.0018 88.0614 45.0319C88.2715 45.062 88.4737 45.1331 88.6563 45.2412C88.8389 45.3493 88.9984 45.4922 89.1257 45.6619C89.2529 45.8315 89.3455 46.0245 89.398 46.2299C89.4506 46.4353 89.4621 46.649 89.4319 46.8588L88.5172 53.2624C88.4592 53.6439 88.2663 53.9921 87.9733 54.2437C87.6804 54.4954 87.3068 54.6339 86.9204 54.6342Z" fill="white"/>
<path d="M89.7293 36.0108C89.6515 36.0102 89.5737 36.0048 89.4966 35.9946C89.2865 35.9645 89.0843 35.8934 88.9017 35.7854C88.7191 35.6773 88.5597 35.5343 88.4324 35.3647C88.3051 35.195 88.2126 35.002 88.16 34.7967C88.1075 34.5913 88.0959 34.3776 88.1261 34.1678L92.3475 4.79631L83.2679 3.44716L78.8429 34.2485C78.8128 34.4583 78.7416 34.6601 78.6333 34.8425C78.5251 35.0248 78.3819 35.1841 78.212 35.3111C78.0421 35.4382 77.8488 35.5306 77.6432 35.5831C77.4375 35.6356 77.2235 35.6471 77.0134 35.617C76.8032 35.5869 76.6011 35.5158 76.4185 35.4077C76.2359 35.2996 76.0764 35.1567 75.9492 34.987C75.8219 34.8174 75.7293 34.6244 75.6768 34.419C75.6242 34.2136 75.6127 34 75.6429 33.7901L80.3006 1.3847C80.3324 1.17325 80.4059 0.970204 80.5168 0.787356C80.6278 0.604508 80.7741 0.445507 80.9471 0.319582C81.1179 0.193004 81.312 0.10133 81.5184 0.0498209C81.7247 -0.00168872 81.9392 -0.0120287 82.1495 0.0194042L94.4323 1.83979C94.8549 1.90282 95.2354 2.1304 95.4904 2.47274C95.7454 2.81509 95.8543 3.24435 95.7932 3.66664L91.3423 34.6261C91.2867 35.0127 91.0927 35.3661 90.7961 35.6207C90.4995 35.8753 90.1205 36.0139 89.7293 36.0108Z" fill="white"/>
<path d="M202.402 259.983C197.876 255.787 195.355 249.716 195.097 242.46C194.971 239.194 195.297 235.927 196.066 232.751L199.186 233.597C199.144 233.748 195.19 248.854 204.609 257.623L202.402 259.983Z" fill="white"/>
<path d="M152.853 209.193C144.323 198.503 141.74 194.907 143.137 191.495C143.376 190.908 144.032 189.882 145.7 189.688C151.819 188.939 162.563 196.54 168.003 200.775L167.205 195.014C167.134 194.527 167.217 194.031 167.442 193.594C167.666 193.156 168.022 192.8 168.459 192.573C168.892 192.341 169.388 192.249 169.876 192.31C170.364 192.371 170.821 192.583 171.184 192.916C174.397 195.82 180.043 201.575 181.757 207.398C182.536 210.058 184.439 215.086 188.402 218.908C192.469 222.833 197.624 224.395 203.72 223.591C217.639 221.725 225.086 207.275 225.16 207.13L228.047 208.579C227.724 209.225 219.785 224.698 204.15 226.793C197.023 227.761 190.969 225.876 186.156 221.232C181.66 216.894 179.526 211.274 178.654 208.321C177.412 204.093 173.482 199.652 170.734 196.95L172.351 208.57L169.118 205.839C164.593 202.021 151.699 192.26 146.117 192.899C146.149 193.419 145.894 195.946 148.855 200.262C151.221 203.686 155.416 212.401 152.853 209.193Z" fill="white"/>
<path d="M52.8418 219.26L60.1372 220.46L55.2822 230.776L52.8418 219.26Z" fill="white"/>
<path d="M64.2393 213.36C64.1307 213.361 64.0223 213.35 63.9161 213.327L51.7141 210.974C51.5045 210.936 51.3046 210.856 51.126 210.74C50.9474 210.623 50.7936 210.473 50.6734 210.297C50.5532 210.121 50.4691 209.924 50.4258 209.715C50.3825 209.507 50.3809 209.292 50.4211 209.083C50.4599 208.874 50.5398 208.674 50.6562 208.496C50.7725 208.317 50.9231 208.164 51.0991 208.044C51.2752 207.924 51.4733 207.84 51.682 207.796C51.8907 207.753 52.1059 207.752 52.3153 207.792L64.5173 210.148C64.7266 210.187 64.9261 210.266 65.1044 210.382C65.2828 210.498 65.4364 210.648 65.5566 210.824C65.6767 210.999 65.761 211.197 65.8045 211.405C65.848 211.613 65.85 211.827 65.8102 212.036C65.7427 212.404 65.5491 212.738 65.2626 212.979C64.976 213.221 64.6142 213.355 64.2393 213.36Z" fill="white"/>
<path d="M310.613 264.766C308.997 264.766 307.41 264.711 305.842 264.601C290.421 263.52 275.95 261.48 263.175 259.682C241.341 256.603 224.097 254.176 213.701 257.946C205.026 261.093 191.117 262.368 177.399 261.274C170.23 260.702 152.779 258.514 145.583 250.587L144.937 249.864L145.26 248.951C145.38 248.628 147.975 241.918 159.948 240.972C151.418 235.543 135.088 223.646 134.584 211.872C134.299 210.871 134.261 209.215 135.554 208.163C137.276 206.788 141 206.446 153.564 213.692C148.373 207.198 146.663 201.75 148.473 197.476L148.829 196.631L149.737 196.505C149.937 196.479 154.689 195.859 161.137 198.441C171.71 202.689 178.64 212.22 182.594 219.469L182.639 219.56C184.348 222.815 186.758 225.652 189.695 227.868C196.034 232.593 203.723 233.29 212.557 229.94C217.574 228.039 221.204 223.865 223.34 217.539C227.138 206.304 224.973 191.341 221.876 186.37C221.094 185.118 220.027 183.465 218.789 181.577C210.062 168.166 193.813 143.197 194.802 128.724L194.909 127.172C195.924 112.512 196.108 109.869 183.993 103.659C176.682 99.9082 172.357 94.7375 167.802 89.2634C163.542 84.1573 159.137 78.8769 151.696 73.6643C150.872 73.1188 119.628 52.6459 89.2279 48.4113C81.7936 47.3752 74.8829 46.4521 68.7997 45.6355C58.8538 44.3057 50.9993 43.2535 45.4914 42.3465C37.4752 41.0264 35.6328 40.2938 35.6328 38.4282C35.6374 38.1191 35.7068 37.8143 35.8365 37.5336C35.9662 37.2529 36.1534 37.0024 36.3859 36.7982C37.1067 36.1334 39.295 34.1064 63.8962 33.3898C77.3298 32.9993 92.3407 33.2059 101.259 33.903C117.217 35.1521 150.151 37.234 158.862 37.7762C157.782 33.2833 154.799 22.2836 149.569 13.3624L143.24 2.55304L152.106 11.4064C153.745 13.0428 166.681 26.1083 170.586 34.5389C173.217 31.6522 176.286 29.1961 179.681 27.2606C186.401 23.4068 197.705 19.766 213.381 24.3041C231.806 29.6297 237.992 42.6273 242.511 52.1166C245.475 58.3362 247.308 61.864 250.498 61.9673H250.747C275.6 62.7839 295.398 68.9003 307.636 73.887C322.935 80.126 336.539 88.6211 348.076 99.1335C362.211 112.015 373.346 128.05 381.175 146.793C390.771 169.777 397.95 203.109 377.619 231.357C369.538 242.576 357.934 251.652 344.029 257.607C333.178 262.284 321.48 264.766 310.613 264.766ZM227.649 252.804C237.511 252.804 249.648 254.515 263.634 256.484C276.347 258.278 290.76 260.309 306.068 261.38C327.166 262.862 357.743 253.511 375.02 229.494C394.472 202.453 387.491 170.28 378.207 148.055C370.56 129.751 359.696 114.1 345.913 101.538C334.661 91.2807 321.377 82.9889 306.43 76.8951C294.445 72.0085 275.038 66.0148 250.663 65.2143H250.411C245.1 65.0368 242.56 59.7015 239.615 53.5206C235.358 44.5865 229.53 32.3473 212.506 27.422C200.869 24.0523 190.406 24.9205 181.446 30.0041C174.739 33.8094 171.407 38.6929 171.374 38.7413L169.137 42.069L168.439 38.1248C167.777 34.3678 162.233 27.2961 157.087 21.4573C159.397 27.2185 161.215 33.1646 162.521 39.2319L162.928 41.2846L160.834 41.1556C160.423 41.1297 119.46 38.5734 101.036 37.1436C92.3084 36.4626 77.569 36.256 64.3358 36.6304C51.9496 36.9822 44.9807 37.7052 41.4736 38.3572C46.5968 39.4288 57.312 40.8618 69.2716 42.4595C75.358 43.2761 82.2591 44.1992 89.716 45.2385C121.115 49.6119 153.225 70.7981 153.545 71.0112L153.577 71.0305C161.38 76.4949 166.135 82.1949 170.327 87.2203C174.852 92.6621 178.786 97.3615 185.519 100.809C199.528 107.993 199.217 112.496 198.183 127.417L198.076 128.967C197.162 142.364 213.634 167.679 221.55 179.844C222.794 181.754 223.867 183.394 224.666 184.685C228.169 190.301 230.603 206.31 226.453 218.575C224.026 225.76 219.633 230.734 213.753 232.964C201.309 237.683 192.714 234.162 187.694 230.382C184.389 227.876 181.685 224.665 179.781 220.983C174.526 211.365 167.748 204.638 160.177 201.53C157.338 200.323 154.288 199.686 151.201 199.655C149.643 206.588 160.989 217.494 165.711 221.28L163.811 223.885C142.658 209.883 138.275 210.468 137.684 210.674C137.687 210.795 137.705 210.916 137.739 211.032L137.836 211.291V211.565C137.975 217.184 142.923 224.059 152.155 231.441C156.705 235.048 161.524 238.302 166.571 241.175L172.981 244.697L165.682 244.2C154.185 243.418 150.067 247.427 148.803 249.238C153.719 253.789 164.127 256.984 177.684 258.069C190.765 259.111 204.48 257.878 212.622 254.925C216.756 253.405 221.802 252.804 227.649 252.804Z" fill="white"/>
<path d="M189.669 51.6002C192.418 51.6002 194.647 49.3748 194.647 46.6296C194.647 43.8844 192.418 41.6591 189.669 41.6591C186.92 41.6591 184.691 43.8844 184.691 46.6296C184.691 49.3748 186.92 51.6002 189.669 51.6002Z" fill="white"/>
<path d="M155.084 39.7193C153.293 34.1097 146.308 28.1482 146.24 28.0998L143.383 25.6823L147.103 25.2659C154.273 24.459 159.8 30.1397 160.033 30.3818L157.699 32.6153C156.01 30.9864 153.989 29.7402 151.774 28.9616C154.117 31.4695 156.994 35.0941 158.164 38.7478L155.084 39.7193Z" fill="white"/>
<path d="M277.692 182.229C277.432 182.229 277.176 182.167 276.945 182.047C276.714 181.928 276.516 181.754 276.367 181.541C272.763 176.406 265.089 171.232 257.671 166.23C251.206 161.869 244.509 157.357 240.216 152.693C235.003 147.025 233.91 141.783 236.877 136.661C246.397 120.245 292.008 124.102 293.947 124.274C294.159 124.293 294.364 124.353 294.552 124.451C294.74 124.55 294.907 124.684 295.043 124.847C295.179 125.01 295.282 125.198 295.345 125.4C295.408 125.602 295.431 125.815 295.412 126.026C295.373 126.452 295.167 126.845 294.838 127.119C294.51 127.393 294.086 127.526 293.66 127.488C285.631 126.886 277.57 126.855 269.537 127.395C253.443 128.576 243.119 132.339 239.677 138.278C234.705 146.854 246.739 154.965 259.478 163.557C267.142 168.721 275.064 174.063 279.014 179.695C279.138 179.869 279.225 180.066 279.272 180.274C279.319 180.482 279.324 180.698 279.287 180.908C279.25 181.118 279.172 181.319 279.057 181.498C278.942 181.678 278.792 181.833 278.616 181.955C278.343 182.138 278.021 182.234 277.692 182.229Z" fill="white"/>
<path d="M158.85 77.2341C158.511 77.2342 158.181 77.1281 157.906 76.9307C157.733 76.8066 157.586 76.6497 157.474 76.4688C157.362 76.288 157.287 76.0868 157.253 75.8768C157.219 75.6669 157.227 75.4523 157.276 75.2454C157.325 75.0385 157.415 74.8434 157.54 74.6713C169.933 57.5197 159.654 40.5456 159.548 40.3777C159.436 40.1974 159.36 39.9968 159.326 39.7874C159.292 39.578 159.299 39.3639 159.348 39.1574C159.396 38.9508 159.485 38.7559 159.609 38.5837C159.734 38.4115 159.891 38.2654 160.071 38.1539C160.436 37.9289 160.875 37.8576 161.292 37.9557C161.709 38.0537 162.07 38.3131 162.295 38.6768C162.415 38.8672 165.253 43.4924 166.42 50.4705C167.499 56.9258 167.292 66.6926 160.162 76.5595C160.012 76.7679 159.815 76.9378 159.587 77.0551C159.359 77.1724 159.106 77.2338 158.85 77.2341Z" fill="white"/>
<path d="M67.9017 191.463L67.0063 188.362C106.858 176.894 159.221 170.51 214.449 170.393V173.621C159.522 173.737 107.475 180.073 67.9017 191.463Z" fill="white"/>
<path d="M216 302C158.584 302 104.582 295.299 63.945 283.131C22.7103 270.786 0 254.115 0 236.195C0 227.729 4.99717 219.547 14.8687 211.878C24.1325 204.667 37.4626 198.077 54.4937 192.28L55.5345 195.336C21.7988 206.804 3.23232 221.329 3.23232 236.195C3.23232 244.309 8.67232 252.272 19.3939 259.866C30.0606 267.406 45.3462 274.194 64.8662 280.039C105.212 292.12 158.885 298.759 215.994 298.759C273.102 298.759 326.778 292.107 367.124 280.039C386.644 274.194 401.943 267.406 412.596 259.866C423.324 252.272 428.758 244.309 428.758 236.195C428.758 229.74 425.27 223.33 418.392 217.133C411.513 210.936 401.484 205.135 388.512 199.826L389.737 196.84C417.38 208.137 431.99 221.761 431.99 236.195C431.99 254.115 409.28 270.786 368.045 283.131C327.421 295.299 273.419 302 216 302Z" fill="white"/>
</svg>
