<svg width="103" height="65" viewBox="0 0 103 65" fill="none" xmlns="http://www.w3.org/2000/svg">
<g clip-path="url(#clip0_917_4929)">
<path d="M90.0548 1.23502C89.1118 0.807928 88.239 0.468215 87.5004 0.21294C86.7945 -0.0289771 86.0344 -0.068224 85.3072 0.0997007C84.58 0.267625 83.9151 0.635925 83.3887 1.16237L79.3511 5.17706C80.9122 5.80113 82.4271 6.53409 83.8844 7.37047L90.0548 1.23502Z" fill="#008BAD"/>
<path d="M102.862 15.3303C102.634 14.4945 102.351 13.6745 102.015 12.8757L95.853 19.0023C96.6425 20.3289 97.3355 21.7099 97.9266 23.1349L101.848 19.1948C102.34 18.6934 102.691 18.0732 102.868 17.3953C103.045 16.7173 103.041 16.0052 102.857 15.3293L102.862 15.3303Z" fill="#008BAD"/>
<path d="M77.9212 6.59793L65.4055 19.0426H58.4569L58.5152 19.0897C59.2229 19.6519 59.7598 20.3984 60.066 21.2461C60.3721 22.0938 60.4355 23.0094 60.2491 23.8909L56.3438 42.6624C56.2551 43.09 56.0706 43.4921 55.804 43.8389C55.5374 44.1857 55.1955 44.4682 54.8038 44.6654C54.4122 44.8626 53.9808 44.9695 53.5419 44.978C53.103 44.9865 52.6678 44.8964 52.2687 44.7145C50.926 44.1016 49.7697 43.1475 48.9162 41.9485C48.0627 40.7494 47.5423 39.3477 47.4076 37.8849L46.5752 28.7264C46.5571 28.5249 46.4817 28.3328 46.3576 28.1726C46.2336 28.0123 46.0661 27.8906 45.8749 27.8217C45.6836 27.7529 45.4766 27.7397 45.2781 27.7837C45.0796 27.8278 44.8979 27.9273 44.7543 28.0705L34.8267 37.9379L28.0272 44.6988C27.8484 44.8753 27.6599 45.0418 27.4624 45.1975L26.1975 46.4552C25.5121 47.1368 25.127 48.0613 25.127 49.0252C25.127 49.9891 25.5121 50.9135 26.1975 51.5951C26.883 52.2767 27.8127 52.6596 28.7821 52.6596C29.7515 52.6596 30.6813 52.2767 31.3667 51.5951L34.2737 48.7046L35.3451 47.6393C35.5193 47.4687 35.7543 47.3734 35.9988 47.3744C36.2433 47.3753 36.4775 47.4724 36.6504 47.6443C36.8232 47.8163 36.9206 48.0493 36.9214 48.2924C36.9222 48.5356 36.8262 48.7692 36.6544 48.9422L35.7144 49.8769L35.7233 49.8848L33.1688 52.4248C32.4821 53.1049 32.0953 54.0284 32.0935 54.9922C32.0916 55.9559 32.4749 56.8809 33.1589 57.5637C33.843 58.2464 34.7718 58.631 35.741 58.6329C36.7102 58.6347 37.6405 58.2536 38.3271 57.5735L42.1643 53.7571H42.1702C42.3451 53.5889 42.5796 53.4959 42.8229 53.4984C43.0663 53.5009 43.2988 53.5985 43.4702 53.7703C43.6416 53.942 43.7381 54.174 43.7387 54.4159C43.7394 54.6579 43.6441 54.8903 43.4736 55.0629L42.8486 55.6835L42.8782 55.707L41.9174 56.6623C41.2449 57.3435 40.869 58.2605 40.871 59.215C40.8731 60.1696 41.2529 61.085 41.9283 61.7633C42.6037 62.4416 43.5206 62.8283 44.4805 62.8398C45.4404 62.8513 46.3663 62.4867 47.058 61.8248L51.692 57.2181C51.692 57.2181 51.7029 57.2122 51.7068 57.2073C51.8827 57.0407 52.1174 56.9498 52.3602 56.9539C52.603 56.9581 52.8344 57.0572 53.0044 57.2296C53.1743 57.4021 53.2692 57.6341 53.2684 57.8756C53.2677 58.1171 53.1714 58.3485 53.0004 58.52L51.934 59.5803L51.9567 59.5862L50.8754 60.6662C50.6902 60.8504 50.5432 61.0691 50.4429 61.3097C50.3427 61.5504 50.2911 61.8083 50.2911 62.0688C50.2911 62.3293 50.3427 62.5872 50.4429 62.8278C50.5432 63.0685 50.6902 63.2871 50.8754 63.4713C51.8284 64.4158 53.1071 64.9644 54.452 65.0058C55.797 65.0472 57.1073 64.5783 58.1173 63.6942L57.6393 63.219C56.882 62.4762 56.3768 61.5169 56.1939 60.475C56.0111 59.433 56.1599 58.3603 56.6195 57.4064C57.0791 56.4526 57.8266 55.6651 58.7578 55.1538C59.689 54.6426 60.7575 54.433 61.8142 54.5543C61.5831 53.7685 61.5478 52.9386 61.7113 52.1362C61.8748 51.3338 62.2322 50.583 62.7527 49.9486C63.2732 49.3142 63.9411 48.8153 64.6988 48.4949C65.4566 48.1745 66.2813 48.0423 67.1019 48.1096C66.8398 47.3445 66.7652 46.5283 66.8841 45.7288C67.003 44.9292 67.3121 44.1694 67.7856 43.5125C68.2591 42.8556 68.8835 42.3205 69.6068 41.9517C70.3301 41.5829 71.1314 41.391 71.9443 41.392C72.2304 41.3961 72.5158 41.4237 72.7974 41.4744C72.7341 41.1575 72.701 40.8353 72.6987 40.5122C72.6984 39.5024 72.9994 38.5151 73.5636 37.6754C74.1277 36.8356 74.9296 36.181 75.8679 35.7945C76.8062 35.4079 77.8387 35.3067 78.8348 35.5037C79.8309 35.7007 80.7459 36.187 81.4641 36.9011L82.8554 38.2845L96.5106 24.5605C92.0306 13.0309 82.5058 8.27587 77.9202 6.59302L77.9212 6.59793Z" fill="#008BAD"/>
<path d="M90.0261 11.8496L96.5491 5.36367C95.0932 4.1037 93.4993 3.0106 91.7976 2.10498L85.5027 8.36414C87.1065 9.39728 88.6197 10.5633 90.0261 11.8496Z" fill="#008BAD"/>
<path d="M94.8338 17.4089L101.172 11.1065C100.293 9.47228 99.1889 7.96749 97.8929 6.63525L91.3442 13.1458C92.6301 14.4648 93.7977 15.8929 94.8338 17.4138V17.4089Z" fill="#008BAD"/>
<path d="M64.0942 57.7982L63.7674 57.4723L63.5916 57.2975C62.9762 56.6856 62.1415 56.3418 61.2711 56.3418C60.4008 56.3418 59.5661 56.6856 58.9507 57.2975C58.3352 57.9094 57.9895 58.7394 57.9895 59.6048C57.9895 60.4702 58.3352 61.3002 58.9507 61.9121L59.6873 62.6445C60.3027 63.2565 61.1374 63.6003 62.0078 63.6003C62.8781 63.6003 63.7128 63.2565 64.3282 62.6445C64.9437 62.0326 65.2894 61.2027 65.2894 60.3372C65.2894 59.4718 64.9437 58.6419 64.3282 58.03L64.0942 57.7982Z" fill="#008BAD"/>
<path d="M69.6959 51.5117L69.0491 50.8676C68.4337 50.2556 67.599 49.9119 66.7287 49.9119C65.8583 49.9119 65.0236 50.2556 64.4082 50.8676C63.7928 51.4795 63.447 52.3095 63.447 53.1749C63.447 54.0403 63.7928 54.8703 64.4082 55.4822L66.0266 57.0914C66.3313 57.3944 66.6931 57.6348 67.0912 57.7988C67.4894 57.9627 67.9161 58.0471 68.3471 58.0471C68.778 58.0471 69.2047 57.9627 69.6029 57.7988C70.001 57.6348 70.3628 57.3944 70.6675 57.0914C70.9722 56.7884 71.214 56.4287 71.3789 56.0328C71.5438 55.6369 71.6287 55.2126 71.6287 54.7841C71.6287 54.3556 71.5438 53.9313 71.3789 53.5354C71.214 53.1395 70.9722 52.7798 70.6675 52.4768L69.6959 51.5117Z" fill="#008BAD"/>
<path d="M75.6382 45.545L74.2657 44.1862C73.6502 43.5743 72.8155 43.2305 71.9452 43.2305C71.0749 43.2305 70.2402 43.5743 69.6247 44.1862C69.0093 44.7981 68.6636 45.6281 68.6636 46.4935C68.6636 47.3589 69.0093 48.1889 69.6247 48.8008L71.017 50.1852L72.748 51.9063C73.0527 52.2093 73.4145 52.4497 73.8126 52.6137C74.2108 52.7776 74.6375 52.862 75.0685 52.862C75.4994 52.862 75.9261 52.7776 76.3243 52.6137C76.7224 52.4497 77.0842 52.2093 77.3889 51.9063C77.6936 51.6033 77.9354 51.2436 78.1003 50.8477C78.2652 50.4518 78.3501 50.0275 78.3501 49.599C78.3501 49.1705 78.2652 48.7462 78.1003 48.3503C77.9354 47.9544 77.6936 47.5947 77.3889 47.2917L75.6382 45.545Z" fill="#008BAD"/>
<path d="M81.554 39.5933L80.1558 38.203C79.5404 37.5911 78.7057 37.2473 77.8353 37.2473C76.965 37.2473 76.1303 37.5911 75.5149 38.203C74.8995 38.815 74.5537 39.6449 74.5537 40.5103C74.5537 41.3757 74.8995 42.2057 75.5149 42.8176L78.6371 45.9231C78.9419 46.2261 79.3036 46.4665 79.7018 46.6305C80.0999 46.7945 80.5267 46.8789 80.9576 46.8789C81.3886 46.8789 81.8153 46.7945 82.2134 46.6305C82.6116 46.4665 82.9733 46.2261 83.2781 45.9231C83.5828 45.6201 83.8245 45.2604 83.9894 44.8645C84.1544 44.4687 84.2392 44.0444 84.2392 43.6158C84.2392 43.1873 84.1544 42.763 83.9894 42.3671C83.8245 41.9713 83.5828 41.6116 83.2781 41.3086L81.554 39.5933Z" fill="#008BAD"/>
<path d="M43.448 26.7627C43.8405 26.3721 44.3369 26.1008 44.8789 25.9808C45.421 25.8608 45.9862 25.8969 46.5083 26.085C47.0304 26.2731 47.4877 26.6054 47.8266 27.0428C48.1655 27.4802 48.372 28.0046 48.4217 28.5545L49.2541 37.7169C49.3593 38.8565 49.7647 39.9483 50.4296 40.8824C51.0944 41.8165 51.9951 42.5598 53.041 43.0375C53.1871 43.1041 53.3465 43.1371 53.5073 43.1341C53.668 43.131 53.826 43.0919 53.9695 43.0197C54.113 42.9476 54.2383 42.8441 54.336 42.7172C54.4337 42.5902 54.5014 42.4429 54.5339 42.2864L58.4422 23.5227C58.5576 22.9726 58.5172 22.4015 58.3254 21.8729C58.1336 21.3444 57.798 20.8792 57.356 20.5291L55.5016 19.0475L53.662 17.5747C53.3372 17.3362 44.9726 11.3175 34.3321 16.9582L33.7238 17.2802L24.4943 8.00977C22.0404 9.17762 19.7212 10.6067 17.5773 12.2719C18.1584 13.2213 18.4091 14.3345 18.2905 15.4396C18.1719 16.5447 17.6907 17.5803 16.9212 18.3864C16.1518 19.1925 15.1368 19.7243 14.033 19.8997C12.9293 20.0751 11.7982 19.8843 10.8144 19.3568C10.7848 19.398 10.7522 19.4422 10.7236 19.4844C8.21449 23.1378 7.34357 26.1304 7.20435 26.6517L15.9974 35.3959L16.0419 35.6963C16.4951 38.7223 17.6297 41.2613 19.4139 43.2466C19.863 43.7475 20.4109 44.1511 21.0237 44.4322C21.6365 44.7133 22.3009 44.8658 22.9756 44.8804C23.6682 44.8962 24.3569 44.7731 25.0006 44.5184C25.6443 44.2636 26.2297 43.8825 26.7219 43.3978L43.448 26.7627Z" fill="#008BAD"/>
<path d="M8.13543 14.9012C8.13435 13.9573 8.39902 13.0319 8.89948 12.2298C9.39994 11.4277 10.1162 10.7809 10.9672 10.3626C11.8182 9.94433 12.77 9.77125 13.7148 9.86296C14.6596 9.95468 15.5598 10.3075 16.3133 10.8816C18.4304 9.23759 20.7106 7.81277 23.1187 6.62928L18.9597 2.45356C18.5774 2.06895 18.099 1.79254 17.5737 1.65276C17.0483 1.51299 16.495 1.51489 15.9707 1.65828C11.2241 2.95822 2.85267 6.74906 0.0898338 17.5335C-0.0340324 18.0401 -0.0238287 18.57 0.119451 19.0716C0.262731 19.5731 0.534202 20.0293 0.907427 20.3955L5.71523 25.176C6.19809 23.7504 7.26451 21.1505 9.34898 18.1775C8.56483 17.2644 8.13446 16.1029 8.13543 14.9022V14.9012Z" fill="#008BAD"/>
</g>
<defs>
<clipPath id="clip0_917_4929">
<rect width="103" height="65" fill="white"/>
</clipPath>
</defs>
</svg>
