<svg width="108" height="74" viewBox="0 0 108 74" fill="none" xmlns="http://www.w3.org/2000/svg">
<g clip-path="url(#clip0_917_4958)">
<path d="M108 11.3671H100.042V0L54 9.0937L7.95789 0V11.3671H0V74H108V11.3671ZM96.9726 62.6329L55.5916 70.8172V11.8218L96.9726 3.63748V62.6329ZM11.0274 3.75115L52.4084 11.9355V70.8172L11.0274 62.6329V3.75115Z" fill="#008BAD"/>
<path d="M19.7809 18.7558L43.1999 23.3026H43.5409C43.8973 23.3099 44.2441 23.1869 44.5162 22.9567C44.7883 22.7264 44.967 22.4049 45.0188 22.0523C45.0831 21.6457 44.9894 21.2299 44.7569 20.8902C44.5244 20.5505 44.1707 20.3126 43.7683 20.2254L20.3494 15.6785C19.5536 15.4512 18.7578 16.0196 18.5223 16.9289C18.4086 17.8383 18.977 18.634 19.7728 18.7558H19.7809Z" fill="#008BAD"/>
<path d="M43.7685 32.169L20.3496 27.6222C19.9463 27.5556 19.5329 27.6498 19.1984 27.8847C18.8638 28.1195 18.6347 28.4762 18.5603 28.878C18.4859 29.2799 18.572 29.695 18.8003 30.034C19.0286 30.3731 19.3808 30.609 19.7812 30.6913L43.2001 35.23H43.5412C43.8975 35.2373 44.2443 35.1143 44.5164 34.884C44.7885 34.6538 44.9672 34.3323 45.0191 33.9796C45.1327 33.0703 44.5643 32.2746 43.7685 32.1528V32.169Z" fill="#008BAD"/>
<path d="M43.7682 43.877L20.3493 39.3302C19.5535 39.1028 18.7577 39.6712 18.5222 40.5805C18.4579 40.9871 18.5516 41.4029 18.7842 41.7426C19.0167 42.0823 19.3704 42.3202 19.7728 42.4074L43.1917 46.9542H43.5328C43.8891 46.9615 44.2359 46.8385 44.508 46.6083C44.7801 46.378 44.9588 46.0565 45.0107 45.7039C45.052 45.3018 44.9501 44.898 44.7228 44.5638C44.4955 44.2296 44.1574 43.9863 43.7682 43.877Z" fill="#008BAD"/>
<path d="M43.7684 55.5851L20.3494 51.0383C20.1461 50.9965 19.9365 50.9957 19.7328 51.0359C19.5292 51.0761 19.3356 51.1565 19.1634 51.2724C18.9912 51.3883 18.8439 51.5374 18.73 51.711C18.6161 51.8845 18.538 52.079 18.5002 52.2831C18.4624 52.4871 18.4657 52.6967 18.5099 52.8995C18.5541 53.1023 18.6382 53.2943 18.7575 53.4641C18.8768 53.634 19.0287 53.7784 19.2044 53.8888C19.3802 53.9993 19.5762 54.0736 19.781 54.1074L43.1999 58.6542H43.541C43.8973 58.6615 44.2441 58.5385 44.5162 58.3083C44.7883 58.0781 44.967 57.7565 45.0189 57.4039C45.0578 57.002 44.9538 56.5993 44.725 56.2667C44.4963 55.934 44.1575 55.6927 43.7684 55.5851Z" fill="#008BAD"/>
<path d="M64.5726 23.4162H64.9137L88.3326 18.8693C89.1284 18.7556 89.6969 17.9599 89.5832 17.0425C89.4695 16.2468 88.6737 15.6784 87.7561 15.7921L64.3534 20.347C63.5576 20.4607 62.9892 21.2564 63.1029 22.1739C63.2165 22.9696 63.785 23.4243 64.5808 23.4243L64.5726 23.4162Z" fill="#008BAD"/>
<path d="M64.5726 35.1244H64.9137L88.3326 30.5776C89.1284 30.4639 89.6969 29.6682 89.5832 28.7507C89.4695 27.955 88.6737 27.3867 87.7561 27.5003L64.3534 32.0553C63.5576 32.169 62.9892 32.9647 63.1029 33.8822C63.2165 34.6779 63.785 35.1325 64.5808 35.1325L64.5726 35.1244Z" fill="#008BAD"/>
<path d="M64.5729 46.9462H64.9139L88.3329 42.3993C89.1286 42.2857 89.6971 41.49 89.5834 40.5725C89.4697 39.7768 88.6739 39.2084 87.7563 39.3221L64.2318 43.8771C63.436 43.9907 62.8676 44.7864 62.9813 45.7039C63.2087 46.386 63.7771 46.9543 64.5729 46.9543V46.9462Z" fill="#008BAD"/>
<path d="M87.6508 51.0385L64.2318 55.5853C63.436 55.699 62.8676 56.4947 62.9813 57.4122C63.053 57.7555 63.2374 58.065 63.5051 58.2916C63.7729 58.5181 64.1087 58.6487 64.4592 58.6626H64.8002L88.2192 54.1076C89.015 53.9939 89.5834 53.1982 89.4697 52.2807C89.2423 51.3714 88.4547 50.803 87.6426 51.0304L87.6508 51.0385Z" fill="#008BAD"/>
</g>
<defs>
<clipPath id="clip0_917_4958">
<rect width="108" height="74" fill="white"/>
</clipPath>
</defs>
</svg>
