<svg width="69" height="73" viewBox="0 0 69 73" fill="none" xmlns="http://www.w3.org/2000/svg">
<g clip-path="url(#clip0_916_4914)">
<path d="M68.9984 43.8769C68.9948 42.677 68.5188 41.5274 67.6742 40.6789C66.8296 39.8305 65.6851 39.3523 64.4907 39.3487C63.7222 39.3435 62.9656 39.539 62.295 39.9163C61.6245 40.2935 61.0631 40.8393 60.6659 41.5002V41.3466C60.6623 40.1467 60.1863 38.997 59.3417 38.1486C58.4971 37.3002 57.3526 36.822 56.1582 36.8184C55.3897 36.8132 54.633 37.0087 53.9625 37.386C53.292 37.7632 52.7306 38.309 52.3334 38.9699V38.8053C52.3298 37.6054 51.8537 36.4558 51.0092 35.6074C50.1646 34.7589 49.0201 34.2807 47.8257 34.2771C47.0572 34.2719 46.3005 34.4675 45.63 34.8447C44.9595 35.2219 44.3981 35.7677 44.0009 36.4287V21.1316C44.0009 19.9292 43.5254 18.776 42.679 17.9258C41.8326 17.0756 40.6847 16.5979 39.4877 16.5979C38.2907 16.5979 37.1428 17.0756 36.2964 17.9258C35.45 18.776 34.9745 19.9292 34.9745 21.1316V50.8695C34.9647 50.9953 34.9249 51.1169 34.8583 51.224C34.7917 51.331 34.7003 51.4203 34.592 51.4842C34.4762 51.5322 34.3486 51.5432 34.2264 51.5157C34.1041 51.4882 33.9933 51.4236 33.909 51.3305L29.3193 46.72C28.5599 45.972 27.5669 45.51 26.5078 45.412C25.4487 45.314 24.3883 45.586 23.5057 46.1821C22.4347 46.8682 21.7463 48.0263 21.5168 49.3381C21.3638 50.6444 21.6712 51.9453 22.5126 52.9497L33.9104 66.7813C35.4988 68.7176 37.4924 70.2787 39.7494 71.3535C42.0064 72.4283 44.4714 72.9905 46.9692 73H54.0833C56.0433 73.0036 57.9847 72.6185 59.7962 71.8666C61.6076 71.1148 63.2535 70.0111 64.6394 68.6188C66.0252 67.2265 67.1238 65.5731 67.8721 63.7533C68.6204 61.9336 69.0036 59.9833 68.9998 58.0144L68.9984 43.8769Z" fill="#008BAD"/>
<path d="M29.8331 21.1316C29.8331 18.5841 30.8405 16.141 32.6337 14.3396C34.4269 12.5383 36.859 11.5263 39.395 11.5263C41.9114 11.5352 44.3255 12.5273 46.1266 14.2926C47.0218 15.1744 47.7331 16.2266 48.2191 17.3876C48.705 18.5486 48.9559 19.7953 48.9569 21.0547V26.28H54.3881C54.9711 26.2796 55.5483 26.1639 56.0868 25.9395C56.6252 25.715 57.1144 25.3862 57.5264 24.9719C57.9384 24.5575 58.2651 24.0657 58.4879 23.5245C58.7107 22.9833 58.8251 22.4033 58.8248 21.8177V4.45684C58.8241 3.27504 58.3564 2.14184 57.5245 1.30618C56.6926 0.470519 55.5645 0.000727041 54.3881 0H4.43672C3.26025 0.000727041 2.13217 0.470519 1.30028 1.30618C0.468394 2.14184 0.000723759 3.27504 0 4.45684V21.9C0.000723759 23.0818 0.468394 24.215 1.30028 25.0507C2.13217 25.8863 3.26025 26.3561 4.43672 26.3568H29.8331V21.1316ZM24.402 10.7579L17.1349 18.5958C16.9325 18.8201 16.684 18.9976 16.4067 19.116C16.1294 19.2345 15.8297 19.2911 15.5285 19.2819C15.2283 19.2836 14.931 19.2235 14.6548 19.1056C14.3785 18.9876 14.1292 18.8141 13.9221 18.5958L10.0974 14.4463C9.89732 14.2309 9.7423 13.9774 9.64147 13.7008C9.54063 13.4242 9.49602 13.1301 9.51029 12.8358C9.52455 12.5416 9.59739 12.2532 9.7245 11.9878C9.85162 11.7223 10.0304 11.4852 10.2504 11.2903C11.1669 10.5219 12.5452 10.5219 13.3921 11.444L15.6105 13.9029L21.2711 7.75556C22.1126 6.83346 23.4881 6.83346 24.4129 7.60188C24.8024 8.03432 25.0181 8.5967 25.0181 9.17989C25.0181 9.76307 24.8024 10.3255 24.4129 10.7579H24.402Z" fill="#008BAD"/>
</g>
<defs>
<clipPath id="clip0_916_4914">
<rect width="69" height="73" fill="white"/>
</clipPath>
</defs>
</svg>
