<svg width="100" height="26" viewBox="0 0 100 26" fill="none" xmlns="http://www.w3.org/2000/svg">
<rect x="0.5" y="1.04053" width="24" height="24.3257" rx="12" stroke="white"/>
<rect x="36.958" y="1.04053" width="25.0417" height="24.3257" rx="12.1629" stroke="white"/>
<rect x="75.5" y="1.04053" width="24" height="24.3257" rx="12" stroke="white"/>
<path fill-rule="evenodd" clip-rule="evenodd" d="M10.7517 10.5188L13.1273 10.5188L13.1273 11.7273C13.4702 11.0326 14.3474 10.4073 15.6656 10.4073C18.1928 10.4073 18.7917 11.7912 18.7917 14.3302L18.7917 19.0336L16.2342 19.0336L16.2342 14.9087C16.2342 13.4626 15.8913 12.6467 15.0205 12.6467C13.8123 12.6467 13.3099 13.5264 13.3099 14.9087L13.3099 19.0336L10.7517 19.0336L10.7517 10.5188ZM6.36564 18.9229L8.92389 18.9229L8.92389 10.4073L6.36564 10.4073L6.36564 18.9221L6.36564 18.9229ZM9.28993 7.62991C9.29475 7.8518 9.25578 8.07244 9.17529 8.27887C9.0948 8.4853 8.97441 8.67336 8.82121 8.83202C8.668 8.99068 8.48505 9.11674 8.2831 9.2028C8.08115 9.28887 7.86426 9.3332 7.64516 9.3332C7.42607 9.3332 7.20918 9.28887 7.00723 9.2028C6.80528 9.11674 6.62233 8.99068 6.46912 8.83202C6.31591 8.67336 6.19553 8.4853 6.11504 8.27887C6.03455 8.07244 5.99558 7.8518 6.0004 7.62991C6.00987 7.19436 6.18731 6.77988 6.49473 6.47523C6.80216 6.17059 7.21511 6 7.64516 6C8.07522 6 8.48817 6.17059 8.79559 6.47523C9.10302 6.77988 9.28046 7.19436 9.28993 7.62991Z" fill="white"/>
<path d="M47.6624 13.7069L47.6624 20.5201L50.2965 20.5201L50.2965 13.7069L52.8819 13.7069L52.9997 11.254L50.2965 11.254L50.2965 9.46272C50.2965 8.78634 50.4405 8.37892 51.3384 8.37892C52.168 8.37892 52.9284 8.38599 52.9284 8.38599L52.987 6.09531C52.987 6.09531 52.2415 6 51.2333 6C48.7433 6 47.6624 7.51176 47.6624 9.15825L47.6624 11.2539L45.833 11.2539L45.833 13.7069L47.6624 13.7069Z" fill="white"/>
<path d="M87.1262 9.71758C85.0233 9.71758 83.3071 11.4559 83.3071 13.5861C83.3071 15.7162 85.0233 17.4546 87.1262 17.4546C89.2292 17.4546 90.9454 15.7162 90.9454 13.5861C90.9454 11.4559 89.2292 9.71758 87.1262 9.71758ZM87.1262 19.5383C83.8744 19.5383 81.25 16.88 81.25 13.5861C81.25 10.2922 83.8744 7.63388 87.1262 7.63388C90.3781 7.63388 93.0025 10.2922 93.0025 13.5861C93.0025 16.88 90.3781 19.5383 87.1262 19.5383ZM93.2431 8.78021C92.4839 8.78021 91.8708 8.15916 91.8708 7.3901C91.8708 6.62105 92.4839 6 93.2431 6C94.0024 6 94.6155 6.62105 94.6155 7.3901C94.6157 7.57272 94.5804 7.75358 94.5115 7.92234C94.4426 8.0911 94.3415 8.24444 94.214 8.37357C94.0866 8.50269 93.9352 8.60508 93.7686 8.67486C93.602 8.74464 93.4234 8.78043 93.2431 8.78021Z" fill="white"/>
</svg>
