<svg width="18" height="15" viewBox="0 0 18 15" fill="none" xmlns="http://www.w3.org/2000/svg">
<path d="M5.67093 4.4684L0.780184 5.13155H0.676126C0.514357 5.15881 0.364444 5.22741 0.243888 5.32933C0.123333 5.43124 0.0371099 5.56228 -0.00471371 5.70714C-0.0465373 5.852 -0.0422358 6.0047 0.00768853 6.14742C0.0576129 6.29013 0.1511 6.41697 0.277235 6.51313L3.81522 9.63155L2.94807 14.0368V14.1316C2.92119 14.2823 2.94293 14.437 3.01065 14.5767C3.07837 14.7165 3.18916 14.8353 3.3296 14.9189C3.47004 15.0024 3.63408 15.0471 3.80186 15.0475C3.96963 15.0479 4.13392 15.004 4.27481 14.921L8.67128 12.821L13.0504 14.9052L13.1371 14.9447C13.2862 15.0117 13.4533 15.0383 13.6186 15.0212C13.7838 15.0042 13.9401 14.9443 14.069 14.8486C14.1979 14.7529 14.2938 14.6255 14.3453 14.4816C14.3969 14.3376 14.4019 14.1833 14.3598 14.0368L13.4927 9.63155L17.0306 6.51313L17.1087 6.44208C17.2146 6.33427 17.286 6.20204 17.3149 6.05982C17.3439 5.9176 17.3295 5.77087 17.2731 5.63563C17.2167 5.5004 17.1206 5.38187 16.9953 5.29297C16.8699 5.20408 16.7202 5.14824 16.5624 5.13155L11.6716 4.49208L9.4864 0.457869C9.41093 0.319823 9.29466 0.203677 9.15067 0.12249C9.00667 0.0413022 8.84065 -0.00170898 8.67128 -0.00170898C8.50191 -0.00170898 8.33589 0.0413022 8.19189 0.12249C8.0479 0.203677 7.93163 0.319823 7.85616 0.457869L5.67093 4.4684Z" fill="#4A7473"/>
</svg>
