<svg width="139" height="133" viewBox="0 0 139 133" fill="none" xmlns="http://www.w3.org/2000/svg">
<path d="M131.206 104.54H127.638C127.374 104.54 127.12 104.436 126.933 104.25C126.746 104.064 126.641 103.812 126.641 103.549C126.641 103.286 126.746 103.033 126.933 102.847C127.12 102.662 127.374 102.557 127.638 102.557H131.206C132.64 102.558 134.015 101.993 135.03 100.986C136.045 99.9801 136.617 98.6147 136.62 97.1899V7.35006C136.617 5.92526 136.045 4.55988 135.03 3.55364C134.015 2.54739 132.64 1.98249 131.206 1.98293H7.58365C6.15131 1.9838 4.77785 2.54944 3.76472 3.55569C2.75159 4.56194 2.18159 5.92657 2.17983 7.35006V97.1899C2.18159 98.6134 2.75159 99.9781 3.76472 100.984C4.77785 101.991 6.15131 102.556 7.58365 102.557H81.0574C81.3219 102.557 81.5757 102.662 81.7628 102.847C81.9499 103.033 82.055 103.286 82.055 103.549C82.055 103.812 81.9499 104.064 81.7628 104.25C81.5757 104.436 81.3219 104.54 81.0574 104.54H7.58365C5.62227 104.539 3.74156 103.764 2.35434 102.386C0.967129 101.008 0.186772 99.1392 0.18457 97.1899L0.18457 7.35006C0.186772 5.4008 0.967129 3.53205 2.35434 2.15403C3.74156 0.776007 5.62227 0.00131199 7.58365 0L131.206 0C133.169 0.000433636 135.051 0.774531 136.44 2.15246C137.829 3.53039 138.612 5.39962 138.616 7.35006V97.1899C138.612 99.1404 137.829 101.01 136.44 102.388C135.051 103.765 133.169 104.54 131.206 104.54Z" fill="#DEB9C1"/>
<path d="M108.427 104.54H108.153C107.888 104.54 107.635 104.436 107.447 104.25C107.26 104.064 107.155 103.812 107.155 103.549C107.155 103.286 107.26 103.033 107.447 102.848C107.635 102.662 107.888 102.557 108.153 102.557H108.427C108.692 102.557 108.946 102.662 109.133 102.848C109.32 103.033 109.425 103.286 109.425 103.549C109.425 103.812 109.32 104.064 109.133 104.25C108.946 104.436 108.692 104.54 108.427 104.54Z" fill="#DEB9C1"/>
<path d="M137.616 18.0777H1.1822C0.917612 18.0777 0.663861 17.9732 0.476769 17.7873C0.289677 17.6013 0.18457 17.3491 0.18457 17.0862C0.18457 16.8232 0.289677 16.5711 0.476769 16.3851C0.663861 16.1992 0.917612 16.0947 1.1822 16.0947H137.616C137.881 16.0947 138.135 16.1992 138.322 16.3851C138.509 16.5711 138.614 16.8232 138.614 17.0862C138.614 17.3491 138.509 17.6013 138.322 17.7873C138.135 17.9732 137.881 18.0777 137.616 18.0777Z" fill="#DEB9C1"/>
<path d="M65.2347 59.2366H33.8742C33.406 59.2362 32.9571 59.0512 32.6261 58.7222C32.295 58.3932 32.1088 57.947 32.1084 57.4818V26.3151C32.1088 25.8498 32.295 25.4037 32.6261 25.0747C32.9571 24.7456 33.406 24.5606 33.8742 24.5602H65.2347C65.7029 24.5606 66.1517 24.7456 66.4828 25.0747C66.8139 25.4037 67 25.8498 67.0005 26.3151V57.4818C67 57.947 66.8139 58.3932 66.4828 58.7222C66.1517 59.0512 65.7029 59.2362 65.2347 59.2366ZM34.1037 57.2537H65.0052V26.5431H34.1037V57.2537Z" fill="#DEB9C1"/>
<path d="M104.922 59.2366H73.5617C73.0935 59.2362 72.6446 59.0512 72.3136 58.7222C71.9825 58.3932 71.7963 57.947 71.7959 57.4818V26.3151C71.7963 25.8498 71.9825 25.4037 72.3136 25.0747C72.6446 24.7456 73.0935 24.5606 73.5617 24.5602H104.922C105.39 24.5606 105.839 24.7456 106.17 25.0747C106.501 25.4037 106.687 25.8498 106.688 26.3151V57.4818C106.687 57.947 106.501 58.3932 106.17 58.7222C105.839 59.0512 105.39 59.2362 104.922 59.2366ZM73.7912 57.2537H104.693V26.5431H73.7912V57.2537Z" fill="#DEB9C1"/>
<path d="M65.2347 97.2461H33.8742C33.4062 97.2452 32.9575 97.06 32.6266 96.7311C32.2956 96.4022 32.1093 95.9563 32.1084 95.4912V64.3245C32.1088 63.8592 32.295 63.4131 32.6261 63.0841C32.9571 62.7551 33.406 62.57 33.8742 62.5696H65.2347C65.7029 62.57 66.1517 62.7551 66.4828 63.0841C66.8139 63.4131 67 63.8592 67.0005 64.3245V95.4912C67 95.9565 66.8139 96.4026 66.4828 96.7316C66.1517 97.0606 65.7029 97.2456 65.2347 97.2461ZM34.1037 95.2631H65.0052V64.5525H34.1037V95.2631Z" fill="#DEB9C1"/>
<path d="M101.406 97.2444H101.175C100.91 97.2444 100.656 97.1399 100.469 96.954C100.282 96.768 100.177 96.5159 100.177 96.2529C100.177 95.99 100.282 95.7378 100.469 95.5518C100.656 95.3659 100.91 95.2614 101.175 95.2614H101.406C102.277 95.2606 103.113 94.9161 103.729 94.3036C104.345 93.6912 104.692 92.8607 104.693 91.9946V67.8194C104.692 66.9532 104.345 66.1228 103.729 65.5103C103.113 64.8979 102.277 64.5534 101.406 64.5525H77.0803C76.2087 64.5534 75.3731 64.8979 74.7569 65.5103C74.1406 66.1228 73.794 66.9532 73.7931 67.8194V91.9946C73.794 92.8607 74.1406 93.6912 74.7569 94.3036C75.3731 94.9161 76.2087 95.2606 77.0803 95.2614H89.243C89.5076 95.2614 89.7614 95.3659 89.9485 95.5518C90.1356 95.7378 90.2407 95.99 90.2407 96.2529C90.2407 96.5159 90.1356 96.768 89.9485 96.954C89.7614 97.1399 89.5076 97.2444 89.243 97.2444H77.0803C75.6797 97.2431 74.3369 96.6895 73.3465 95.7053C72.3561 94.7211 71.7992 93.3865 71.7979 91.9946V67.8194C71.7992 66.4275 72.3561 65.0929 73.3465 64.1087C74.3369 63.1244 75.6797 62.5709 77.0803 62.5696H101.406C102.806 62.5709 104.149 63.1244 105.14 64.1087C106.13 65.0929 106.687 66.4275 106.688 67.8194V91.9946C106.687 93.3865 106.13 94.7211 105.14 95.7053C104.149 96.6895 102.806 97.2431 101.406 97.2444Z" fill="#DEB9C1"/>
<path d="M108.149 109.03C107.885 109.03 107.631 108.925 107.444 108.739C107.257 108.553 107.152 108.301 107.152 108.038V101.939C107.15 101.195 106.851 100.481 106.32 99.9561C106.059 99.6915 105.747 99.482 105.402 99.34C105.058 99.1981 104.688 99.1266 104.315 99.1299C103.565 99.1299 102.846 99.4258 102.316 99.9526C101.786 100.479 101.488 101.194 101.488 101.939C101.488 102.202 101.383 102.454 101.196 102.64C101.009 102.826 100.755 102.93 100.491 102.93C100.226 102.93 99.9724 102.826 99.7854 102.64C99.5983 102.454 99.4932 102.202 99.4932 101.939C99.4932 100.668 100.001 99.4492 100.905 98.5505C101.81 97.6518 103.036 97.1469 104.315 97.1469C104.952 97.1434 105.583 97.267 106.172 97.5106C106.76 97.7541 107.293 98.1126 107.739 98.5647C108.633 99.4633 109.136 100.675 109.139 101.939V108.038C109.139 108.3 109.035 108.551 108.849 108.736C108.664 108.922 108.412 109.027 108.149 109.03Z" fill="#DEB9C1"/>
<path d="M115.8 112.024C115.535 112.024 115.281 111.92 115.094 111.734C114.907 111.548 114.802 111.295 114.802 111.033V104.93C114.809 104.333 114.614 103.751 114.247 103.278L114.19 103.198C114.125 103.106 114.051 103.021 113.969 102.942C113.683 102.659 113.34 102.44 112.962 102.301C112.583 102.161 112.179 102.104 111.777 102.134C111.374 102.163 110.983 102.279 110.63 102.472C110.276 102.665 109.968 102.931 109.728 103.253L109.709 103.278C109.341 103.75 109.144 104.332 109.151 104.93C109.151 105.193 109.045 105.445 108.858 105.631C108.671 105.817 108.418 105.922 108.153 105.922C107.888 105.922 107.635 105.817 107.448 105.631C107.26 105.445 107.155 105.193 107.155 104.93C107.152 103.893 107.494 102.885 108.128 102.061C108.54 101.512 109.066 101.056 109.671 100.727C110.276 100.397 110.945 100.201 111.633 100.151C112.321 100.101 113.011 100.199 113.658 100.438C114.304 100.677 114.891 101.051 115.379 101.536C115.553 101.703 115.71 101.888 115.846 102.086C116.467 102.905 116.802 103.904 116.797 104.93V111.029C116.798 111.16 116.772 111.289 116.722 111.41C116.672 111.53 116.599 111.64 116.506 111.732C116.414 111.825 116.304 111.898 116.182 111.948C116.061 111.998 115.931 112.024 115.8 112.024Z" fill="#DEB9C1"/>
<path d="M119.377 133H95.1609C94.2908 133.003 93.44 132.746 92.7188 132.262C91.9977 131.778 91.4397 131.09 91.1172 130.287L80.3511 105.963C80.0805 105.363 79.9547 104.709 79.9835 104.053C80.0124 103.396 80.1952 102.756 80.5174 102.182C80.9178 101.462 81.5192 100.872 82.249 100.484C82.9788 100.096 83.806 99.9259 84.6309 99.9941H84.6941C85.2311 100.075 85.7417 100.279 86.1849 100.591C86.6282 100.903 86.9917 101.314 87.2464 101.79L87.4692 102.205L92.03 110.515V87.7859C92.03 86.5399 92.5281 85.345 93.4146 84.464C94.3011 83.583 95.5034 83.088 96.7571 83.088C98.0108 83.088 99.2132 83.583 100.1 84.464C100.986 85.345 101.484 86.5399 101.484 87.7859V109.487C101.484 109.75 101.379 110.003 101.192 110.188C101.005 110.374 100.751 110.479 100.487 110.479C100.222 110.479 99.9682 110.374 99.7812 110.188C99.5941 110.003 99.489 109.75 99.489 109.487V87.7859C99.489 87.0658 99.2011 86.3753 98.6888 85.8661C98.1765 85.357 97.4816 85.0709 96.7571 85.0709C96.0326 85.0709 95.3377 85.357 94.8254 85.8661C94.3131 86.3753 94.0253 87.0658 94.0253 87.7859V114.39C94.0247 114.61 93.9505 114.823 93.8145 114.997C93.6786 115.17 93.4884 115.294 93.2741 115.348C93.0597 115.402 92.8332 115.384 92.6303 115.297C92.4274 115.209 92.2595 115.057 92.1531 114.864L85.7134 103.132L85.4822 102.721C85.3766 102.524 85.2274 102.355 85.0459 102.224C84.8644 102.094 84.6554 102.007 84.4347 101.969C83.995 101.939 83.5558 102.034 83.1688 102.244C82.7817 102.453 82.4629 102.768 82.2499 103.152C82.0805 103.458 81.9852 103.8 81.9717 104.149C81.9581 104.498 82.0266 104.846 82.1718 105.165L92.9445 129.503L92.9578 129.536C93.1302 129.976 93.4323 130.353 93.8243 130.618C94.2163 130.884 94.6799 131.025 95.1543 131.024H119.377C119.981 131.028 120.564 130.799 121.003 130.385C121.442 129.971 121.702 129.405 121.729 128.804L122.429 114.947V108.873C122.419 108.16 122.137 107.478 121.639 106.964C121.142 106.451 120.466 106.144 119.75 106.107C119.033 106.07 118.33 106.305 117.781 106.765C117.233 107.224 116.881 107.874 116.796 108.582C116.796 108.663 116.796 108.747 116.796 108.873C116.796 109.136 116.691 109.388 116.504 109.574C116.317 109.76 116.063 109.864 115.799 109.864C115.534 109.864 115.28 109.76 115.093 109.574C114.906 109.388 114.801 109.136 114.801 108.873C114.801 107.926 115.083 107 115.612 106.213C116.141 105.425 116.893 104.811 117.773 104.448C118.652 104.084 119.621 103.988 120.556 104.171C121.49 104.355 122.349 104.809 123.025 105.477C123.474 105.922 123.829 106.452 124.07 107.035C124.312 107.618 124.435 108.242 124.431 108.873V114.972C124.431 114.988 124.431 115.005 124.431 115.021L123.731 128.902C123.677 130.011 123.194 131.057 122.383 131.821C121.571 132.584 120.494 133.007 119.377 133Z" fill="#DEB9C1"/>
<path d="M11.3417 10.6302H11.2419C10.7789 10.6302 10.3349 10.4474 10.0074 10.122C9.68003 9.79658 9.49609 9.35526 9.49609 8.8951C9.49609 8.43493 9.68003 7.99361 10.0074 7.66822C10.3349 7.34283 10.7789 7.16003 11.2419 7.16003H11.3417C11.8047 7.16003 12.2488 7.34283 12.5762 7.66822C12.9036 7.99361 13.0876 8.43493 13.0876 8.8951C13.0876 9.35526 12.9036 9.79658 12.5762 10.122C12.2488 10.4474 11.8047 10.6302 11.3417 10.6302Z" fill="#DEB9C1"/>
<path d="M18.7043 10.6302H18.6062C18.1432 10.6302 17.6991 10.4474 17.3717 10.122C17.0443 9.79658 16.8604 9.35526 16.8604 8.8951C16.8604 8.43493 17.0443 7.99361 17.3717 7.66822C17.6991 7.34283 18.1432 7.16003 18.6062 7.16003H18.7043C19.1673 7.16003 19.6114 7.34283 19.9388 7.66822C20.2662 7.99361 20.4502 8.43493 20.4502 8.8951C20.4502 9.35526 20.2662 9.79658 19.9388 10.122C19.6114 10.4474 19.1673 10.6302 18.7043 10.6302Z" fill="#DEB9C1"/>
<path d="M26.0683 10.6302H25.9685C25.5055 10.6302 25.0614 10.4474 24.734 10.122C24.4066 9.79658 24.2227 9.35526 24.2227 8.8951C24.2227 8.43493 24.4066 7.99361 24.734 7.66822C25.0614 7.34283 25.5055 7.16003 25.9685 7.16003H26.0683C26.5313 7.16003 26.9754 7.34283 27.3028 7.66822C27.6302 7.99361 27.8141 8.43493 27.8141 8.8951C27.8141 9.35526 27.6302 9.79658 27.3028 10.122C26.9754 10.4474 26.5313 10.6302 26.0683 10.6302Z" fill="#DEB9C1"/>
</svg>
