<svg width="31" height="31" viewBox="0 0 31 31" fill="none" xmlns="http://www.w3.org/2000/svg">
<g clip-path="url(#clip0_172_1491)">
<path d="M15.5 7.03176e-09C11.3913 5.16778e-09 7.44861 1.63611 4.53928 4.53929C1.63611 7.44861 9.87969e-08 11.3913 1.34432e-07 15.5C1.70067e-07 19.6087 1.63611 23.5514 4.53928 26.4607C7.44861 29.37 11.3913 31 15.5 31C19.0367 31.0123 22.4688 29.8068 25.2182 27.574C25.8395 27.0758 26.4238 26.5284 26.9589 25.9379C29.6714 22.9609 31.1169 19.0429 30.9938 15.0202C30.8708 10.9976 29.1794 7.17798 26.2885 4.37322C23.3976 1.56845 19.5288 8.85945e-09 15.5 7.03176e-09ZM26.0671 23.7913C25.2429 20.3776 20.8266 17.7696 15.5 17.7696C10.1734 17.7696 5.75714 20.3776 4.93294 23.7974C2.84782 21.1403 1.83909 17.7943 2.10972 14.4298C2.38036 11.0653 3.90575 7.92222 6.39067 5.62798C8.86944 3.33373 12.1232 2.06667 15.5 2.06667C18.8768 2.06667 22.1306 3.33988 24.6155 5.62798C27.0942 7.92222 28.6258 11.0591 28.8964 14.4298C29.1609 17.7881 28.1522 21.1341 26.0671 23.7913Z" fill="white"/>
<path d="M20.4042 9.30611C21.0439 12.0125 19.3647 14.725 16.6583 15.3646C13.952 16.0043 11.2395 14.3252 10.5998 11.6188C9.96013 8.91246 11.6393 6.19996 14.3456 5.56028C17.052 4.92675 19.7645 6.59976 20.4042 9.30611Z" fill="white"/>
</g>
<defs>
<clipPath id="clip0_172_1491">
<rect width="31" height="31" fill="white"/>
</clipPath>
</defs>
</svg>
