<svg width="74" height="76" viewBox="0 0 74 76" fill="none" xmlns="http://www.w3.org/2000/svg">
<g clip-path="url(#clip0_917_4968)">
<path d="M63.3708 53.3971C61.3729 54.1119 58.1762 54.9982 54.6656 55.7988C53.3812 57.8803 51.1492 59.5614 47.553 60.2019C46.63 60.3682 45.6937 60.4486 44.7559 60.442C42.2785 60.5221 39.3216 60.2819 36.0507 59.9617C35.8343 59.9799 35.6166 59.9526 35.4114 59.8816C34.6122 59.803 33.9729 59.2412 33.8929 58.4421C33.8678 58.2046 33.896 57.9645 33.9754 57.7393C34.0549 57.5142 34.1836 57.3097 34.3522 57.1409C34.5207 56.972 34.7249 56.843 34.9496 56.7634C35.1744 56.6839 35.4141 56.6556 35.6511 56.6808C35.8909 56.6808 36.1306 56.7595 36.4503 56.7595C40.6059 57.1612 44.6018 57.4743 47.0792 56.9996C51.6972 56.119 52.9816 53.3228 52.662 50.9154C52.4222 48.9941 50.9837 47.1528 48.6661 47.3143C45.3838 47.5545 41.5535 47.3143 37.8774 46.9941C33.6418 46.6739 29.2464 46.5938 26.1296 46.9141C22.6932 47.3143 15.6605 49.8761 9.43273 54.1191C6.3959 56.2005 3.0394 58.6022 0.961562 60.1232C-0.0773546 60.9238 -0.322813 62.3648 0.482062 63.4112L9.51265 75.0994C9.69152 75.3423 9.91785 75.5462 10.1779 75.6988C10.4379 75.8514 10.7262 75.9493 11.0252 75.9868C11.3242 76.0242 11.6277 76.0003 11.9172 75.9166C12.2068 75.8329 12.4762 75.691 12.7093 75.4996L15.9916 72.9379C16.3797 72.6282 16.8396 72.4218 17.3286 72.3378C17.8176 72.2538 18.3198 72.295 18.7887 72.4575C24.8624 74.3789 31.3356 75.6597 35.4856 75.8999C44.676 76.3802 62.4175 65.4126 67.5322 61.8902C72.6411 58.4406 68.965 51.3214 63.3708 53.3971Z" fill="#008BAD"/>
<path d="M20.2164 24.3369H22.5339V26.6585C22.5339 27.2318 22.7613 27.7816 23.1659 28.1869C23.5706 28.5923 24.1194 28.82 24.6917 28.82C25.264 28.82 25.8128 28.5923 26.2175 28.1869C26.6221 27.7816 26.8494 27.2318 26.8494 26.6585V24.3369H29.167C29.7393 24.3369 30.2881 24.1092 30.6928 23.7038C31.0974 23.2984 31.3248 22.7486 31.3248 22.1754C31.3248 21.6021 31.0974 21.0523 30.6928 20.647C30.2881 20.2416 29.7393 20.0139 29.167 20.0139H26.8494V17.6923C26.8494 17.119 26.6221 16.5692 26.2175 16.1639C25.8128 15.7585 25.264 15.5308 24.6917 15.5308C24.1194 15.5308 23.5706 15.7585 23.1659 16.1639C22.7613 16.5692 22.5339 17.119 22.5339 17.6923V20.0139H20.2164C19.9327 20.0127 19.6516 20.0679 19.3893 20.1761C19.127 20.2843 18.8887 20.4435 18.6881 20.6444C18.4875 20.8454 18.3286 21.0841 18.2206 21.3469C18.1125 21.6096 18.0575 21.8912 18.0586 22.1754C18.1385 23.3762 19.0975 24.3369 20.2164 24.3369Z" fill="#008BAD"/>
<path d="M71.8418 31.8623H69.5242V29.5407C69.5242 28.9674 69.2969 28.4176 68.8922 28.0122C68.4876 27.6069 67.9388 27.3792 67.3665 27.3792C66.7942 27.3792 66.2454 27.6069 65.8407 28.0122C65.4361 28.4176 65.2087 28.9674 65.2087 29.5407V31.8623H62.8911C62.3189 31.8623 61.77 32.09 61.3654 32.4954C60.9607 32.9007 60.7334 33.4505 60.7334 34.0238C60.7334 34.597 60.9607 35.1468 61.3654 35.5522C61.77 35.9575 62.3189 36.1853 62.8911 36.1853H65.2087V38.5069C65.2087 39.0802 65.4361 39.6299 65.8407 40.0353C66.2454 40.4407 66.7942 40.6684 67.3665 40.6684C67.9388 40.6684 68.4876 40.4407 68.8922 40.0353C69.2969 39.6299 69.5242 39.0802 69.5242 38.5069V36.1853H71.8418C72.1255 36.1864 72.4066 36.1313 72.6689 36.0231C72.9312 35.9148 73.1695 35.7557 73.3701 35.5547C73.5707 35.3538 73.7296 35.115 73.8376 34.8523C73.9457 34.5895 74.0007 34.3079 73.9996 34.0238C73.9197 32.8229 72.9606 31.8623 71.8418 31.8623Z" fill="#008BAD"/>
<path d="M59.855 8.72035H62.1726V11.0477C62.1726 11.6209 62.3999 12.1707 62.8046 12.5761C63.2092 12.9815 63.7581 13.2092 64.3304 13.2092C64.9026 13.2092 65.4515 12.9815 65.8561 12.5761C66.2608 12.1707 66.4881 11.6209 66.4881 11.0477V8.72035H68.8057C69.378 8.72035 69.9268 8.49262 70.3315 8.08726C70.7361 7.6819 70.9634 7.13211 70.9634 6.55885C70.9634 5.98558 70.7361 5.43579 70.3315 5.03043C69.9268 4.62507 69.378 4.39734 68.8057 4.39734H66.4881V2.1615C66.4881 1.58824 66.2608 1.03845 65.8561 0.63309C65.4515 0.227729 64.9026 0 64.3304 0C63.7581 0 63.2092 0.227729 62.8046 0.63309C62.3999 1.03845 62.1726 1.58824 62.1726 2.1615V4.40306H59.855C59.2827 4.40306 58.7339 4.63079 58.3293 5.03615C57.9246 5.44151 57.6973 5.9913 57.6973 6.56456C57.6973 7.13783 57.9246 7.68762 58.3293 8.09298C58.7339 8.49834 59.2827 8.72607 59.855 8.72607V8.72035Z" fill="#008BAD"/>
<path d="M44.3511 25.6178H46.6686C47.0325 25.6192 47.3919 25.6985 47.7227 25.8503C48.0535 26.0022 48.3481 26.2232 48.5866 26.4984C48.8245 26.7703 49.004 27.0882 49.114 27.4325C49.224 27.7768 49.2621 28.1401 49.226 28.4998C49.0661 29.7864 47.8674 30.8214 46.5145 30.8214H43.3921C42.6785 30.8214 42.1077 30.3411 41.9536 29.6206C41.874 29.2555 41.672 28.9287 41.3812 28.6946C41.0904 28.4605 40.7283 28.3332 40.3552 28.334H36.759C36.2751 28.3493 35.8154 28.5498 35.4746 28.8944C35.3112 29.0619 35.1897 29.2659 35.1203 29.4895C35.0508 29.7132 35.0353 29.9501 35.075 30.181C35.2594 31.9924 36.0313 33.6934 37.2726 35.0236C38.5138 36.3538 40.1561 37.2398 41.9479 37.5461V40.1879C41.9505 40.633 42.1281 41.0591 42.4423 41.3738C42.7565 41.6885 43.1818 41.8665 43.6261 41.8691H47.1439C47.5882 41.8665 48.0135 41.6885 48.3277 41.3738C48.6418 41.0591 48.8195 40.633 48.8221 40.1879V37.3116C52.738 36.351 55.695 33.0687 56.1002 29.146C56.2156 27.8313 56.0625 26.5069 55.6503 25.2535C55.2381 24 54.5755 22.8438 53.7027 21.8552C52.8311 20.8703 51.7605 20.0821 50.5619 19.5429C49.3633 19.0036 48.0639 18.7256 46.75 18.7273H44.1127C43.7489 18.7259 43.3895 18.6466 43.0587 18.4947C42.7279 18.3429 42.4333 18.1219 42.1947 17.8467C41.9569 17.5748 41.7774 17.2569 41.6674 16.9126C41.5574 16.5683 41.5193 16.205 41.5554 15.8453C41.7152 14.5587 42.914 13.5237 44.2669 13.5237H47.3836C47.7261 13.5218 48.0582 13.6413 48.3212 13.8611C48.5841 14.0808 48.7611 14.3867 48.8207 14.7245C48.9007 15.0894 49.1029 15.4159 49.3936 15.6499C49.6843 15.8839 50.0461 16.0114 50.419 16.0111H54.0153C54.4993 15.9964 54.9592 15.7957 55.2996 15.4507C55.4634 15.2834 55.585 15.0795 55.6545 14.8557C55.7239 14.632 55.7393 14.395 55.6992 14.1641C55.5139 12.3536 54.7415 10.6538 53.5003 9.3247C52.2591 7.99562 50.6174 7.11048 48.8264 6.80472V4.24294C48.8238 3.79787 48.6461 3.37178 48.332 3.05707C48.0178 2.74236 47.5924 2.56439 47.1481 2.56177H43.6318C43.1875 2.56439 42.7622 2.74236 42.448 3.05707C42.1338 3.37178 41.9562 3.79787 41.9536 4.24294V7.04488C37.3969 8.08561 34.2016 12.4086 34.6754 17.1319C35.0764 21.8495 39.312 25.6178 44.3468 25.6178H44.3511Z" fill="#008BAD"/>
</g>
<defs>
<clipPath id="clip0_917_4968">
<rect width="74" height="76" fill="white"/>
</clipPath>
</defs>
</svg>
