<svg width="78" height="78" viewBox="0 0 78 78" fill="none" xmlns="http://www.w3.org/2000/svg">
<path d="M74.9124 44.5983C76.5842 43.1657 77.6773 41.1735 77.9876 38.9938C77.6759 36.8135 76.58 34.8216 74.9053 33.3911C73.8808 32.4422 73.0705 31.2856 72.5285 29.9986C72.3414 28.5628 72.4622 27.1036 72.883 25.7182C73.5971 23.6987 73.56 21.4895 72.7784 19.4951C71.4328 17.7843 69.5048 16.6285 67.3618 16.248C65.9726 15.9293 64.6682 15.3158 63.5368 14.449C62.6708 13.3169 62.0568 12.0128 61.736 10.624C61.3547 8.48129 60.1998 6.55316 58.4907 5.20567C56.4957 4.42372 54.2856 4.38722 52.2659 5.10287C50.8803 5.52285 49.4212 5.64368 47.9854 5.45736C46.699 4.91529 45.543 4.10497 44.5947 3.08051C43.1639 1.40747 41.173 0.312469 38.9938 -3.0092e-08C36.8135 0.31174 34.8216 1.40757 33.3911 3.08228C32.4425 4.10715 31.2858 4.91752 29.9986 5.45913C28.5634 5.64542 27.105 5.52459 25.72 5.10464C23.7002 4.38899 21.4901 4.42549 19.4951 5.20744C17.7848 6.55419 16.6292 8.48257 16.248 10.6258C15.9286 12.0147 15.3151 13.319 14.449 14.4507C13.3172 15.3169 12.0129 15.9304 10.624 16.2498C8.4808 16.631 6.55242 17.7866 5.20567 19.4969C4.42447 21.4915 4.38798 23.7007 5.10287 25.72C5.52275 27.1056 5.64357 28.5646 5.45736 30.0004C4.91532 31.2874 4.10501 32.4439 3.08051 33.3929C1.40683 34.8232 0.311686 36.8144 7.82181e-08 38.9938C0.312114 41.1745 1.40784 43.1668 3.08228 44.5983C4.10674 45.5466 4.91706 46.7025 5.45913 47.989C5.6454 49.4248 5.52457 50.8838 5.10464 52.2694C4.38979 54.2893 4.42628 56.4991 5.20745 58.4942C6.55494 60.2034 8.48306 61.3582 10.6258 61.7396C12.0146 62.0604 13.3187 62.6743 14.4507 63.5404C15.3176 64.6717 15.9311 65.9762 16.2498 67.3653C16.6303 69.5083 17.7861 71.4364 19.4969 72.7819C21.4919 73.5637 23.7016 73.6008 25.7217 72.8865C27.1066 72.4657 28.5652 72.3448 30.0004 72.532C31.288 73.0729 32.4448 73.8834 33.3929 74.9089C34.8245 76.5806 36.8151 77.6748 38.9938 77.9876C41.1742 77.6747 43.1663 76.5791 44.5983 74.9053C45.5461 73.8803 46.7022 73.0699 47.989 72.5285C49.4248 72.3412 50.884 72.4621 52.2694 72.883C54.2895 73.5972 56.4993 73.5601 58.4942 72.7784C60.2037 71.432 61.3587 69.5042 61.7396 67.3618C62.0597 65.9728 62.6737 64.6685 63.5404 63.5368C64.6721 62.6702 65.9763 62.0561 67.3653 61.736C69.5078 61.3552 71.4355 60.2002 72.7819 58.4907C73.5637 56.4957 73.6008 54.286 72.8865 52.2659C72.4657 50.8804 72.3449 49.4212 72.532 47.9854C73.0749 46.6996 73.8865 45.5447 74.9124 44.5983V44.5983ZM25.1386 54.6693C23.7324 52.9914 22.9829 50.8601 23.0294 48.6713C22.7192 44.577 23.5877 40.6493 24.5803 39.5521C25.2305 39.027 25.9783 38.636 26.7806 38.4017C27.5828 38.1675 28.4236 38.0946 29.2542 38.1873C28.2303 39.3206 27.4518 40.6533 26.9677 42.1019C26.4836 43.5505 26.3044 45.0835 26.4413 46.6047C26.4413 50.3888 26.6487 53.2212 28.7579 55.3092C27.5155 55.435 26.2626 55.2135 25.1386 54.6693V54.6693ZM51.4824 43.9779C52.5598 44.149 53.6617 44.0781 54.7083 43.7705C54.8139 44.0627 54.8737 44.3694 54.8855 44.6798C54.9782 45.485 54.8269 46.2994 54.4513 47.0177C54.3758 47.0974 54.2847 47.1607 54.1837 47.2038C54.1411 47.225 54.0791 47.225 54.0383 47.2658C53.2161 47.5334 52.336 47.5689 51.4949 47.3686C51.3631 47.336 51.2261 47.3301 51.092 47.3511C50.9578 47.3721 50.8292 47.4196 50.7137 47.4909C50.5982 47.5622 50.498 47.6558 50.4191 47.7663C50.3402 47.8768 50.2841 48.0019 50.2541 48.1343C50.2231 48.2674 50.2188 48.4053 50.2416 48.5401C50.2643 48.6748 50.3137 48.8037 50.3868 48.9192C50.4599 49.0347 50.5552 49.1344 50.6672 49.2127C50.7793 49.2909 50.9058 49.3461 51.0393 49.375C51.5956 49.5024 52.1649 49.5649 52.7356 49.5611C53.0032 49.5611 53.2939 49.5398 53.6041 49.5204C53.6864 50.0094 53.6702 50.5101 53.5564 50.9928C53.4426 51.4756 53.2334 51.9307 52.9412 52.3314C52.8245 52.4573 52.6929 52.5686 52.5495 52.6629C51.9508 52.9766 51.2636 53.0785 50.5998 52.9518C50.4654 52.9342 50.3288 52.9433 50.1979 52.9785C50.067 53.0137 49.9443 53.0744 49.8368 53.157C49.7293 53.2396 49.6392 53.3426 49.5715 53.46C49.5038 53.5775 49.4599 53.7071 49.4424 53.8416C49.4248 53.976 49.4339 54.1126 49.4691 54.2435C49.5043 54.3744 49.5649 54.4971 49.6475 54.6046C49.7302 54.712 49.8331 54.8022 49.9506 54.8698C50.0681 54.9375 50.1977 54.9814 50.3321 54.999C50.6258 55.04 50.9219 55.0607 51.2184 55.061C51.4679 55.0634 51.7171 55.0426 51.9628 54.999C51.8952 55.5678 51.6815 56.1095 51.3424 56.5711C51.135 56.8167 50.8792 57.0169 50.5911 57.1593C50.3029 57.3017 49.9885 57.3833 49.6675 57.3989C44.1917 57.8218 38.6846 57.247 33.4141 55.7026C32.9911 55.5485 32.5769 55.3709 32.1734 55.1709C32.1147 55.162 32.0586 55.1409 32.0086 55.1089C28.6587 53.4339 28.4938 51.1173 28.4938 46.61C28.4938 41.6046 30.0642 40.013 32.3188 38.2352C32.5261 38.0898 32.7317 37.925 32.9391 37.7584C33.7486 37.1704 34.5271 36.5409 35.2717 35.8725L35.8512 35.355C36.1481 35.1086 36.4315 34.8465 36.7003 34.5698C39.4706 31.8597 43.3576 25.8228 43.3576 20.8794C43.3576 20.7571 43.3576 20.5249 43.751 20.4877C44.46 20.3636 45.878 21.0673 46.5214 23.3006C46.8364 24.4335 46.9053 25.6207 46.7234 26.7824C46.5415 27.9442 46.113 29.0535 45.4668 30.0359C45.0329 30.6621 44.7557 31.3834 44.6586 32.1391C44.5614 32.8947 44.6471 33.6627 44.9084 34.3784C45.1365 34.9366 45.4872 35.4363 45.9345 35.8407C46.3818 36.2451 46.9143 36.5437 47.4927 36.7144C48.107 36.8333 48.7289 36.9091 49.3537 36.9413C51.05 37.0866 54.2138 37.3561 54.7313 38.5755C54.9951 39.0611 55.101 39.6169 55.0343 40.1655C54.9676 40.7141 54.7316 41.2283 54.3591 41.6365L54.3379 41.656C53.5301 42.0016 52.6369 42.0955 51.7749 41.9254C51.5009 41.8869 51.2229 41.9586 51.0016 42.1247C50.7804 42.2908 50.634 42.5378 50.5945 42.8116C50.5597 43.0824 50.6333 43.356 50.7993 43.5728C50.9653 43.7896 51.2102 43.932 51.4807 43.9691L51.4824 43.9779Z" fill="#008BAD"/>
</svg>
