<svg width="98" height="78" viewBox="0 0 98 78" fill="none" xmlns="http://www.w3.org/2000/svg">
<path d="M18.5862 35.6087C18.5863 34.0395 19.1286 32.5189 20.1206 31.306C21.1127 30.0931 22.4931 29.2628 24.0267 28.9568C25.5603 28.6508 27.1522 28.8879 28.5312 29.6277C29.9102 30.3675 30.9908 31.5642 31.5891 33.014C32.1874 34.4638 32.2663 36.0769 31.8123 37.5785C31.3583 39.08 30.3996 40.3772 29.0994 41.2489C27.7992 42.1206 26.2381 42.513 24.682 42.3591C23.1259 42.2052 21.6711 41.5146 20.5655 40.405C19.9379 39.7751 19.4401 39.0273 19.1005 38.2044C18.7609 37.3814 18.5861 36.4994 18.5862 35.6087ZM62.5172 62.7391H82.7931C83.6886 62.7366 84.5466 62.3785 85.1798 61.743C85.813 61.1076 86.1699 60.2465 86.1724 59.3478V55.007C86.1693 52.5615 85.2 50.217 83.4768 48.4878C81.7537 46.7585 79.4175 45.7857 76.9807 45.7826H68.3297C65.8928 45.7857 63.5566 46.7585 61.8335 48.4878C60.1104 50.217 59.141 52.5615 59.1379 55.007V59.3478C59.1405 60.2465 59.4973 61.1076 60.1305 61.743C60.7637 62.3785 61.6218 62.7366 62.5172 62.7391ZM98 3.3913V74.6087C97.9975 75.5073 97.6406 76.3685 97.0074 77.0039C96.3742 77.6393 95.5162 77.9974 94.6207 78H3.37931C2.48384 77.9974 1.62578 77.6393 0.992591 77.0039C0.359399 76.3685 0.00254757 75.5073 0 74.6087V3.3913C0.00254757 2.49266 0.359399 1.63155 0.992591 0.996114C1.62578 0.360675 2.48384 0.00255661 3.37931 0H94.6207C95.5162 0.00255661 96.3742 0.360675 97.0074 0.996114C97.6406 1.63155 97.9975 2.49266 98 3.3913ZM8.44828 10.1739H28.7241C29.1723 10.1739 29.602 9.99526 29.9189 9.67727C30.2358 9.35927 30.4138 8.92798 30.4138 8.47826C30.4138 8.02855 30.2358 7.59725 29.9189 7.27925C29.602 6.96126 29.1723 6.78261 28.7241 6.78261H8.44828C8.00015 6.78261 7.57038 6.96126 7.25351 7.27925C6.93664 7.59725 6.75862 8.02855 6.75862 8.47826C6.75862 8.92798 6.93664 9.35927 7.25351 9.67727C7.57038 9.99526 8.00015 10.1739 8.44828 10.1739ZM89.5517 10.1739C89.8859 10.1739 90.2126 10.0745 90.4904 9.88814C90.7683 9.70182 90.9849 9.437 91.1128 9.12716C91.2406 8.81732 91.2741 8.47638 91.2089 8.14746C91.1437 7.81853 90.9828 7.51639 90.7465 7.27925C90.5102 7.04211 90.2091 6.88062 89.8814 6.81519C89.5536 6.74976 89.2139 6.78334 88.9051 6.91168C88.5964 7.04002 88.3325 7.25736 88.1468 7.53621C87.9612 7.81506 87.8621 8.14289 87.8621 8.47826C87.8618 8.70101 87.9053 8.92162 87.9902 9.12746C88.075 9.3333 88.1994 9.52033 88.3564 9.67784C88.5133 9.83534 88.6997 9.96023 88.9048 10.0454C89.1099 10.1305 89.3298 10.1742 89.5517 10.1739ZM47.3103 16.9565H3.37931V74.6087H47.3103V16.9565ZM94.6207 16.9565H50.6897V74.6087H94.6207V16.9565ZM15.2069 62.7391H35.4828C36.3782 62.7366 37.2363 62.3785 37.8695 61.743C38.5027 61.1076 38.8595 60.2465 38.8621 59.3478V55.007C38.859 52.5615 37.8896 50.217 36.1665 48.4878C34.4434 46.7585 32.1072 45.7857 29.6703 45.7826H21.0193C18.5825 45.7857 16.2463 46.7585 14.5232 48.4878C12.8 50.217 11.8307 52.5615 11.8276 55.007V59.3478C11.8301 60.2465 12.187 61.1076 12.8202 61.743C13.4534 62.3785 14.3114 62.7366 15.2069 62.7391ZM72.6552 42.3913C74.2188 42.3912 75.734 41.847 76.9427 40.8514C78.1513 39.8559 78.9786 38.4705 79.2835 36.9315C79.5885 35.3924 79.3522 33.7949 78.6151 32.411C77.8779 31.0272 76.6854 29.9426 75.2407 29.3422C73.7961 28.7418 72.1887 28.6627 70.6924 29.1183C69.1961 29.5739 67.9035 30.536 67.0349 31.8408C66.1663 33.1456 65.7753 34.7122 65.9286 36.2739C66.082 37.8355 66.7701 39.2954 67.8759 40.405C68.5035 41.0348 69.2486 41.5344 70.0687 41.8752C70.8887 42.216 71.7676 42.3914 72.6552 42.3913Z" fill="#008BAD"/>
</svg>
